GentiumPlus-Regular.ufo
<glyph name="DollarSgn" format="2">
  <advance width="961"/>
  <unicode hex="0024"/>
  <outline>
    <contour>
      <point x="498" y="-164"/>
      <point x="522" y="-143" type="curve"/>
      <point x="522" y="1362" type="line"/>
      <point x="496" y="1384" type="line"/>
      <point x="457" y="1374"/>
      <point x="469" y="1378"/>
      <point x="432" y="1356" type="curve"/>
      <point x="432" y="-152" type="line"/>
      <point x="459" y="-174" type="line"/>
      <point x="492" y="-166"/>
    </contour>
    <contour>
      <point x="309" y="-10"/>
      <point x="442" y="-10" type="curve" smooth="yes"/>
      <point x="719" y="-10"/>
      <point x="862" y="199"/>
      <point x="862" y="377" type="curve" smooth="yes"/>
      <point x="862" y="780"/>
      <point x="225" y="696"/>
      <point x="225" y="958" type="curve" smooth="yes"/>
      <point x="225" y="1034"/>
      <point x="281" y="1116"/>
      <point x="451" y="1116" type="curve" smooth="yes"/>
      <point x="528" y="1116"/>
      <point x="612" y="1079"/>
      <point x="688" y="991" type="curve"/>
      <point x="727" y="983" type="line"/>
      <point x="762" y="1014"/>
      <point x="827" y="1106"/>
      <point x="811" y="1124" type="curve"/>
      <point x="758" y="1178"/>
      <point x="639" y="1214"/>
      <point x="512" y="1214" type="curve" smooth="yes"/>
      <point x="197" y="1214"/>
      <point x="98" y="1036"/>
      <point x="98" y="911" type="curve" smooth="yes"/>
      <point x="98" y="535"/>
      <point x="727" y="655"/>
      <point x="727" y="324" type="curve" smooth="yes"/>
      <point x="727" y="197"/>
      <point x="608" y="111"/>
      <point x="489" y="111" type="curve" smooth="yes"/>
      <point x="346" y="111"/>
      <point x="219" y="178"/>
      <point x="145" y="336" type="curve"/>
      <point x="102" y="340" type="line"/>
      <point x="82" y="266"/>
      <point x="84" y="109"/>
      <point x="102" y="96" type="curve"/>
      <point x="223" y="20"/>
    </contour>
  </outline>
</glyph>
<glyph name="PercentSgn" format="2">
  <advance width="1413"/>
  <unicode hex="0025"/>
  <outline>
    <contour>
      <point x="1337" y="125"/>
      <point x="1337" y="309" type="curve"/>
      <point x="1337" y="496"/>
      <point x="1231" y="646"/>
      <point x="1071" y="646" type="curve" smooth="yes"/>
      <point x="918" y="646"/>
      <point x="778" y="494"/>
      <point x="778" y="309" type="curve" smooth="yes"/>
      <point x="778" y="125"/>
      <point x="889" y="-30"/>
      <point x="1044" y="-30" type="curve" smooth="yes"/>
      <point x="1200" y="-30"/>
    </contour>
    <contour>
      <point x="358" y="17" type="curve"/>
      <point x="1217" y="1204" type="line"/>
      <point x="1188" y="1237" type="line"/>
      <point x="1147" y="1227"/>
      <point x="1092" y="1210"/>
      <point x="1055" y="1188" type="curve"/>
      <point x="199" y="1" type="line"/>
      <point x="223" y="-34" type="line"/>
      <point x="256" y="-24"/>
      <point x="334" y="-1"/>
    </contour>
    <contour>
      <point x="637" y="713"/>
      <point x="637" y="897" type="curve"/>
      <point x="637" y="1083"/>
      <point x="528" y="1234"/>
      <point x="369" y="1234" type="curve" smooth="yes"/>
      <point x="215" y="1234"/>
      <point x="76" y="1081"/>
      <point x="76" y="897" type="curve" smooth="yes"/>
      <point x="76" y="713"/>
      <point x="186" y="558"/>
      <point x="342" y="558" type="curve" smooth="yes"/>
      <point x="500" y="558"/>
    </contour>
    <contour>
      <point x="1194" y="477"/>
      <point x="1194" y="289" type="curve"/>
      <point x="1194" y="133"/>
      <point x="1137" y="51"/>
      <point x="1071" y="51" type="curve" smooth="yes"/>
      <point x="985" y="51"/>
      <point x="924" y="139"/>
      <point x="924" y="332" type="curve" smooth="yes"/>
      <point x="924" y="489"/>
      <point x="985" y="565"/>
      <point x="1044" y="565" type="curve" smooth="yes"/>
      <point x="1122" y="565"/>
    </contour>
    <contour>
      <point x="492" y="1067"/>
      <point x="492" y="877" type="curve"/>
      <point x="492" y="721"/>
      <point x="434" y="639"/>
      <point x="369" y="639" type="curve" smooth="yes"/>
      <point x="283" y="639"/>
      <point x="221" y="727"/>
      <point x="221" y="920" type="curve" smooth="yes"/>
      <point x="221" y="1077"/>
      <point x="283" y="1153"/>
      <point x="342" y="1153" type="curve" smooth="yes"/>
      <point x="420" y="1153"/>
    </contour>
  </outline>
</glyph>
<glyph name="Apos" format="2">
  <advance width="512"/>
  <unicode hex="0027"/>
  <outline>
    <contour>
      <point x="309" y="834" type="curve"/>
      <point x="352" y="1459" type="line"/>
      <point x="309" y="1480" type="line"/>
      <point x="281" y="1474"/>
      <point x="190" y="1443"/>
      <point x="160" y="1426" type="curve"/>
      <point x="213" y="813" type="line"/>
      <point x="244" y="813"/>
      <point x="289" y="823"/>
    </contour>
  </outline>
</glyph>
<glyph name="LftParen" format="2">
  <advance width="649"/>
  <unicode hex="0028"/>
  <outline>
    <contour>
      <point x="578" y="-315" type="curve"/>
      <point x="610" y="-270" type="line"/>
      <point x="406" y="-102"/>
      <point x="291" y="262"/>
      <point x="291" y="651" type="curve" smooth="yes"/>
      <point x="291" y="1079"/>
      <point x="436" y="1410"/>
      <point x="610" y="1555" type="curve"/>
      <point x="578" y="1600" type="line"/>
      <point x="303" y="1457"/>
      <point x="121" y="1061"/>
      <point x="121" y="623" type="curve" smooth="yes"/>
      <point x="121" y="199"/>
      <point x="276" y="-176"/>
    </contour>
  </outline>
</glyph>
<glyph name="RtParen" format="2">
  <advance width="649"/>
  <unicode hex="0029"/>
  <outline>
    <contour>
      <point x="530" y="225"/>
      <point x="530" y="664" type="curve"/>
      <point x="530" y="1087"/>
      <point x="373" y="1463"/>
      <point x="72" y="1600" type="curve"/>
      <point x="41" y="1555" type="line"/>
      <point x="246" y="1390"/>
      <point x="360" y="1022"/>
      <point x="360" y="635" type="curve" smooth="yes"/>
      <point x="360" y="207"/>
      <point x="213" y="-125"/>
      <point x="41" y="-270" type="curve"/>
      <point x="72" y="-315" type="line"/>
      <point x="346" y="-172"/>
    </contour>
  </outline>
</glyph>
<glyph name="DigitOne" format="2">
  <advance width="961"/>
  <unicode hex="0031"/>
  <anchor x="480" y="-100" name="L"/>
  <anchor x="480" y="1370" name="U"/>
  <outline>
    <contour>
      <point x="170" y="0" type="line"/>
      <point x="840" y="0" type="line"/>
      <point x="840" y="53" type="line"/>
      <point x="639" y="78"/>
      <point x="590" y="117"/>
      <point x="590" y="143" type="curve" smooth="yes"/>
      <point x="590" y="1210" type="line"/>
      <point x="553" y="1245" type="line"/>
      <point x="465" y="1196"/>
      <point x="250" y="1106"/>
      <point x="139" y="1075" type="curve"/>
      <point x="160" y="1024" type="line"/>
      <point x="336" y="1061"/>
      <point x="406" y="1055"/>
      <point x="422" y="1038" type="curve" smooth="yes"/>
      <point x="438" y="1020"/>
      <point x="440" y="993"/>
      <point x="440" y="940" type="curve" smooth="yes"/>
      <point x="440" y="143" type="line" smooth="yes"/>
      <point x="440" y="115"/>
      <point x="379" y="78"/>
      <point x="170" y="53" type="curve"/>
    </contour>
  </outline>
</glyph>
<glyph name="DigitSix" format="2">
  <advance width="961"/>
  <unicode hex="0036"/>
  <anchor x="480" y="-100" name="L"/>
  <anchor x="480" y="1370" name="U"/>
  <outline>
    <contour>
      <point x="881" y="225"/>
      <point x="881" y="412" type="curve"/>
      <point x="881" y="631"/>
      <point x="756" y="770"/>
      <point x="541" y="770" type="curve" smooth="yes"/>
      <point x="467" y="770"/>
      <point x="330" y="729"/>
      <point x="225" y="588" type="curve"/>
      <point x="238" y="492" type="line"/>
      <point x="317" y="614"/>
      <point x="422" y="660"/>
      <point x="500" y="660" type="curve" smooth="yes"/>
      <point x="598" y="660"/>
      <point x="731" y="598"/>
      <point x="731" y="348" type="curve" smooth="yes"/>
      <point x="731" y="225"/>
      <point x="688" y="75"/>
      <point x="545" y="75" type="curve" smooth="yes"/>
      <point x="379" y="75"/>
      <point x="270" y="221"/>
      <point x="270" y="537" type="curve" smooth="yes"/>
      <point x="270" y="811"/>
      <point x="442" y="1106"/>
      <point x="807" y="1190" type="curve"/>
      <point x="788" y="1249" type="line"/>
      <point x="324" y="1182"/>
      <point x="110" y="850"/>
      <point x="110" y="473" type="curve" smooth="yes"/>
      <point x="110" y="172"/>
      <point x="287" y="-30"/>
      <point x="506" y="-30" type="curve" smooth="yes"/>
      <point x="752" y="-30"/>
    </contour>
  </outline>
</glyph>
<glyph name="EqSgn" format="2">
  <advance width="899"/>
  <unicode hex="003D"/>
  <outline>
    <contour>
      <point x="831" y="714"/>
      <point x="838" y="740" type="curve"/>
      <point x="813" y="765" type="line"/>
      <point x="92" y="765" type="line"/>
      <point x="80" y="740"/>
      <point x="68" y="707"/>
      <point x="61" y="680" type="curve"/>
      <point x="86" y="655" type="line"/>
      <point x="809" y="655" type="line"/>
      <point x="817" y="678"/>
    </contour>
    <contour>
      <point x="831" y="412"/>
      <point x="838" y="440" type="curve"/>
      <point x="813" y="465" type="line"/>
      <point x="92" y="465" type="line"/>
      <point x="80" y="438"/>
      <point x="68" y="409"/>
      <point x="61" y="382" type="curve"/>
      <point x="86" y="355" type="line"/>
      <point x="809" y="355" type="line"/>
      <point x="817" y="380"/>
    </contour>
  </outline>
</glyph>
<glyph name="LtnCapB" format="2">
  <advance width="1126"/>
  <unicode hex="0042"/>
  <anchor x="528" y="-100" name="L"/>
  <anchor x="528" y="1370" name="U"/>
  <outline>
    <contour>
      <point x="1016" y="129"/>
      <point x="1016" y="356" type="curve"/>
      <point x="1016" y="541"/>
      <point x="885" y="690"/>
      <point x="715" y="723" type="curve"/>
      <point x="831" y="768"/>
      <point x="905" y="877"/>
      <point x="905" y="1020" type="curve" smooth="yes"/>
      <point x="905" y="1188"/>
      <point x="737" y="1290"/>
      <point x="469" y="1290" type="curve" smooth="yes"/>
      <point x="324" y="1290"/>
      <point x="145" y="1259"/>
      <point x="41" y="1230" type="curve"/>
      <point x="50" y="1168" type="line"/>
      <point x="163" y="1189"/>
      <point x="308" y="1206"/>
      <point x="413" y="1206" type="curve" smooth="yes"/>
      <point x="671" y="1206"/>
      <point x="750" y="1104"/>
      <point x="750" y="971" type="curve" smooth="yes"/>
      <point x="750" y="856"/>
      <point x="692" y="725"/>
      <point x="389" y="725" type="curve" smooth="yes"/>
      <point x="291" y="725" type="line"/>
      <point x="301" y="627" type="line"/>
      <point x="365" y="639"/>
      <point x="432" y="650"/>
      <point x="520" y="650" type="curve" smooth="yes"/>
      <point x="752" y="650"/>
      <point x="852" y="469"/>
      <point x="852" y="322" type="curve" smooth="yes"/>
      <point x="852" y="172"/>
      <point x="729" y="70"/>
      <point x="537" y="70" type="curve" smooth="yes"/>
      <point x="477" y="70"/>
      <point x="386" y="76"/>
      <point x="345" y="98" type="curve"/>
      <point x="123" y="0" type="line"/>
      <point x="248" y="-6"/>
      <point x="444" y="-14"/>
      <point x="559" y="-14" type="curve"/>
      <point x="829" y="-14"/>
    </contour>
    <contour>
      <point x="50" y="0" type="line"/>
      <point x="500" y="0" type="line"/>
      <point x="500" y="43" type="line"/>
      <point x="403" y="61"/>
      <point x="355" y="88"/>
      <point x="355" y="104" type="curve" smooth="yes"/>
      <point x="355" y="1231" type="line"/>
      <point x="195" y="1210" type="line"/>
      <point x="195" y="104" type="line" smooth="yes"/>
      <point x="195" y="86"/>
      <point x="140" y="61"/>
      <point x="50" y="43" type="curve"/>
    </contour>
  </outline>
</glyph>
<glyph name="LtnCapD" format="2">
  <advance width="1214"/>
  <unicode hex="0044"/>
  <anchor x="550" y="-100" name="L"/>
  <anchor x="550" y="1370" name="U"/>
  <outline>
    <contour>
      <point x="50" y="0" type="line"/>
      <point x="82" y="0" type="line" smooth="yes"/>
      <point x="274" y="0"/>
      <point x="345" y="0"/>
      <point x="500" y="0" type="curve" smooth="yes"/>
      <point x="559" y="0" type="line" smooth="yes"/>
      <point x="795" y="0"/>
      <point x="1123" y="176"/>
      <point x="1123" y="676" type="curve" smooth="yes"/>
      <point x="1123" y="1063"/>
      <point x="889" y="1290"/>
      <point x="518" y="1290" type="curve" smooth="yes"/>
      <point x="360" y="1290"/>
      <point x="158" y="1263"/>
      <point x="41" y="1230" type="curve"/>
      <point x="50" y="1168" type="line"/>
      <point x="94" y="1175"/>
      <point x="143" y="1182"/>
      <point x="195" y="1189" type="curve"/>
      <point x="195" y="104" type="line" smooth="yes"/>
      <point x="195" y="86"/>
      <point x="140" y="61"/>
      <point x="50" y="43" type="curve"/>
    </contour>
    <contour>
      <point x="537" y="84" type="curve" smooth="yes"/>
      <point x="451" y="84"/>
      <point x="355" y="93"/>
      <point x="355" y="154" type="curve" smooth="yes"/>
      <point x="355" y="1203" type="line"/>
      <point x="387" y="1205"/>
      <point x="420" y="1206"/>
      <point x="453" y="1206" type="curve" smooth="yes"/>
      <point x="774" y="1206"/>
      <point x="953" y="991"/>
      <point x="953" y="637" type="curve" smooth="yes"/>
      <point x="953" y="262"/>
      <point x="721" y="84"/>
    </contour>
  </outline>
</glyph>
<glyph name="LtnCapO" format="2">
  <advance width="1229"/>
  <unicode hex="004F"/>
  <anchor x="587" y="0" name="H"/>
  <anchor x="617" y="-100" name="L"/>
  <anchor x="678" y="0" name="O"/>
  <anchor x="1258" y="1100" name="R"/>
  <anchor x="617" y="1370" name="U"/>
  <outline>
    <contour>
      <point x="577" y="-30" type="curve" smooth="yes"/>
      <point x="881" y="-30"/>
      <point x="1140" y="285"/>
      <point x="1140" y="647" type="curve" smooth="yes"/>
      <point x="1140" y="973"/>
      <point x="965" y="1290"/>
      <point x="635" y="1290" type="curve" smooth="yes"/>
      <point x="321" y="1290"/>
      <point x="72" y="975"/>
      <point x="72" y="612" type="curve" smooth="yes"/>
      <point x="72" y="276"/>
      <point x="256" y="-30"/>
    </contour>
    <contour>
      <point x="606" y="90" type="curve" smooth="yes"/>
      <point x="401" y="90"/>
      <point x="227" y="342"/>
      <point x="227" y="641" type="curve" smooth="yes"/>
      <point x="227" y="967"/>
      <point x="369" y="1175"/>
      <point x="606" y="1175" type="curve" smooth="yes"/>
      <point x="833" y="1175"/>
      <point x="985" y="905"/>
      <point x="985" y="629" type="curve" smooth="yes"/>
      <point x="985" y="276"/>
      <point x="827" y="90"/>
    </contour>
  </outline>
</glyph>
<glyph name="LtnCapR" format="2">
  <advance width="1149"/>
  <unicode hex="0052"/>
  <anchor x="275" y="0" name="H"/>
  <anchor x="520" y="-100" name="L"/>
  <anchor x="520" y="1370" name="U"/>
  <outline>
    <contour>
      <point x="927" y="731"/>
      <point x="927" y="987" type="curve"/>
      <point x="927" y="1159"/>
      <point x="778" y="1290"/>
      <point x="469" y="1290" type="curve" smooth="yes"/>
      <point x="293" y="1290"/>
      <point x="166" y="1261"/>
      <point x="41" y="1230" type="curve"/>
      <point x="50" y="1168" type="line"/>
      <point x="187" y="1189"/>
      <point x="315" y="1206"/>
      <point x="432" y="1206" type="curve" smooth="yes"/>
      <point x="670" y="1206"/>
      <point x="772" y="1102"/>
      <point x="772" y="956" type="curve" smooth="yes"/>
      <point x="772" y="780"/>
      <point x="654" y="684"/>
      <point x="444" y="684" type="curve" smooth="yes"/>
      <point x="410" y="684"/>
      <point x="384" y="686"/>
      <point x="337" y="694" type="curve"/>
      <point x="343" y="614" type="line"/>
      <point x="384" y="604"/>
      <point x="424" y="600"/>
      <point x="461" y="600" type="curve" smooth="yes"/>
      <point x="719" y="600"/>
    </contour>
    <contour>
      <point x="1051" y="8"/>
      <point x="1139" y="37" type="curve"/>
      <point x="1128" y="80" type="line"/>
      <point x="1038" y="72"/>
      <point x="988" y="81"/>
      <point x="948" y="139" type="curve" smooth="yes"/>
      <point x="613" y="678" type="line"/>
      <point x="509" y="612" type="line"/>
      <point x="817" y="41" type="line" smooth="yes"/>
      <point x="835" y="11"/>
      <point x="877" y="-14"/>
      <point x="915" y="-14" type="curve" smooth="yes"/>
      <point x="967" y="-14"/>
    </contour>
    <contour>
      <point x="50" y="0" type="line"/>
      <point x="500" y="0" type="line"/>
      <point x="500" y="43" type="line"/>
      <point x="403" y="61"/>
      <point x="355" y="88"/>
      <point x="355" y="104" type="curve" smooth="yes"/>
      <point x="355" y="1221" type="line"/>
      <point x="195" y="1221" type="line"/>
      <point x="195" y="104" type="line" smooth="yes"/>
      <point x="195" y="86"/>
      <point x="140" y="61"/>
      <point x="50" y="43" type="curve"/>
    </contour>
  </outline>
</glyph>
<glyph name="LtnCapW" format="2">
  <advance width="1741"/>
  <unicode hex="0057"/>
  <anchor x="861" y="-100" name="L"/>
  <anchor x="861" y="1370" name="U"/>
  <outline>
    <contour>
      <point x="1584" y="1193"/>
      <point x="1702" y="1217" type="curve"/>
      <point x="1702" y="1260" type="line"/>
      <point x="1278" y="1260" type="line"/>
      <point x="1278" y="1217" type="line"/>
      <point x="1368" y="1202"/>
      <point x="1438" y="1186"/>
      <point x="1432" y="1155" type="curve"/>
      <point x="1245" y="250" type="line"/>
      <point x="891" y="1260" type="line"/>
      <point x="836" y="1260" type="line"/>
      <point x="512" y="250" type="line"/>
      <point x="313" y="1147" type="line" smooth="yes"/>
      <point x="307" y="1176"/>
      <point x="319" y="1204"/>
      <point x="449" y="1217" type="curve"/>
      <point x="449" y="1260" type="line"/>
      <point x="20" y="1260" type="line"/>
      <point x="20" y="1217" type="line"/>
      <point x="115" y="1200"/>
      <point x="151" y="1180"/>
      <point x="158" y="1147" type="curve" smooth="yes"/>
      <point x="418" y="-30" type="line"/>
      <point x="472" y="-18"/>
      <point x="550" y="2"/>
      <point x="569" y="59" type="curve" smooth="yes"/>
      <point x="856" y="944" type="line"/>
      <point x="1182" y="-30" type="line"/>
      <point x="1223" y="-21"/>
      <point x="1309" y="2"/>
      <point x="1321" y="59" type="curve" smooth="yes"/>
      <point x="1550" y="1155" type="line" smooth="yes"/>
      <point x="1554" y="1176"/>
    </contour>
  </outline>
</glyph>
<glyph name="LftSqrBrac" format="2">
  <advance width="630"/>
  <unicode hex="005B"/>
  <outline>
    <contour>
      <point x="584" y="-275"/>
      <point x="590" y="-249" type="curve"/>
      <point x="555" y="-220" type="line"/>
      <point x="280" y="-220" type="line"/>
      <point x="280" y="1485" type="line"/>
      <point x="561" y="1485" type="line"/>
      <point x="569" y="1501"/>
      <point x="582" y="1541"/>
      <point x="588" y="1574" type="curve"/>
      <point x="555" y="1600" type="line"/>
      <point x="140" y="1600" type="line"/>
      <point x="140" y="-335" type="line"/>
      <point x="561" y="-335" type="line"/>
      <point x="571" y="-312"/>
    </contour>
  </outline>
</glyph>
<glyph name="GraveAccent" format="2">
  <advance width="653"/>
  <unicode hex="0060"/>
  <anchor x="327" y="1410" name="U"/>
  <outline>
    <contour>
      <point x="426" y="1068"/>
      <point x="438" y="1078" type="curve"/>
      <point x="198" y="1489" type="line"/>
      <point x="165" y="1486"/>
      <point x="78" y="1471"/>
      <point x="52" y="1465" type="curve"/>
      <point x="30" y="1424" type="line"/>
      <point x="382" y="1047" type="line"/>
      <point x="405" y="1054"/>
    </contour>
  </outline>
</glyph>
<glyph name="LtnSmB" format="2">
  <advance width="1040"/>
  <unicode hex="0062"/>
  <anchor x="479" y="0" name="H"/>
  <anchor x="479" y="-100" name="L"/>
  <anchor x="1068" y="900" name="R"/>
  <anchor x="520" y="1620" name="U"/>
  <outline>
    <contour>
      <point x="950" y="260"/>
      <point x="950" y="492" type="curve"/>
      <point x="950" y="784"/>
      <point x="819" y="960"/>
      <point x="637" y="960" type="curve" smooth="yes"/>
      <point x="561" y="960"/>
      <point x="423" y="887"/>
      <point x="290" y="727" type="curve"/>
      <point x="290" y="1516" type="line"/>
      <point x="279" y="1527"/>
      <point x="266" y="1539"/>
      <point x="253" y="1550" type="curve"/>
      <point x="177" y="1509"/>
      <point x="97" y="1490"/>
      <point x="10" y="1470" type="curve"/>
      <point x="10" y="1430" type="line"/>
      <point x="119" y="1417"/>
      <point x="140" y="1414"/>
      <point x="140" y="1296" type="curve" smooth="yes"/>
      <point x="140" y="96" type="line"/>
      <point x="284" y="16"/>
      <point x="418" y="-30"/>
      <point x="469" y="-30" type="curve" smooth="yes"/>
      <point x="764" y="-30"/>
    </contour>
    <contour>
      <point x="815" y="674"/>
      <point x="815" y="408" type="curve"/>
      <point x="815" y="254"/>
      <point x="729" y="100"/>
      <point x="567" y="100" type="curve" smooth="yes"/>
      <point x="520" y="100"/>
      <point x="396" y="123"/>
      <point x="290" y="203" type="curve"/>
      <point x="290" y="610" type="line"/>
      <point x="402" y="776"/>
      <point x="520" y="825"/>
      <point x="567" y="825" type="curve" smooth="yes"/>
      <point x="696" y="825"/>
    </contour>
  </outline>
</glyph>
<glyph name="LtnSmH" format="2">
  <advance width="1130"/>
  <unicode hex="0068"/>
  <anchor x="257" y="0" name="H"/>
  <anchor x="577" y="-100" name="L"/>
  <anchor x="577" y="1620" name="U"/>
  <outline>
    <contour>
      <point x="670" y="0" type="line"/>
      <point x="1100" y="0" type="line"/>
      <point x="1100" y="43" type="line"/>
      <point x="995" y="70"/>
      <point x="960" y="86"/>
      <point x="960" y="104" type="curve" smooth="yes"/>
      <point x="960" y="741" type="line" smooth="yes"/>
      <point x="960" y="891"/>
      <point x="854" y="960"/>
      <point x="739" y="960" type="curve" smooth="yes"/>
      <point x="635" y="960"/>
      <point x="460" y="854"/>
      <point x="345" y="684" type="curve"/>
      <point x="345" y="1516" type="line"/>
      <point x="308" y="1550" type="line"/>
      <point x="232" y="1511"/>
      <point x="168" y="1491"/>
      <point x="55" y="1470" type="curve"/>
      <point x="55" y="1430" type="line"/>
      <point x="184" y="1415"/>
      <point x="195" y="1409"/>
      <point x="195" y="1298" type="curve" smooth="yes"/>
      <point x="195" y="104" type="line" smooth="yes"/>
      <point x="195" y="82"/>
      <point x="143" y="66"/>
      <point x="55" y="43" type="curve"/>
      <point x="55" y="0" type="line"/>
      <point x="485" y="0" type="line"/>
      <point x="485" y="43" type="line"/>
      <point x="399" y="61"/>
      <point x="345" y="84"/>
      <point x="345" y="104" type="curve" smooth="yes"/>
      <point x="345" y="549" type="line"/>
      <point x="460" y="735"/>
      <point x="590" y="830"/>
      <point x="682" y="830" type="curve" smooth="yes"/>
      <point x="770" y="830"/>
      <point x="810" y="795"/>
      <point x="810" y="633" type="curve" smooth="yes"/>
      <point x="810" y="104" type="line" smooth="yes"/>
      <point x="810" y="86"/>
      <point x="766" y="68"/>
      <point x="670" y="43" type="curve"/>
    </contour>
  </outline>
</glyph>
<glyph name="LtnSmI" format="2">
  <advance width="555"/>
  <unicode hex="0069"/>
  <anchor x="285" y="0" name="H"/>
  <anchor x="285" y="-100" name="L"/>
  <anchor x="335" y="0" name="O"/>
  <anchor x="555" y="900" name="R"/>
  <anchor x="285" y="1050" name="U"/>
  <outline>
    <contour>
      <point x="390" y="1186"/>
      <point x="390" y="1261" type="curve" smooth="yes"/>
      <point x="390" y="1323"/>
      <point x="362" y="1356"/>
      <point x="305" y="1356" type="curve" smooth="yes"/>
      <point x="242" y="1356"/>
      <point x="190" y="1296"/>
      <point x="190" y="1220" type="curve" smooth="yes"/>
      <point x="190" y="1159"/>
      <point x="215" y="1124"/>
      <point x="274" y="1124" type="curve" smooth="yes"/>
      <point x="340" y="1124"/>
    </contour>
    <contour>
      <point x="70" y="0" type="line"/>
      <point x="500" y="0" type="line"/>
      <point x="500" y="43" type="line"/>
      <point x="403" y="61"/>
      <point x="360" y="88"/>
      <point x="360" y="104" type="curve" smooth="yes"/>
      <point x="360" y="960" type="line"/>
      <point x="326" y="960" type="line"/>
      <point x="258" y="927"/>
      <point x="154" y="896"/>
      <point x="70" y="880" type="curve"/>
      <point x="70" y="840" type="line"/>
      <point x="209" y="827"/>
      <point x="210" y="807"/>
      <point x="210" y="670" type="curve" smooth="yes"/>
      <point x="210" y="104" type="line" smooth="yes"/>
      <point x="210" y="86"/>
      <point x="160" y="61"/>
      <point x="70" y="43" type="curve"/>
    </contour>
  </outline>
</glyph>
<glyph name="LtnSmV" format="2">
  <advance width="1010"/>
  <unicode hex="0076"/>
  <anchor x="499" y="0" name="H"/>
  <anchor x="516" y="-100" name="L"/>
  <anchor x="460" y="0" name="O"/>
  <anchor x="536" y="1050" name="U"/>
  <outline>
    <contour>
      <point x="909" y="868"/>
      <point x="989" y="887" type="curve"/>
      <point x="989" y="930" type="line"/>
      <point x="666" y="930" type="line"/>
      <point x="666" y="887" type="line"/>
      <point x="764" y="872"/>
      <point x="784" y="859"/>
      <point x="770" y="819" type="curve" smooth="yes"/>
      <point x="539" y="178" type="line"/>
      <point x="293" y="819" type="line" smooth="yes"/>
      <point x="276" y="862"/>
      <point x="303" y="874"/>
      <point x="406" y="887" type="curve"/>
      <point x="406" y="930" type="line"/>
      <point x="20" y="930" type="line"/>
      <point x="20" y="887" type="line"/>
      <point x="86" y="872"/>
      <point x="117" y="854"/>
      <point x="131" y="819" type="curve" smooth="yes"/>
      <point x="461" y="-30" type="line"/>
      <point x="496" y="-22"/>
      <point x="574" y="-1"/>
      <point x="596" y="59" type="curve" smooth="yes"/>
      <point x="879" y="819" type="line" smooth="yes"/>
      <point x="893" y="858"/>
    </contour>
  </outline>
</glyph>
<glyph name="LtnSmY" format="2">
  <advance width="1010"/>
  <unicode hex="0079"/>
  <anchor x="770" y="-100" name="L"/>
  <anchor x="1044" y="900" name="R"/>
  <anchor x="530" y="1050" name="U"/>
  <outline>
    <contour>
      <point x="909" y="868"/>
      <point x="989" y="887" type="curve"/>
      <point x="989" y="930" type="line"/>
      <point x="655" y="930" type="line"/>
      <point x="655" y="887" type="line"/>
      <point x="754" y="872"/>
      <point x="785" y="861"/>
      <point x="770" y="819" type="curve" smooth="yes"/>
      <point x="539" y="182" type="line"/>
      <point x="293" y="819" type="line" smooth="yes"/>
      <point x="276" y="863"/>
      <point x="303" y="874"/>
      <point x="406" y="887" type="curve"/>
      <point x="406" y="930" type="line"/>
      <point x="20" y="930" type="line"/>
      <point x="20" y="887" type="line"/>
      <point x="86" y="872"/>
      <point x="117" y="856"/>
      <point x="131" y="819" type="curve" smooth="yes"/>
      <point x="459" y="-23" type="line"/>
      <point x="430" y="-92" type="line" smooth="yes"/>
      <point x="382" y="-207"/>
      <point x="299" y="-313"/>
      <point x="250" y="-330" type="curve" smooth="yes"/>
      <point x="200" y="-347"/>
      <point x="133" y="-349"/>
      <point x="70" y="-312" type="curve"/>
      <point x="27" y="-338"/>
      <point x="-47" y="-431"/>
      <point x="-47" y="-447" type="curve" smooth="yes"/>
      <point x="-47" y="-472"/>
      <point x="25" y="-500"/>
      <point x="127" y="-500" type="curve" smooth="yes"/>
      <point x="260" y="-500"/>
      <point x="435" y="-378"/>
      <point x="545" y="-82" type="curve" smooth="yes"/>
      <point x="879" y="820" type="line" smooth="yes"/>
      <point x="893" y="859"/>
    </contour>
  </outline>
</glyph>
<glyph name="PoundSgn" format="2">
  <advance width="961"/>
  <unicode hex="00A3"/>
  <outline>
    <contour>
      <point x="859" y="1097"/>
      <point x="861" y="1165" type="curve"/>
      <point x="737" y="1228"/>
      <point x="684" y="1235"/>
      <point x="614" y="1235" type="curve" smooth="yes"/>
      <point x="297" y="1235"/>
      <point x="166" y="986"/>
      <point x="197" y="578" type="curve" smooth="yes"/>
      <point x="229" y="158"/>
      <point x="192" y="124"/>
      <point x="64" y="19" type="curve"/>
      <point x="87" y="-30" type="line"/>
      <point x="283" y="95"/>
      <point x="678" y="-99"/>
      <point x="857" y="0" type="curve"/>
      <point x="867" y="39"/>
      <point x="888" y="139"/>
      <point x="898" y="254" type="curve"/>
      <point x="855" y="272" type="line"/>
      <point x="798" y="116"/>
      <point x="752" y="104"/>
      <point x="629" y="101" type="curve" smooth="yes"/>
      <point x="481" y="97"/>
      <point x="440" y="116"/>
      <point x="258" y="101" type="curve"/>
      <point x="335" y="207"/>
      <point x="392" y="388"/>
      <point x="368" y="595" type="curve" smooth="yes"/>
      <point x="310" y="1091"/>
      <point x="432" y="1136"/>
      <point x="540" y="1136" type="curve" smooth="yes"/>
      <point x="674" y="1136"/>
      <point x="756" y="1065"/>
      <point x="775" y="900" type="curve"/>
      <point x="822" y="900" type="line"/>
      <point x="838" y="951"/>
    </contour>
    <contour>
      <point x="615" y="536" type="line"/>
      <point x="640" y="604" type="line"/>
      <point x="615" y="627" type="line"/>
      <point x="86" y="627" type="line"/>
      <point x="78" y="606"/>
      <point x="70" y="581"/>
      <point x="64" y="561" type="curve"/>
      <point x="86" y="536" type="line"/>
    </contour>
  </outline>
</glyph>
<glyph name="FemOrdIndicator" format="2">
  <advance width="524"/>
  <unicode hex="00AA"/>
  <outline>
    <contour>
      <point x="453" y="727"/>
      <point x="514" y="768" type="curve"/>
      <point x="508" y="793" type="line"/>
      <point x="471" y="778"/>
      <point x="451" y="778"/>
      <point x="444" y="782" type="curve" smooth="yes"/>
      <point x="436" y="791"/>
      <point x="430" y="805"/>
      <point x="430" y="842" type="curve" smooth="yes"/>
      <point x="430" y="1038" type="line" smooth="yes"/>
      <point x="430" y="1186"/>
      <point x="395" y="1235"/>
      <point x="299" y="1235" type="curve" smooth="yes"/>
      <point x="229" y="1235"/>
      <point x="78" y="1159"/>
      <point x="66" y="1075" type="curve"/>
      <point x="74" y="1055" type="line"/>
      <point x="92" y="1051"/>
      <point x="182" y="1071"/>
      <point x="178" y="1083" type="curve" smooth="yes"/>
      <point x="158" y="1139"/>
      <point x="213" y="1178"/>
      <point x="252" y="1178" type="curve" smooth="yes"/>
      <point x="324" y="1178"/>
      <point x="338" y="1133"/>
      <point x="338" y="1051" type="curve" smooth="yes"/>
      <point x="338" y="846" type="line" smooth="yes"/>
      <point x="338" y="752"/>
      <point x="367" y="711"/>
      <point x="391" y="711" type="curve" smooth="yes"/>
      <point x="412" y="711"/>
    </contour>
    <contour>
      <point x="295" y="981" type="curve"/>
      <point x="414" y="1012" type="line"/>
      <point x="410" y="1053" type="line"/>
      <point x="246" y="1010" type="line" smooth="yes"/>
      <point x="111" y="973"/>
      <point x="49" y="907"/>
      <point x="49" y="825" type="curve" smooth="yes"/>
      <point x="49" y="741"/>
      <point x="113" y="711"/>
      <point x="166" y="711" type="curve" smooth="yes"/>
      <point x="215" y="711"/>
      <point x="289" y="739"/>
      <point x="358" y="811" type="curve"/>
      <point x="352" y="852" type="line"/>
      <point x="297" y="803"/>
      <point x="244" y="780"/>
      <point x="199" y="780" type="curve" smooth="yes"/>
      <point x="180" y="780"/>
      <point x="147" y="793"/>
      <point x="147" y="848" type="curve" smooth="yes"/>
      <point x="147" y="905"/>
      <point x="178" y="948"/>
    </contour>
    <contour>
      <point x="51" y="586" type="line"/>
      <point x="485" y="586" type="line"/>
      <point x="485" y="659" type="line"/>
      <point x="51" y="659" type="line"/>
    </contour>
  </outline>
</glyph>
<glyph name="NotSgn" format="2">
  <advance width="961"/>
  <unicode hex="00AC"/>
  <outline>
    <contour>
      <point x="864" y="213"/>
      <point x="891" y="233" type="curve"/>
      <point x="891" y="596" type="line"/>
      <point x="862" y="618" type="line"/>
      <point x="862" y="618"/>
      <point x="879" y="618"/>
      <point x="92" y="618" type="curve"/>
      <point x="80" y="592"/>
      <point x="68" y="557"/>
      <point x="61" y="530" type="curve"/>
      <point x="86" y="506" type="line"/>
      <point x="780" y="506" type="line"/>
      <point x="780" y="207" type="line"/>
      <point x="805" y="182" type="line"/>
      <point x="838" y="193"/>
    </contour>
  </outline>
</glyph>
<glyph name="MiddleDot" format="2">
  <advance width="300"/>
  <unicode hex="00B7"/>
  <outline>
    <contour>
      <point x="250" y="646"/>
      <point x="250" y="721" type="curve"/>
      <point x="250" y="783"/>
      <point x="222" y="816"/>
      <point x="165" y="816" type="curve" smooth="yes"/>
      <point x="102" y="816"/>
      <point x="50" y="756"/>
      <point x="50" y="680" type="curve" smooth="yes"/>
      <point x="50" y="619"/>
      <point x="75" y="584"/>
      <point x="134" y="584" type="curve" smooth="yes"/>
      <point x="200" y="584"/>
    </contour>
  </outline>
</glyph>
<glyph name="VulgFracThreeQuarters" format="2">
  <advance width="1200"/>
  <unicode hex="00BE"/>
  <outline>
    <contour>
      <point x="316" y="3" type="curve"/>
      <point x="1074" y="1207" type="line"/>
      <point x="1049" y="1235" type="line"/>
      <point x="1020" y="1229"/>
      <point x="986" y="1214"/>
      <point x="960" y="1203" type="curve"/>
      <point x="198" y="0" type="line"/>
      <point x="223" y="-30" type="line"/>
      <point x="259" y="-21"/>
      <point x="285" y="-12"/>
    </contour>
    <contour>
      <point x="519" y="713"/>
      <point x="519" y="821" type="curve" smooth="yes"/>
      <point x="519" y="898"/>
      <point x="454" y="964"/>
      <point x="369" y="973" type="curve"/>
      <point x="442" y="995"/>
      <point x="486" y="1049"/>
      <point x="486" y="1097" type="curve" smooth="yes"/>
      <point x="486" y="1162"/>
      <point x="435" y="1230"/>
      <point x="320" y="1230" type="curve" smooth="yes"/>
      <point x="203" y="1230"/>
      <point x="100" y="1154"/>
      <point x="100" y="1101" type="curve"/>
      <point x="115" y="1085" type="line"/>
      <point x="147" y="1088"/>
      <point x="184" y="1093"/>
      <point x="209" y="1105" type="curve"/>
      <point x="200" y="1148"/>
      <point x="232" y="1177"/>
      <point x="288" y="1177" type="curve" smooth="yes"/>
      <point x="356" y="1177"/>
      <point x="382" y="1133"/>
      <point x="382" y="1089" type="curve" smooth="yes"/>
      <point x="382" y="1049"/>
      <point x="366" y="998"/>
      <point x="234" y="966" type="curve"/>
      <point x="241" y="929" type="line"/>
      <point x="264" y="933"/>
      <point x="258" y="933"/>
      <point x="279" y="933" type="curve" smooth="yes"/>
      <point x="342" y="933"/>
      <point x="414" y="901"/>
      <point x="414" y="805" type="curve" smooth="yes"/>
      <point x="414" y="723"/>
      <point x="357" y="680"/>
      <point x="270" y="680" type="curve" smooth="yes"/>
      <point x="214" y="680"/>
      <point x="166" y="692"/>
      <point x="98" y="735" type="curve"/>
      <point x="80" y="702" type="line"/>
      <point x="147" y="647"/>
      <point x="218" y="623"/>
      <point x="285" y="623" type="curve" smooth="yes"/>
      <point x="430" y="623"/>
    </contour>
    <contour>
      <point x="1104" y="190"/>
      <point x="1120" y="210" type="curve"/>
      <point x="1105" y="226" type="line"/>
      <point x="1044" y="226" type="line"/>
      <point x="1044" y="581" type="line"/>
      <point x="1024" y="598" type="line"/>
      <point x="1001" y="588"/>
      <point x="964" y="575"/>
      <point x="933" y="563" type="curve"/>
      <point x="653" y="180" type="line"/>
      <point x="672" y="164" type="line"/>
      <point x="950" y="164" type="line"/>
      <point x="950" y="63" type="line" smooth="yes"/>
      <point x="950" y="52"/>
      <point x="937" y="42"/>
      <point x="840" y="29" type="curve"/>
      <point x="840" y="0" type="line"/>
      <point x="1114" y="0" type="line"/>
      <point x="1114" y="29" type="line"/>
      <point x="1052" y="41"/>
      <point x="1044" y="48"/>
      <point x="1044" y="58" type="curve" smooth="yes"/>
      <point x="1044" y="164" type="line"/>
      <point x="1075" y="164" type="line"/>
      <point x="1092" y="175"/>
    </contour>
    <contour>
      <point x="950" y="491" type="line"/>
      <point x="950" y="226" type="line"/>
      <point x="749" y="226" type="line"/>
    </contour>
  </outline>
</glyph>
<glyph name="MultSgn" format="2">
  <advance width="840"/>
  <unicode hex="00D7"/>
  <outline>
    <contour>
      <point x="719" y="269"/>
      <point x="746" y="280" type="curve"/>
      <point x="746" y="314" type="line"/>
      <point x="187" y="873" type="line"/>
      <point x="158" y="866"/>
      <point x="120" y="854"/>
      <point x="94" y="842" type="curve"/>
      <point x="95" y="808" type="line"/>
      <point x="654" y="249" type="line"/>
      <point x="678" y="255"/>
    </contour>
    <contour>
      <point x="93" y="314" type="line"/>
      <point x="93" y="280" type="line"/>
      <point x="120" y="269"/>
      <point x="161" y="255"/>
      <point x="186" y="249" type="curve"/>
      <point x="745" y="808" type="line"/>
      <point x="745" y="842" type="line"/>
      <point x="719" y="854"/>
      <point x="681" y="866"/>
      <point x="652" y="873" type="curve"/>
    </contour>
  </outline>
</glyph>
<glyph name="DivSgn" format="2">
  <advance width="840"/>
  <unicode hex="00F7"/>
  <outline>
    <contour>
      <point x="772" y="566"/>
      <point x="778" y="593" type="curve"/>
      <point x="754" y="617" type="line"/>
      <point x="92" y="617" type="line"/>
      <point x="80" y="591"/>
      <point x="68" y="558"/>
      <point x="61" y="531" type="curve"/>
      <point x="86" y="507" type="line"/>
      <point x="748" y="507" type="line"/>
      <point x="758" y="529"/>
    </contour>
    <contour>
      <point x="499" y="761"/>
      <point x="499" y="820" type="curve"/>
      <point x="499" y="870"/>
      <point x="477" y="896"/>
      <point x="432" y="896" type="curve" smooth="yes"/>
      <point x="381" y="896"/>
      <point x="340" y="848"/>
      <point x="340" y="788" type="curve" smooth="yes"/>
      <point x="340" y="739"/>
      <point x="360" y="711"/>
      <point x="407" y="711" type="curve" smooth="yes"/>
      <point x="459" y="711"/>
    </contour>
    <contour>
      <point x="499" y="281"/>
      <point x="499" y="340" type="curve"/>
      <point x="499" y="390"/>
      <point x="477" y="416"/>
      <point x="432" y="416" type="curve" smooth="yes"/>
      <point x="381" y="416"/>
      <point x="340" y="368"/>
      <point x="340" y="308" type="curve" smooth="yes"/>
      <point x="340" y="259"/>
      <point x="360" y="231"/>
      <point x="407" y="231" type="curve" smooth="yes"/>
      <point x="459" y="231"/>
    </contour>
  </outline>
</glyph>
<glyph name="LtnSmThorn" format="2">
  <advance width="1085"/>
  <unicode hex="00FE"/>
  <anchor x="679" y="-100" name="L"/>
  <anchor x="530" y="1690" name="U"/>
  <outline>
    <contour>
      <point x="1005" y="260"/>
      <point x="1005" y="492" type="curve"/>
      <point x="1005" y="784"/>
      <point x="872" y="960"/>
      <point x="690" y="960" type="curve" smooth="yes"/>
      <point x="614" y="960"/>
      <point x="482" y="895"/>
      <point x="345" y="733" type="curve"/>
      <point x="345" y="1516" type="line"/>
      <point x="308" y="1550" type="line"/>
      <point x="228" y="1507"/>
      <point x="150" y="1489"/>
      <point x="55" y="1470" type="curve"/>
      <point x="55" y="1430" type="line"/>
      <point x="168" y="1417"/>
      <point x="195" y="1417"/>
      <point x="195" y="1296" type="curve" smooth="yes"/>
      <point x="195" y="-375" type="line" smooth="yes"/>
      <point x="195" y="-398"/>
      <point x="143" y="-416"/>
      <point x="55" y="-437" type="curve"/>
      <point x="55" y="-480" type="line"/>
      <point x="515" y="-480" type="line"/>
      <point x="515" y="-437" type="line"/>
      <point x="390" y="-418"/>
      <point x="345" y="-396"/>
      <point x="345" y="-375" type="curve" smooth="yes"/>
      <point x="345" y="74" type="line"/>
      <point x="439" y="-2"/>
      <point x="530" y="-30"/>
      <point x="573" y="-30" type="curve" smooth="yes"/>
      <point x="813" y="-30"/>
    </contour>
    <contour>
      <point x="870" y="672"/>
      <point x="870" y="408" type="curve"/>
      <point x="870" y="248"/>
      <point x="782" y="90"/>
      <point x="631" y="90" type="curve" smooth="yes"/>
      <point x="539" y="90"/>
      <point x="447" y="133"/>
      <point x="345" y="213" type="curve"/>
      <point x="345" y="610" type="line"/>
      <point x="462" y="782"/>
      <point x="575" y="835"/>
      <point x="623" y="835" type="curve" smooth="yes"/>
      <point x="752" y="835"/>
    </contour>
  </outline>
</glyph>
<glyph name="LtnSmDCaron" format="2">
  <advance width="1220"/>
  <unicode hex="010F"/>
  <anchor x="820" y="0" name="H"/>
  <anchor x="525" y="-100" name="L"/>
  <anchor x="495" y="1050" name="U"/>
  <outline>
    <component base="LtnSmD"/>
    <contour>
      <point x="1066" y="1068" type="curve"/>
      <point x="1130" y="1231"/>
      <point x="1184" y="1383"/>
      <point x="1210" y="1514" type="curve"/>
      <point x="1174" y="1550" type="line"/>
      <point x="1146" y="1544"/>
      <point x="1065" y="1513"/>
      <point x="1035" y="1496" type="curve"/>
      <point x="1045" y="1396"/>
      <point x="1028" y="1248"/>
      <point x="990" y="1047" type="curve"/>
      <point x="1021" y="1049"/>
      <point x="1046" y="1060"/>
    </contour>
  </outline>
</glyph>
<glyph name="LtnCapDStrk" format="2">
  <advance width="1214"/>
  <unicode hex="0110"/>
  <anchor x="575" y="-100" name="L"/>
  <anchor x="575" y="1370" name="U"/>
  <outline>
    <component base="LtnCapD"/>
    <contour>
      <point x="614" y="615" type="line"/>
      <point x="639" y="682" type="line"/>
      <point x="614" y="705" type="line"/>
      <point x="49" y="705" type="line"/>
      <point x="41" y="684"/>
      <point x="33" y="660"/>
      <point x="27" y="640" type="curve"/>
      <point x="49" y="615" type="line"/>
    </contour>
  </outline>
</glyph>
<glyph name="LtnSmDBarredStem" format="2">
  <advance width="1065"/>
  <unicode hex="0111"/>
  <anchor x="524" y="-100" name="L"/>
  <anchor x="571" y="1690" name="U"/>
  <outline>
    <contour>
      <point x="1040" y="1140" type="line"/>
      <point x="1063" y="1205" type="line"/>
      <point x="1040" y="1230" type="line"/>
      <point x="465" y="1230" type="line"/>
      <point x="455" y="1209"/>
      <point x="449" y="1183"/>
      <point x="442" y="1162" type="curve"/>
      <point x="465" y="1140" type="line"/>
    </contour>
    <contour>
      <point x="928" y="2"/>
      <point x="1051" y="84" type="curve"/>
      <point x="1038" y="127" type="line"/>
      <point x="958" y="96"/>
      <point x="930" y="92"/>
      <point x="918" y="106" type="curve" smooth="yes"/>
      <point x="903" y="125"/>
      <point x="895" y="160"/>
      <point x="895" y="254" type="curve" smooth="yes"/>
      <point x="895" y="1520" type="line"/>
      <point x="864" y="1550" type="line"/>
      <point x="795" y="1528"/>
      <point x="709" y="1499"/>
      <point x="600" y="1485" type="curve"/>
      <point x="600" y="1446" type="line"/>
      <point x="741" y="1436"/>
      <point x="745" y="1421"/>
      <point x="745" y="1274" type="curve" smooth="yes"/>
      <point x="745" y="272" type="line" smooth="yes"/>
      <point x="745" y="49"/>
      <point x="776" y="-31"/>
      <point x="829" y="-31" type="curve" smooth="yes"/>
      <point x="866" y="-31"/>
    </contour>
    <contour>
      <point x="684" y="84"/>
      <point x="819" y="260" type="curve"/>
      <point x="813" y="270"/>
      <point x="799" y="289"/>
      <point x="782" y="297" type="curve"/>
      <point x="688" y="207"/>
      <point x="592" y="100"/>
      <point x="487" y="100" type="curve" smooth="yes"/>
      <point x="377" y="100"/>
      <point x="230" y="248"/>
      <point x="230" y="475" type="curve" smooth="yes"/>
      <point x="230" y="725"/>
      <point x="350" y="850"/>
      <point x="520" y="850" type="curve" smooth="yes"/>
      <point x="621" y="850"/>
      <point x="711" y="801"/>
      <point x="752" y="717" type="curve"/>
      <point x="795" y="743"/>
      <point x="811" y="760"/>
      <point x="811" y="840" type="curve"/>
      <point x="707" y="944"/>
      <point x="631" y="960"/>
      <point x="551" y="960" type="curve" smooth="yes"/>
      <point x="272" y="960"/>
      <point x="80" y="674"/>
      <point x="80" y="444" type="curve" smooth="yes"/>
      <point x="80" y="147"/>
      <point x="268" y="-30"/>
      <point x="416" y="-30" type="curve" smooth="yes"/>
      <point x="584" y="-30"/>
    </contour>
  </outline>
</glyph>
<glyph name="LtnSmEng" format="2">
  <advance width="1120"/>
  <unicode hex="014B"/>
  <anchor x="576" y="-600" name="L"/>
  <anchor x="576" y="1050" name="U"/>
  <outline>
    <contour>
      <point x="960" y="-225"/>
      <point x="960" y="88" type="curve"/>
      <point x="960" y="741" type="line" smooth="yes"/>
      <point x="960" y="891"/>
      <point x="854" y="960"/>
      <point x="739" y="960" type="curve" smooth="yes"/>
      <point x="635" y="960"/>
      <point x="457" y="854"/>
      <point x="340" y="676" type="curve"/>
      <point x="330" y="926" type="line"/>
      <point x="295" y="961" type="line"/>
      <point x="221" y="924"/>
      <point x="145" y="895"/>
      <point x="55" y="881" type="curve"/>
      <point x="55" y="840" type="line"/>
      <point x="190" y="825"/>
      <point x="195" y="815"/>
      <point x="195" y="711" type="curve" smooth="yes"/>
      <point x="195" y="104" type="line" smooth="yes"/>
      <point x="195" y="82"/>
      <point x="143" y="66"/>
      <point x="55" y="43" type="curve"/>
      <point x="55" y="0" type="line"/>
      <point x="485" y="0" type="line"/>
      <point x="485" y="43" type="line"/>
      <point x="399" y="61"/>
      <point x="344" y="84"/>
      <point x="344" y="104" type="curve" smooth="yes"/>
      <point x="344" y="549" type="line"/>
      <point x="473" y="756"/>
      <point x="600" y="829"/>
      <point x="682" y="829" type="curve" smooth="yes"/>
      <point x="776" y="829"/>
      <point x="810" y="795"/>
      <point x="810" y="633" type="curve" smooth="yes"/>
      <point x="810" y="35" type="line" smooth="yes"/>
      <point x="810" y="-295"/>
      <point x="688" y="-380"/>
      <point x="613" y="-380" type="curve" smooth="yes"/>
      <point x="572" y="-380"/>
      <point x="480" y="-361"/>
      <point x="403" y="-290" type="curve"/>
      <point x="365" y="-309"/>
      <point x="274" y="-378"/>
      <point x="274" y="-401" type="curve" smooth="yes"/>
      <point x="274" y="-440"/>
      <point x="412" y="-500"/>
      <point x="502" y="-500" type="curve" smooth="yes"/>
      <point x="553" y="-500"/>
      <point x="674" y="-467"/>
      <point x="745" y="-407" type="curve" smooth="yes"/>
      <point x="852" y="-321"/>
    </contour>
  </outline>
</glyph>
<glyph name="LtnSmLigOe" format="2">
  <advance width="1624"/>
  <unicode hex="0153"/>
  <anchor x="812" y="0" name="H"/>
  <anchor x="812" y="-100" name="L"/>
  <anchor x="1230" y="0" name="O"/>
  <anchor x="1668" y="900" name="R"/>
  <anchor x="812" y="1050" name="U"/>
  <outline>
    <contour>
      <point x="1518" y="530"/>
      <point x="1544" y="557" type="curve"/>
      <point x="1544" y="727"/>
      <point x="1460" y="960"/>
      <point x="1212" y="960" type="curve" smooth="yes"/>
      <point x="1151" y="960"/>
      <point x="1055" y="921"/>
      <point x="995" y="880" type="curve" smooth="yes"/>
      <point x="856" y="785"/>
      <point x="776" y="614"/>
      <point x="776" y="434" type="curve" smooth="yes"/>
      <point x="776" y="152"/>
      <point x="954" y="-30"/>
      <point x="1153" y="-30" type="curve" smooth="yes"/>
      <point x="1278" y="-30"/>
      <point x="1360" y="0"/>
      <point x="1536" y="195" type="curve"/>
      <point x="1530" y="205"/>
      <point x="1516" y="227"/>
      <point x="1499" y="236" type="curve"/>
      <point x="1350" y="113"/>
      <point x="1288" y="102"/>
      <point x="1214" y="102" type="curve" smooth="yes"/>
      <point x="1040" y="102"/>
      <point x="930" y="287"/>
      <point x="930" y="497" type="curve" smooth="yes"/>
      <point x="930" y="702"/>
      <point x="1034" y="856"/>
      <point x="1184" y="856" type="curve" smooth="yes"/>
      <point x="1346" y="856"/>
      <point x="1378" y="688"/>
      <point x="1378" y="616" type="curve" smooth="yes"/>
      <point x="1378" y="588"/>
      <point x="1368" y="580"/>
      <point x="1339" y="580" type="curve" smooth="yes"/>
      <point x="881" y="580" type="line"/>
      <point x="879" y="489" type="line"/>
      <point x="1432" y="489" type="line"/>
      <point x="1475" y="506"/>
    </contour>
    <contour>
      <point x="930" y="227"/>
      <point x="930" y="495" type="curve"/>
      <point x="930" y="758"/>
      <point x="764" y="960"/>
      <point x="535" y="960" type="curve" smooth="yes"/>
      <point x="293" y="960"/>
      <point x="80" y="709"/>
      <point x="80" y="444" type="curve" smooth="yes"/>
      <point x="80" y="172"/>
      <point x="248" y="-30"/>
      <point x="475" y="-30" type="curve" smooth="yes"/>
      <point x="711" y="-30"/>
    </contour>
    <contour>
      <point x="776" y="668"/>
      <point x="776" y="455" type="curve"/>
      <point x="776" y="242"/>
      <point x="678" y="80"/>
      <point x="535" y="80" type="curve" smooth="yes"/>
      <point x="391" y="80"/>
      <point x="233" y="262"/>
      <point x="233" y="473" type="curve" smooth="yes"/>
      <point x="233" y="686"/>
      <point x="332" y="850"/>
      <point x="475" y="850" type="curve" smooth="yes"/>
      <point x="627" y="850"/>
    </contour>
  </outline>
</glyph>
<glyph name="LtnCapTnSix" format="2">
  <advance width="1126"/>
  <unicode hex="0184"/>
  <anchor x="533" y="-100" name="L"/>
  <anchor x="533" y="1370" name="U"/>
  <outline>
    <contour>
      <point x="559" y="-14" type="curve" smooth="yes"/>
      <point x="829" y="-14"/>
      <point x="1016" y="129"/>
      <point x="1016" y="356" type="curve" smooth="yes"/>
      <point x="1016" y="581"/>
      <point x="851" y="740"/>
      <point x="559" y="740" type="curve" smooth="yes"/>
      <point x="458" y="740"/>
      <point x="361" y="725"/>
      <point x="291" y="705" type="curve"/>
      <point x="301" y="627" type="line"/>
      <point x="363" y="639"/>
      <point x="432" y="650"/>
      <point x="520" y="650" type="curve" smooth="yes"/>
      <point x="752" y="650"/>
      <point x="852" y="469"/>
      <point x="852" y="322" type="curve" smooth="yes"/>
      <point x="852" y="172"/>
      <point x="729" y="70"/>
      <point x="537" y="70" type="curve" smooth="yes"/>
      <point x="477" y="70"/>
      <point x="386" y="76"/>
      <point x="345" y="98" type="curve"/>
      <point x="123" y="0" type="line"/>
      <point x="260" y="-6"/>
      <point x="474" y="-14"/>
    </contour>
    <contour>
      <point x="50" y="0" type="line"/>
      <point x="500" y="0" type="line"/>
      <point x="500" y="43" type="line"/>
      <point x="404" y="61"/>
      <point x="355" y="88"/>
      <point x="355" y="104" type="curve" smooth="yes"/>
      <point x="355" y="485" type="line"/>
      <point x="195" y="485" type="line"/>
      <point x="195" y="104" type="line" smooth="yes"/>
      <point x="195" y="86"/>
      <point x="140" y="61"/>
      <point x="50" y="43" type="curve"/>
    </contour>
    <contour>
      <point x="195" y="354" type="line"/>
      <point x="355" y="354" type="line"/>
      <point x="355" y="1256" type="line"/>
      <point x="346" y="1269"/>
      <point x="331" y="1283"/>
      <point x="319" y="1290" type="curve"/>
      <point x="286" y="1280"/>
      <point x="224" y="1242"/>
      <point x="194" y="1220" type="curve"/>
      <point x="-48" y="846" type="line"/>
      <point x="-38" y="834"/>
      <point x="-33" y="828"/>
      <point x="-24" y="819" type="curve"/>
      <point x="10" y="833"/>
      <point x="74" y="862"/>
      <point x="106" y="894" type="curve"/>
      <point x="195" y="1030" type="line"/>
    </contour>
  </outline>
</glyph>
<glyph name="LtnCapDTopbar" format="2">
  <advance width="1126"/>
  <unicode hex="018B"/>
  <anchor x="593" y="-100" name="L"/>
  <anchor x="593" y="1370" name="U"/>
  <outline>
    <contour>
      <point x="110" y="551"/>
      <point x="110" y="346" type="curve" smooth="yes"/>
      <point x="110" y="99"/>
      <point x="297" y="-14"/>
      <point x="567" y="-14" type="curve"/>
      <point x="684" y="-14"/>
      <point x="1003" y="0"/>
      <point x="1003" y="0" type="curve" smooth="yes"/>
      <point x="781" y="98" type="line"/>
      <point x="740" y="76"/>
      <point x="649" y="70"/>
      <point x="589" y="70" type="curve"/>
      <point x="397" y="70"/>
      <point x="274" y="202"/>
      <point x="274" y="372" type="curve" smooth="yes"/>
      <point x="274" y="519"/>
      <point x="374" y="650"/>
      <point x="606" y="650" type="curve" smooth="yes"/>
      <point x="694" y="650"/>
      <point x="761" y="637"/>
      <point x="825" y="627" type="curve" smooth="yes"/>
      <point x="835" y="705" type="line"/>
      <point x="765" y="725"/>
      <point x="668" y="740"/>
      <point x="567" y="740" type="curve"/>
      <point x="275" y="740"/>
    </contour>
    <contour>
      <point x="575" y="0" type="line"/>
      <point x="1077" y="0" type="line"/>
      <point x="1077" y="43" type="line"/>
      <point x="987" y="61"/>
      <point x="931" y="86"/>
      <point x="931" y="104" type="curve"/>
      <point x="931" y="1155" type="line" smooth="yes"/>
      <point x="931" y="1171"/>
      <point x="981" y="1198"/>
      <point x="1077" y="1217" type="curve" smooth="yes"/>
      <point x="1077" y="1260" type="line"/>
      <point x="794" y="1260" type="line"/>
      <point x="626" y="1260" type="line"/>
      <point x="626" y="1217" type="line"/>
      <point x="716" y="1198"/>
      <point x="771" y="1195"/>
      <point x="771" y="1177" type="curve"/>
      <point x="771" y="104" type="line" smooth="yes"/>
      <point x="771" y="86"/>
      <point x="735" y="70"/>
      <point x="575" y="43" type="curve" smooth="yes"/>
    </contour>
    <contour>
      <point x="364" y="1170" type="curve" smooth="yes"/>
      <point x="880" y="1170" type="line"/>
      <point x="852" y="1260" type="line"/>
      <point x="225" y="1260" type="line"/>
      <point x="211" y="1190"/>
      <point x="191" y="1022"/>
      <point x="192" y="944" type="curve"/>
      <point x="235" y="925" type="line"/>
      <point x="295" y="1081"/>
      <point x="323" y="1170"/>
    </contour>
  </outline>
</glyph>
<glyph name="LtnCapIota" format="2">
  <advance width="713"/>
  <unicode hex="0196"/>
  <anchor x="361" y="-100" name="L"/>
  <anchor x="361" y="1370" name="U"/>
  <outline>
    <contour>
      <point x="493" y="6"/>
      <point x="673" y="178" type="curve"/>
      <point x="655" y="221" type="line"/>
      <point x="540" y="139"/>
      <point x="485" y="128"/>
      <point x="467" y="128" type="curve" smooth="yes"/>
      <point x="408" y="128"/>
      <point x="395" y="174"/>
      <point x="395" y="415" type="curve" smooth="yes"/>
      <point x="395" y="1290" type="line"/>
      <point x="358" y="1290" type="line"/>
      <point x="271" y="1246"/>
      <point x="162" y="1225"/>
      <point x="50" y="1203" type="curve"/>
      <point x="50" y="1160" type="line"/>
      <point x="242" y="1143"/>
      <point x="235" y="1118"/>
      <point x="235" y="935" type="curve" smooth="yes"/>
      <point x="235" y="281" type="line" smooth="yes"/>
      <point x="235" y="68"/>
      <point x="276" y="-30"/>
      <point x="360" y="-30" type="curve" smooth="yes"/>
      <point x="429" y="-30"/>
    </contour>
  </outline>
</glyph>
<glyph name="LtnCapOi" format="2">
  <advance width="1854"/>
  <unicode hex="01A2"/>
  <anchor x="776" y="-100" name="L"/>
  <anchor x="927" y="1370" name="U"/>
  <outline>
    <contour>
      <point x="1335" y="-350" type="line"/>
      <point x="1785" y="-350" type="line"/>
      <point x="1785" y="-307" type="line"/>
      <point x="1689" y="-289"/>
      <point x="1640" y="-262"/>
      <point x="1640" y="-246" type="curve" smooth="yes"/>
      <point x="1640" y="981" type="line" smooth="yes"/>
      <point x="1640" y="1231"/>
      <point x="1491" y="1290"/>
      <point x="1376" y="1290" type="curve" smooth="yes"/>
      <point x="1260" y="1290"/>
      <point x="1136" y="1237"/>
      <point x="1004" y="1098" type="curve"/>
      <point x="919" y="1214"/>
      <point x="794" y="1290"/>
      <point x="633" y="1290" type="curve" smooth="yes"/>
      <point x="319" y="1290"/>
      <point x="70" y="975"/>
      <point x="70" y="612" type="curve" smooth="yes"/>
      <point x="70" y="276"/>
      <point x="254" y="-30"/>
      <point x="575" y="-30" type="curve" smooth="yes"/>
      <point x="879" y="-30"/>
      <point x="1138" y="285"/>
      <point x="1138" y="647" type="curve" smooth="yes"/>
      <point x="1138" y="775"/>
      <point x="1110" y="902"/>
      <point x="1057" y="1009" type="curve"/>
      <point x="1168" y="1132"/>
      <point x="1240" y="1150"/>
      <point x="1309" y="1150" type="curve" smooth="yes"/>
      <point x="1409" y="1150"/>
      <point x="1480" y="1090"/>
      <point x="1480" y="872" type="curve" smooth="yes"/>
      <point x="1480" y="-246" type="line" smooth="yes"/>
      <point x="1480" y="-264"/>
      <point x="1425" y="-289"/>
      <point x="1335" y="-307" type="curve"/>
    </contour>
    <contour>
      <point x="983" y="905"/>
      <point x="983" y="629" type="curve" smooth="yes"/>
      <point x="983" y="276"/>
      <point x="825" y="90"/>
      <point x="604" y="90" type="curve" smooth="yes"/>
      <point x="399" y="90"/>
      <point x="225" y="342"/>
      <point x="225" y="641" type="curve" smooth="yes"/>
      <point x="225" y="967"/>
      <point x="367" y="1175"/>
      <point x="604" y="1175" type="curve" smooth="yes"/>
      <point x="831" y="1175"/>
    </contour>
  </outline>
</glyph>
<glyph name="LtnCapPHook" format="2">
  <advance width="1301"/>
  <unicode hex="01A4"/>
  <anchor x="621" y="-100" name="L"/>
  <anchor x="621" y="1370" name="U"/>
  <outline>
    <contour>
      <point x="742" y="535"/>
      <point x="803" y="535" type="curve" smooth="yes"/>
      <point x="959" y="535"/>
      <point x="1212" y="659"/>
      <point x="1212" y="936" type="curve" smooth="yes"/>
      <point x="1212" y="1112"/>
      <point x="1114" y="1216"/>
      <point x="952" y="1261" type="curve" smooth="yes"/>
      <point x="886" y="1279"/>
      <point x="816" y="1290"/>
      <point x="629" y="1290" type="curve" smooth="yes"/>
      <point x="223" y="1290"/>
      <point x="30" y="1177"/>
      <point x="30" y="1003" type="curve"/>
      <point x="30" y="930"/>
      <point x="66" y="877"/>
      <point x="115" y="856" type="curve"/>
      <point x="170" y="867"/>
      <point x="256" y="914"/>
      <point x="263" y="930" type="curve"/>
      <point x="222" y="949"/>
      <point x="194" y="988"/>
      <point x="194" y="1036" type="curve" smooth="yes"/>
      <point x="194" y="1145"/>
      <point x="315" y="1206"/>
      <point x="573" y="1206" type="curve" smooth="yes"/>
      <point x="757" y="1206"/>
      <point x="798" y="1198"/>
      <point x="876" y="1172" type="curve" smooth="yes"/>
      <point x="987" y="1135"/>
      <point x="1057" y="1035"/>
      <point x="1057" y="895" type="curve" smooth="yes"/>
      <point x="1057" y="707"/>
      <point x="896" y="610"/>
      <point x="773" y="610" type="curve" smooth="yes"/>
      <point x="726" y="610"/>
      <point x="674" y="615"/>
      <point x="619" y="640" type="curve"/>
      <point x="642" y="565" type="line"/>
      <point x="687" y="545"/>
    </contour>
    <contour>
      <point x="280" y="0" type="line"/>
      <point x="760" y="0" type="line"/>
      <point x="760" y="43" type="line"/>
      <point x="621" y="66"/>
      <point x="585" y="88"/>
      <point x="585" y="104" type="curve" smooth="yes"/>
      <point x="585" y="1240" type="line"/>
      <point x="425" y="1240" type="line"/>
      <point x="425" y="104" type="line" smooth="yes"/>
      <point x="425" y="86"/>
      <point x="370" y="61"/>
      <point x="280" y="43" type="curve"/>
    </contour>
  </outline>
</glyph>
<glyph name="LtnCapUpsilon" format="2">
  <advance width="1302"/>
  <unicode hex="01B1"/>
  <anchor x="641" y="-100" name="L"/>
  <anchor x="641" y="1370" name="U"/>
  <outline>
    <contour>
      <point x="1212" y="1217"/>
      <point x="1212" y="1217" type="curve"/>
      <point x="1212" y="1260" type="line"/>
      <point x="780" y="1260" type="line"/>
      <point x="753" y="1201" type="line"/>
      <point x="923" y="1099"/>
      <point x="1014" y="865"/>
      <point x="1014" y="595" type="curve" smooth="yes"/>
      <point x="1014" y="313"/>
      <point x="871" y="90"/>
      <point x="651" y="90" type="curve" smooth="yes"/>
      <point x="434" y="90"/>
      <point x="255" y="326"/>
      <point x="255" y="615" type="curve" smooth="yes"/>
      <point x="255" y="883"/>
      <point x="331" y="1075"/>
      <point x="530" y="1201" type="curve"/>
      <point x="506" y="1260" type="line"/>
      <point x="70" y="1260" type="line"/>
      <point x="70" y="1217" type="line"/>
      <point x="70" y="1217"/>
      <point x="338" y="1174"/>
      <point x="283" y="1111" type="curve" smooth="yes"/>
      <point x="178" y="991"/>
      <point x="100" y="798"/>
      <point x="100" y="576" type="curve" smooth="yes"/>
      <point x="100" y="234"/>
      <point x="316" y="-30"/>
      <point x="625" y="-30" type="curve" smooth="yes"/>
      <point x="954" y="-30"/>
      <point x="1169" y="331"/>
      <point x="1169" y="623" type="curve" smooth="yes"/>
      <point x="1169" y="835"/>
      <point x="1095" y="1002"/>
      <point x="997" y="1111" type="curve" smooth="yes"/>
      <point x="942" y="1172"/>
    </contour>
  </outline>
</glyph>
<glyph name="LtnCapYHook.RtHook" format="2">
  <advance width="1387"/>
  <unicode hex="01B3"/>
  <anchor x="604" y="-100" name="L"/>
  <anchor x="636" y="1370" name="U"/>
  <outline>
    <contour>
      <point x="360" y="0" type="line"/>
      <point x="850" y="0" type="line"/>
      <point x="850" y="43" type="line"/>
      <point x="725" y="68"/>
      <point x="684" y="98"/>
      <point x="684" y="115" type="curve" smooth="yes"/>
      <point x="684" y="541" type="line"/>
      <point x="989" y="1095" type="line" smooth="yes"/>
      <point x="1020" y="1151"/>
      <point x="1062" y="1201"/>
      <point x="1113" y="1201" type="curve" smooth="yes"/>
      <point x="1179" y="1201"/>
      <point x="1212" y="1143"/>
      <point x="1212" y="1077" type="curve" smooth="yes"/>
      <point x="1212" y="1029"/>
      <point x="1197" y="1001"/>
      <point x="1178" y="965" type="curve"/>
      <point x="1196" y="936" type="line"/>
      <point x="1236" y="947"/>
      <point x="1361" y="989"/>
      <point x="1375" y="1023" type="curve" smooth="yes"/>
      <point x="1381" y="1039"/>
      <point x="1387" y="1075"/>
      <point x="1387" y="1101" type="curve" smooth="yes"/>
      <point x="1387" y="1218"/>
      <point x="1291" y="1320"/>
      <point x="1166" y="1320" type="curve" smooth="yes"/>
      <point x="1007" y="1320"/>
      <point x="932" y="1222"/>
      <point x="862" y="1100" type="curve" smooth="yes"/>
      <point x="623" y="680" type="line"/>
      <point x="530" y="872"/>
      <point x="397" y="1102"/>
      <point x="297" y="1231" type="curve" smooth="yes"/>
      <point x="276" y="1257"/>
      <point x="248" y="1270"/>
      <point x="219" y="1270" type="curve" smooth="yes"/>
      <point x="164" y="1270"/>
      <point x="78" y="1260"/>
      <point x="0" y="1249" type="curve"/>
      <point x="4" y="1206" type="line"/>
      <point x="115" y="1206"/>
      <point x="143" y="1180"/>
      <point x="168" y="1151" type="curve"/>
      <point x="261" y="1023"/>
      <point x="426" y="753"/>
      <point x="524" y="537" type="curve"/>
      <point x="524" y="115" type="line" smooth="yes"/>
      <point x="524" y="96"/>
      <point x="481" y="68"/>
      <point x="360" y="43" type="curve"/>
    </contour>
  </outline>
</glyph>
<glyph name="LtnSmYHook.RtHook" format="2">
  <advance width="1141"/>
  <unicode hex="01B4"/>
  <anchor x="770" y="-100" name="L"/>
  <anchor x="552" y="1050" name="U"/>
  <outline>
    <contour>
      <point x="406" y="887" type="curve"/>
      <point x="406" y="930" type="line"/>
      <point x="20" y="930" type="line"/>
      <point x="20" y="887" type="line"/>
      <point x="86" y="872"/>
      <point x="119" y="856"/>
      <point x="131" y="819" type="curve"/>
      <point x="460" y="-29" type="line"/>
      <point x="437" y="-91" type="line" smooth="yes"/>
      <point x="377" y="-250"/>
      <point x="276" y="-345"/>
      <point x="194" y="-345" type="curve" smooth="yes"/>
      <point x="165" y="-345"/>
      <point x="122" y="-346"/>
      <point x="70" y="-313" type="curve"/>
      <point x="18" y="-346"/>
      <point x="-47" y="-429"/>
      <point x="-47" y="-448" type="curve" smooth="yes"/>
      <point x="-47" y="-472"/>
      <point x="34" y="-500"/>
      <point x="115" y="-500" type="curve" smooth="yes"/>
      <point x="245" y="-500"/>
      <point x="424" y="-411"/>
      <point x="541" y="-93" type="curve"/>
      <point x="840" y="732" type="line" smooth="yes"/>
      <point x="899" y="891"/>
      <point x="971" y="993"/>
      <point x="1050" y="993" type="curve" smooth="yes"/>
      <point x="1085" y="993"/>
      <point x="1134" y="976"/>
      <point x="1164" y="943" type="curve"/>
      <point x="1216" y="976"/>
      <point x="1281" y="1059"/>
      <point x="1281" y="1078" type="curve" smooth="yes"/>
      <point x="1281" y="1090"/>
      <point x="1222" y="1150"/>
      <point x="1119" y="1150" type="curve" smooth="yes"/>
      <point x="989" y="1150"/>
      <point x="836" y="1056"/>
      <point x="730" y="734" type="curve" smooth="yes"/>
      <point x="539" y="182" type="line"/>
      <point x="293" y="819" type="line" smooth="yes"/>
      <point x="276" y="862"/>
      <point x="303" y="874"/>
    </contour>
  </outline>
</glyph>
<glyph name="LtnSmGStrk" format="2">
  <advance width="999"/>
  <unicode hex="01E5"/>
  <anchor x="500" y="-600" name="L"/>
  <anchor x="500" y="1050" name="U"/>
  <outline>
    <contour>
      <point x="970" y="-339"/>
      <point x="970" y="-120" type="curve" smooth="yes"/>
      <point x="970" y="-26"/>
      <point x="893" y="78"/>
      <point x="602" y="110" type="curve" smooth="yes"/>
      <point x="393" y="135"/>
      <point x="346" y="164"/>
      <point x="346" y="196" type="curve" smooth="yes"/>
      <point x="346" y="207"/>
      <point x="384" y="270"/>
      <point x="504" y="350" type="curve"/>
      <point x="362" y="333" type="line"/>
      <point x="207" y="233"/>
      <point x="182" y="177"/>
      <point x="182" y="153" type="curve" smooth="yes"/>
      <point x="182" y="89"/>
      <point x="256" y="26"/>
      <point x="518" y="-4" type="curve" smooth="yes"/>
      <point x="760" y="-31"/>
      <point x="820" y="-83"/>
      <point x="820" y="-157" type="curve" smooth="yes"/>
      <point x="820" y="-295"/>
      <point x="702" y="-396"/>
      <point x="522" y="-396" type="curve" smooth="yes"/>
      <point x="340" y="-396"/>
      <point x="180" y="-302"/>
      <point x="180" y="-190" type="curve" smooth="yes"/>
      <point x="180" y="-145"/>
      <point x="199" y="-82"/>
      <point x="414" y="30" type="curve"/>
      <point x="408" y="57"/>
      <point x="334" y="61"/>
      <point x="334" y="61" type="curve"/>
      <point x="73" y="-73"/>
      <point x="30" y="-156"/>
      <point x="30" y="-229" type="curve" smooth="yes"/>
      <point x="30" y="-423"/>
      <point x="281" y="-500"/>
      <point x="467" y="-500" type="curve" smooth="yes"/>
      <point x="702" y="-500"/>
    </contour>
    <contour>
      <point x="973" y="893"/>
      <point x="989" y="930" type="curve"/>
      <point x="969" y="960" type="line"/>
      <point x="907" y="937"/>
      <point x="811" y="901"/>
      <point x="635" y="891" type="curve"/>
      <point x="682" y="814" type="line"/>
      <point x="795" y="810"/>
      <point x="860" y="818"/>
      <point x="932" y="830" type="curve"/>
      <point x="963" y="863"/>
    </contour>
    <contour>
      <point x="830" y="437"/>
      <point x="830" y="641" type="curve"/>
      <point x="830" y="814"/>
      <point x="680" y="960"/>
      <point x="485" y="960" type="curve" smooth="yes"/>
      <point x="291" y="960"/>
      <point x="100" y="798"/>
      <point x="100" y="602" type="curve" smooth="yes"/>
      <point x="100" y="416"/>
      <point x="242" y="294"/>
      <point x="434" y="294" type="curve" smooth="yes"/>
      <point x="629" y="294"/>
    </contour>
    <contour>
      <point x="690" y="742"/>
      <point x="690" y="600" type="curve"/>
      <point x="690" y="468"/>
      <point x="592" y="399"/>
      <point x="514" y="399" type="curve" smooth="yes"/>
      <point x="326" y="399"/>
      <point x="240" y="517"/>
      <point x="240" y="659" type="curve" smooth="yes"/>
      <point x="240" y="791"/>
      <point x="350" y="860"/>
      <point x="416" y="860" type="curve" smooth="yes"/>
      <point x="596" y="860"/>
    </contour>
    <contour>
      <point x="1028" y="-240" type="line"/>
      <point x="1050" y="-175" type="line"/>
      <point x="1028" y="-150" type="line"/>
      <point x="-27" y="-150" type="line"/>
      <point x="-38" y="-171"/>
      <point x="-44" y="-197"/>
      <point x="-50" y="-218" type="curve"/>
      <point x="-27" y="-240" type="line"/>
    </contour>
  </outline>
</glyph>
<glyph name="LtnSmDCurl" format="2">
  <advance width="1298"/>
  <unicode hex="0221"/>
  <anchor x="525" y="-100" name="L"/>
  <anchor x="335" y="1050" name="U"/>
  <outline>
    <contour>
      <point x="895" y="160"/>
      <point x="895" y="254" type="curve"/>
      <point x="895" y="1520" type="line"/>
      <point x="864" y="1550" type="line"/>
      <point x="795" y="1528"/>
      <point x="709" y="1499"/>
      <point x="600" y="1485" type="curve"/>
      <point x="600" y="1446" type="line"/>
      <point x="741" y="1436"/>
      <point x="745" y="1421"/>
      <point x="745" y="1274" type="curve" smooth="yes"/>
      <point x="745" y="897" type="line"/>
      <point x="673" y="950"/>
      <point x="613" y="960"/>
      <point x="551" y="960" type="curve" smooth="yes"/>
      <point x="272" y="960"/>
      <point x="80" y="674"/>
      <point x="80" y="444" type="curve" smooth="yes"/>
      <point x="80" y="147"/>
      <point x="268" y="-30"/>
      <point x="416" y="-30" type="curve" smooth="yes"/>
      <point x="553" y="-30"/>
      <point x="645" y="46"/>
      <point x="747" y="169" type="curve"/>
      <point x="756" y="24"/>
      <point x="893" y="-30"/>
      <point x="980" y="-30" type="curve" smooth="yes"/>
      <point x="1162" y="-30"/>
      <point x="1273" y="65"/>
      <point x="1273" y="219" type="curve" smooth="yes"/>
      <point x="1273" y="326"/>
      <point x="1189" y="385"/>
      <point x="1093" y="385" type="curve" smooth="yes"/>
      <point x="883" y="385"/>
      <point x="747" y="53"/>
      <point x="677" y="-195" type="curve"/>
      <point x="742" y="-215" type="line"/>
      <point x="813" y="11"/>
      <point x="942" y="265"/>
      <point x="1059" y="265" type="curve" smooth="yes"/>
      <point x="1130" y="265"/>
      <point x="1166" y="214"/>
      <point x="1166" y="170" type="curve" smooth="yes"/>
      <point x="1166" y="103"/>
      <point x="1119" y="60"/>
      <point x="1051" y="60" type="curve" smooth="yes"/>
      <point x="933" y="60"/>
    </contour>
    <contour>
      <point x="745" y="730" type="curve"/>
      <point x="745" y="261" type="line"/>
      <point x="663" y="181"/>
      <point x="578" y="100"/>
      <point x="487" y="100" type="curve" smooth="yes"/>
      <point x="377" y="100"/>
      <point x="230" y="248"/>
      <point x="230" y="475" type="curve" smooth="yes"/>
      <point x="230" y="725"/>
      <point x="350" y="850"/>
      <point x="520" y="850" type="curve" smooth="yes"/>
      <point x="615" y="850"/>
      <point x="701" y="806"/>
    </contour>
  </outline>
</glyph>
<glyph name="LtnSmOu" format="2">
  <advance width="1030"/>
  <unicode hex="0223"/>
  <anchor x="515" y="-100" name="L"/>
  <anchor x="515" y="1690" name="U"/>
  <outline>
    <contour>
      <point x="393" y="1426"/>
      <point x="492" y="1426" type="curve" smooth="yes"/>
      <point x="596" y="1426"/>
      <point x="721" y="1351"/>
      <point x="721" y="1224" type="curve" smooth="yes"/>
      <point x="721" y="1148"/>
      <point x="681" y="1054"/>
      <point x="532" y="965" type="curve"/>
      <point x="623" y="926" type="line"/>
      <point x="794" y="1031"/>
      <point x="859" y="1149"/>
      <point x="859" y="1258" type="curve" smooth="yes"/>
      <point x="859" y="1431"/>
      <point x="698" y="1523"/>
      <point x="534" y="1523" type="curve" smooth="yes"/>
      <point x="352" y="1523"/>
      <point x="157" y="1374"/>
      <point x="157" y="1190" type="curve" smooth="yes"/>
      <point x="157" y="812"/>
      <point x="795" y="914"/>
      <point x="795" y="434" type="curve" smooth="yes"/>
      <point x="795" y="259"/>
      <point x="706" y="80"/>
      <point x="538" y="80" type="curve" smooth="yes"/>
      <point x="365" y="80"/>
      <point x="235" y="238"/>
      <point x="235" y="441" type="curve" smooth="yes"/>
      <point x="235" y="621"/>
      <point x="364" y="784"/>
      <point x="493" y="862" type="curve"/>
      <point x="415" y="908" type="line"/>
      <point x="221" y="807"/>
      <point x="80" y="600"/>
      <point x="80" y="404" type="curve" smooth="yes"/>
      <point x="80" y="169"/>
      <point x="223" y="-30"/>
      <point x="482" y="-30" type="curve" smooth="yes"/>
      <point x="740" y="-30"/>
      <point x="950" y="199"/>
      <point x="950" y="487" type="curve" smooth="yes"/>
      <point x="950" y="1017"/>
      <point x="287" y="968"/>
      <point x="287" y="1227" type="curve" smooth="yes"/>
      <point x="287" y="1336"/>
    </contour>
  </outline>
</glyph>
<glyph name="LtnSmTCurl" format="2">
  <advance width="725"/>
  <unicode hex="0236"/>
  <anchor x="376" y="-100" name="L"/>
  <anchor x="378" y="1320" name="U"/>
  <outline>
    <contour>
      <point x="573" y="816"/>
      <point x="605" y="800" type="curve"/>
      <point x="632" y="812"/>
      <point x="681" y="864"/>
      <point x="706" y="901" type="curve"/>
      <point x="677" y="930" type="line"/>
      <point x="350" y="930" type="line"/>
      <point x="350" y="1255" type="line"/>
      <point x="319" y="1280" type="line"/>
      <point x="200" y="1176" type="line"/>
      <point x="200" y="930" type="line"/>
      <point x="127" y="930" type="line"/>
      <point x="49" y="863" type="line"/>
      <point x="70" y="835" type="line"/>
      <point x="200" y="835" type="line"/>
      <point x="200" y="221" type="line" smooth="yes"/>
      <point x="200" y="34"/>
      <point x="336" y="-30"/>
      <point x="445" y="-30" type="curve" smooth="yes"/>
      <point x="542" y="-30"/>
      <point x="705" y="53"/>
      <point x="705" y="203" type="curve"/>
      <point x="705" y="307"/>
      <point x="627" y="385"/>
      <point x="488" y="385" type="curve" smooth="yes"/>
      <point x="279" y="385"/>
      <point x="60" y="170"/>
      <point x="-53" y="-152" type="curve"/>
      <point x="8" y="-180" type="line"/>
      <point x="108" y="61"/>
      <point x="269" y="275"/>
      <point x="461" y="275" type="curve" smooth="yes"/>
      <point x="535" y="275"/>
      <point x="590" y="214"/>
      <point x="590" y="160" type="curve" smooth="yes"/>
      <point x="590" y="103"/>
      <point x="547" y="60"/>
      <point x="495" y="60" type="curve" smooth="yes"/>
      <point x="394" y="60"/>
      <point x="350" y="129"/>
      <point x="350" y="307" type="curve" smooth="yes"/>
      <point x="350" y="835" type="line"/>
      <point x="402" y="835" type="line" smooth="yes"/>
      <point x="510" y="835"/>
    </contour>
  </outline>
</glyph>
<glyph name="LtnSmQPDigraph" format="2">
  <advance width="1635"/>
  <unicode hex="0239"/>
  <anchor x="824" y="-600" name="L"/>
  <anchor x="824" y="1050" name="U"/>
  <outline>
    <contour>
      <point x="885" y="221" type="curve"/>
      <point x="874" y="116" type="line"/>
      <point x="971" y="22"/>
      <point x="1095" y="-30"/>
      <point x="1173" y="-30" type="curve" smooth="yes"/>
      <point x="1368" y="-30"/>
      <point x="1555" y="260"/>
      <point x="1555" y="492" type="curve" smooth="yes"/>
      <point x="1555" y="784"/>
      <point x="1422" y="960"/>
      <point x="1240" y="960" type="curve" smooth="yes"/>
      <point x="1164" y="960"/>
      <point x="1007" y="890"/>
      <point x="868" y="712" type="curve"/>
      <point x="887" y="608" type="line"/>
      <point x="1005" y="787"/>
      <point x="1125" y="835"/>
      <point x="1173" y="835" type="curve" smooth="yes"/>
      <point x="1302" y="835"/>
      <point x="1420" y="659"/>
      <point x="1420" y="426" type="curve" smooth="yes"/>
      <point x="1420" y="213"/>
      <point x="1314" y="100"/>
      <point x="1171" y="100" type="curve" smooth="yes"/>
      <point x="1099" y="100"/>
      <point x="1009" y="125"/>
    </contour>
    <contour>
      <point x="575" y="-480" type="line"/>
      <point x="1064" y="-480" type="line"/>
      <point x="1064" y="-437" type="line"/>
      <point x="962" y="-418"/>
      <point x="895" y="-396"/>
      <point x="895" y="-375" type="curve" smooth="yes"/>
      <point x="895" y="727" type="line" smooth="yes"/>
      <point x="895" y="804"/>
      <point x="908" y="877"/>
      <point x="926" y="930" type="curve"/>
      <point x="895" y="960" type="line"/>
      <point x="862" y="927"/>
      <point x="788" y="862"/>
      <point x="745" y="848" type="curve"/>
      <point x="745" y="-375" type="line" smooth="yes"/>
      <point x="745" y="-398"/>
      <point x="700" y="-418"/>
      <point x="575" y="-437" type="curve"/>
    </contour>
    <contour>
      <point x="684" y="84"/>
      <point x="819" y="260" type="curve"/>
      <point x="813" y="270"/>
      <point x="799" y="289"/>
      <point x="782" y="297" type="curve"/>
      <point x="688" y="207"/>
      <point x="592" y="100"/>
      <point x="487" y="100" type="curve" smooth="yes"/>
      <point x="377" y="100"/>
      <point x="230" y="248"/>
      <point x="230" y="475" type="curve" smooth="yes"/>
      <point x="230" y="725"/>
      <point x="371" y="850"/>
      <point x="520" y="850" type="curve" smooth="yes"/>
      <point x="621" y="850"/>
      <point x="711" y="801"/>
      <point x="752" y="717" type="curve"/>
      <point x="795" y="743"/>
      <point x="811" y="760"/>
      <point x="811" y="840" type="curve"/>
      <point x="707" y="944"/>
      <point x="631" y="960"/>
      <point x="551" y="960" type="curve" smooth="yes"/>
      <point x="500" y="960"/>
      <point x="420" y="937"/>
      <point x="344" y="895" type="curve" smooth="yes"/>
      <point x="250" y="843"/>
      <point x="80" y="678"/>
      <point x="80" y="444" type="curve" smooth="yes"/>
      <point x="80" y="147"/>
      <point x="268" y="-30"/>
      <point x="416" y="-30" type="curve" smooth="yes"/>
      <point x="584" y="-30"/>
    </contour>
  </outline>
</glyph>
<glyph name="LtnSmCStrk" format="2">
  <advance width="895"/>
  <unicode hex="023C"/>
  <anchor x="506" y="-600" name="L"/>
  <anchor x="506" y="1050" name="U"/>
  <outline>
    <contour>
      <point x="840" y="190" type="curve"/>
      <point x="801" y="231" type="line"/>
      <point x="653" y="104"/>
      <point x="612" y="100"/>
      <point x="537" y="100" type="curve" smooth="yes"/>
      <point x="377" y="100"/>
      <point x="230" y="248"/>
      <point x="230" y="475" type="curve" smooth="yes"/>
      <point x="230" y="725"/>
      <point x="360" y="850"/>
      <point x="500" y="850" type="curve" smooth="yes"/>
      <point x="637" y="850"/>
      <point x="709" y="774"/>
      <point x="731" y="727" type="curve"/>
      <point x="768" y="717" type="line"/>
      <point x="793" y="754"/>
      <point x="831" y="848"/>
      <point x="825" y="881" type="curve"/>
      <point x="780" y="928"/>
      <point x="678" y="960"/>
      <point x="590" y="960" type="curve" smooth="yes"/>
      <point x="303" y="960"/>
      <point x="80" y="731"/>
      <point x="80" y="444" type="curve" smooth="yes"/>
      <point x="80" y="147"/>
      <point x="270" y="-30"/>
      <point x="465" y="-30" type="curve" smooth="yes"/>
      <point x="590" y="-30"/>
      <point x="666" y="-14"/>
    </contour>
    <contour>
      <point x="828" y="1082" type="line"/>
      <point x="804" y="1113" type="line"/>
      <point x="768" y="1094"/>
      <point x="724" y="1064"/>
      <point x="689" y="1032" type="curve"/>
      <point x="174" y="-124" type="line"/>
      <point x="196" y="-155" type="line"/>
      <point x="228" y="-142"/>
      <point x="291" y="-95"/>
      <point x="314" y="-73" type="curve"/>
    </contour>
  </outline>
</glyph>
<glyph name="LtnCapGlottalStop" format="2">
  <advance width="950"/>
  <unicode hex="0241"/>
  <anchor x="475" y="-100" name="L"/>
  <anchor x="475" y="1370" name="U"/>
  <outline>
    <contour>
      <point x="230" y="0" type="line"/>
      <point x="720" y="0" type="line"/>
      <point x="720" y="43" type="line"/>
      <point x="611" y="61"/>
      <point x="555" y="84"/>
      <point x="555" y="104" type="curve" smooth="yes"/>
      <point x="555" y="455" type="line" smooth="yes"/>
      <point x="555" y="690"/>
      <point x="890" y="688"/>
      <point x="890" y="985" type="curve" smooth="yes"/>
      <point x="890" y="1172"/>
      <point x="758" y="1290"/>
      <point x="522" y="1290" type="curve" smooth="yes"/>
      <point x="259" y="1290"/>
      <point x="40" y="1131"/>
      <point x="40" y="943" type="curve" smooth="yes"/>
      <point x="40" y="923"/>
      <point x="45" y="900"/>
      <point x="47" y="890" type="curve"/>
      <point x="74" y="860" type="line"/>
      <point x="133" y="866"/>
      <point x="188" y="876"/>
      <point x="231" y="898" type="curve"/>
      <point x="218" y="922"/>
      <point x="214" y="946"/>
      <point x="214" y="976" type="curve" smooth="yes"/>
      <point x="214" y="1080"/>
      <point x="308" y="1190"/>
      <point x="444" y="1190" type="curve" smooth="yes"/>
      <point x="623" y="1190"/>
      <point x="730" y="1104"/>
      <point x="730" y="940" type="curve" smooth="yes"/>
      <point x="730" y="740"/>
      <point x="395" y="685"/>
      <point x="395" y="396" type="curve" smooth="yes"/>
      <point x="395" y="104" type="line" smooth="yes"/>
      <point x="395" y="82"/>
      <point x="345" y="63"/>
      <point x="230" y="43" type="curve"/>
    </contour>
  </outline>
</glyph>
<glyph name="LtnCapEStrk" format="2">
  <advance width="1016"/>
  <unicode hex="0246"/>
  <anchor x="560" y="-100" name="L"/>
  <anchor x="588" y="1370" name="U"/>
  <outline>
    <contour>
      <point x="1038" y="1387" type="line"/>
      <point x="1017" y="1420" type="line"/>
      <point x="979" y="1405"/>
      <point x="933" y="1378"/>
      <point x="895" y="1350" type="curve"/>
      <point x="77" y="-124" type="line"/>
      <point x="96" y="-157" type="line"/>
      <point x="129" y="-147"/>
      <point x="196" y="-106"/>
      <point x="221" y="-86" type="curve"/>
    </contour>
    <contour>
      <point x="885" y="1167"/>
      <point x="889" y="1235" type="curve"/>
      <point x="856" y="1260" type="line"/>
      <point x="332" y="1260" type="line"/>
      <point x="303" y="1170" type="line"/>
      <point x="721" y="1170" type="line" smooth="yes"/>
      <point x="770" y="1170"/>
      <point x="797" y="1173"/>
      <point x="803" y="1050" type="curve"/>
      <point x="848" y="1050" type="line"/>
      <point x="864" y="1101"/>
    </contour>
    <contour>
      <point x="764" y="670"/>
      <point x="786" y="707" type="curve"/>
      <point x="760" y="735" type="line"/>
      <point x="311" y="735" type="line"/>
      <point x="289" y="651" type="line"/>
      <point x="496" y="651" type="line" smooth="yes"/>
      <point x="608" y="651"/>
      <point x="653" y="635"/>
      <point x="694" y="596" type="curve"/>
      <point x="723" y="617"/>
    </contour>
    <contour>
      <point x="944" y="129"/>
      <point x="954" y="244" type="curve"/>
      <point x="911" y="262" type="line"/>
      <point x="854" y="106"/>
      <point x="811" y="90"/>
      <point x="688" y="90" type="curve" smooth="yes"/>
      <point x="559" y="90" type="line" smooth="yes"/>
      <point x="383" y="90"/>
      <point x="355" y="115"/>
      <point x="355" y="154" type="curve" smooth="yes"/>
      <point x="355" y="1177" type="line" smooth="yes"/>
      <point x="355" y="1195"/>
      <point x="410" y="1198"/>
      <point x="500" y="1217" type="curve"/>
      <point x="500" y="1260" type="line"/>
      <point x="332" y="1260" type="line"/>
      <point x="50" y="1260" type="line"/>
      <point x="50" y="1217" type="line"/>
      <point x="146" y="1198"/>
      <point x="195" y="1171"/>
      <point x="195" y="1155" type="curve" smooth="yes"/>
      <point x="195" y="104" type="line" smooth="yes"/>
      <point x="195" y="86"/>
      <point x="140" y="61"/>
      <point x="50" y="43" type="curve"/>
      <point x="50" y="0" type="line"/>
      <point x="913" y="0" type="line"/>
      <point x="924" y="39"/>
    </contour>
  </outline>
</glyph>
<glyph name="LtnCapYStrk" format="2">
  <advance width="1217"/>
  <unicode hex="024E"/>
  <anchor x="604" y="-100" name="L"/>
  <anchor x="604" y="1370" name="U"/>
  <outline>
    <contour>
      <point x="1094" y="925" type="line"/>
      <point x="1119" y="992" type="line"/>
      <point x="1094" y="1015" type="line"/>
      <point x="99" y="1015" type="line"/>
      <point x="91" y="994"/>
      <point x="83" y="970"/>
      <point x="77" y="950" type="curve"/>
      <point x="99" y="925" type="line"/>
    </contour>
    <contour>
      <point x="1085" y="1200"/>
      <point x="1176" y="1217" type="curve"/>
      <point x="1176" y="1260" type="line"/>
      <point x="780" y="1260" type="line"/>
      <point x="780" y="1217" type="line"/>
      <point x="883" y="1204"/>
      <point x="911" y="1186"/>
      <point x="891" y="1151" type="curve" smooth="yes"/>
      <point x="623" y="680" type="line"/>
      <point x="530" y="872"/>
      <point x="397" y="1102"/>
      <point x="297" y="1231" type="curve" smooth="yes"/>
      <point x="276" y="1257"/>
      <point x="248" y="1270"/>
      <point x="219" y="1270" type="curve" smooth="yes"/>
      <point x="164" y="1270"/>
      <point x="78" y="1260"/>
      <point x="0" y="1249" type="curve"/>
      <point x="4" y="1206" type="line"/>
      <point x="115" y="1206"/>
      <point x="143" y="1180"/>
      <point x="168" y="1151" type="curve"/>
      <point x="268" y="1014"/>
      <point x="451" y="711"/>
      <point x="545" y="489" type="curve"/>
      <point x="655" y="489" type="line"/>
      <point x="1020" y="1151" type="line" smooth="yes"/>
      <point x="1039" y="1185"/>
    </contour>
    <contour>
      <point x="360" y="0" type="line"/>
      <point x="850" y="0" type="line"/>
      <point x="850" y="43" type="line"/>
      <point x="725" y="68"/>
      <point x="684" y="98"/>
      <point x="684" y="115" type="curve" smooth="yes"/>
      <point x="684" y="637" type="line"/>
      <point x="524" y="637" type="line"/>
      <point x="524" y="115" type="line" smooth="yes"/>
      <point x="524" y="96"/>
      <point x="481" y="68"/>
      <point x="360" y="43" type="curve"/>
    </contour>
  </outline>
</glyph>
<glyph name="LtnSmYStrk" format="2">
  <advance width="1010"/>
  <unicode hex="024F"/>
  <anchor x="768" y="-100" name="L"/>
  <anchor x="528" y="1050" name="U"/>
  <outline>
    <contour>
      <point x="958" y="555" type="line"/>
      <point x="980" y="620" type="line"/>
      <point x="958" y="645" type="line"/>
      <point x="52" y="645" type="line"/>
      <point x="42" y="624"/>
      <point x="36" y="598"/>
      <point x="30" y="577" type="curve"/>
      <point x="52" y="555" type="line"/>
    </contour>
    <contour>
      <point x="989" y="930" type="line"/>
      <point x="655" y="930" type="line"/>
      <point x="655" y="887" type="line"/>
      <point x="754" y="872"/>
      <point x="785" y="860"/>
      <point x="770" y="819" type="curve" smooth="yes"/>
      <point x="539" y="182" type="line"/>
      <point x="293" y="819" type="line" smooth="yes"/>
      <point x="276" y="862"/>
      <point x="303" y="874"/>
      <point x="406" y="887" type="curve"/>
      <point x="406" y="930" type="line"/>
      <point x="20" y="930" type="line"/>
      <point x="20" y="887" type="line"/>
      <point x="86" y="872"/>
      <point x="117" y="855"/>
      <point x="131" y="819" type="curve" smooth="yes"/>
      <point x="459" y="-23" type="line"/>
      <point x="430" y="-92" type="line" smooth="yes"/>
      <point x="383" y="-207"/>
      <point x="299" y="-313"/>
      <point x="250" y="-330" type="curve" smooth="yes"/>
      <point x="201" y="-348"/>
      <point x="133" y="-349"/>
      <point x="70" y="-312" type="curve"/>
      <point x="27" y="-338"/>
      <point x="-47" y="-431"/>
      <point x="-47" y="-447" type="curve" smooth="yes"/>
      <point x="-47" y="-472"/>
      <point x="25" y="-500"/>
      <point x="127" y="-500" type="curve" smooth="yes"/>
      <point x="260" y="-500"/>
      <point x="434" y="-377"/>
      <point x="545" y="-82" type="curve" smooth="yes"/>
      <point x="879" y="819" type="line" smooth="yes"/>
      <point x="893" y="858"/>
      <point x="909" y="868"/>
      <point x="989" y="887" type="curve"/>
    </contour>
  </outline>
</glyph>
<glyph name="LtnSmDTail" format="2">
  <advance width="1030"/>
  <unicode hex="0256"/>
  <anchor x="472" y="-100" name="L"/>
  <anchor x="1065" y="900" name="R"/>
  <anchor x="335" y="1050" name="U"/>
  <outline>
    <contour>
      <point x="895" y="-166" type="curve" smooth="yes"/>
      <point x="895" y="1520" type="line"/>
      <point x="864" y="1550" type="line"/>
      <point x="795" y="1528"/>
      <point x="711" y="1499"/>
      <point x="602" y="1485" type="curve"/>
      <point x="602" y="1446" type="line"/>
      <point x="743" y="1436"/>
      <point x="745" y="1421"/>
      <point x="745" y="1274" type="curve" smooth="yes"/>
      <point x="745" y="897" type="line"/>
      <point x="673" y="950"/>
      <point x="613" y="960"/>
      <point x="551" y="960" type="curve" smooth="yes"/>
      <point x="272" y="960"/>
      <point x="80" y="674"/>
      <point x="80" y="444" type="curve" smooth="yes"/>
      <point x="80" y="147"/>
      <point x="268" y="-30"/>
      <point x="416" y="-30" type="curve" smooth="yes"/>
      <point x="552" y="-30"/>
      <point x="643" y="44"/>
      <point x="745" y="166" type="curve"/>
      <point x="745" y="-227" type="line" smooth="yes"/>
      <point x="745" y="-371"/>
      <point x="786" y="-500"/>
      <point x="948" y="-500" type="curve" smooth="yes"/>
      <point x="1143" y="-500"/>
      <point x="1311" y="-336"/>
      <point x="1303" y="-235" type="curve"/>
      <point x="1284" y="-196" type="line"/>
      <point x="1243" y="-190"/>
      <point x="1110" y="-252"/>
      <point x="1118" y="-264" type="curve" smooth="yes"/>
      <point x="1153" y="-321"/>
      <point x="1100" y="-405"/>
      <point x="1022" y="-405" type="curve" smooth="yes"/>
      <point x="926" y="-405"/>
      <point x="895" y="-319"/>
    </contour>
    <contour>
      <point x="578" y="100"/>
      <point x="487" y="100" type="curve" smooth="yes"/>
      <point x="377" y="100"/>
      <point x="230" y="248"/>
      <point x="230" y="475" type="curve" smooth="yes"/>
      <point x="230" y="725"/>
      <point x="350" y="850"/>
      <point x="520" y="850" type="curve" smooth="yes"/>
      <point x="615" y="850"/>
      <point x="701" y="806"/>
      <point x="745" y="730" type="curve"/>
      <point x="745" y="261" type="line"/>
      <point x="662" y="180"/>
    </contour>
  </outline>
</glyph>
<glyph name="LtnSmDHook" format="2">
  <advance width="1065"/>
  <unicode hex="0257"/>
  <anchor x="525" y="-100" name="L"/>
  <anchor x="335" y="1050" name="U"/>
  <outline>
    <contour>
      <point x="1292" y="1401"/>
      <point x="1292" y="1423" type="curve"/>
      <point x="1292" y="1448"/>
      <point x="1210" y="1550"/>
      <point x="1094" y="1550" type="curve" smooth="yes"/>
      <point x="1042" y="1550"/>
      <point x="961" y="1518"/>
      <point x="893" y="1458" type="curve" smooth="yes"/>
      <point x="788" y="1368"/>
      <point x="745" y="1278"/>
      <point x="745" y="1051" type="curve" smooth="yes"/>
      <point x="745" y="272" type="line" smooth="yes"/>
      <point x="745" y="49"/>
      <point x="776" y="-31"/>
      <point x="829" y="-31" type="curve" smooth="yes"/>
      <point x="866" y="-31"/>
      <point x="928" y="2"/>
      <point x="1051" y="84" type="curve"/>
      <point x="1038" y="127" type="line"/>
      <point x="958" y="96"/>
      <point x="930" y="92"/>
      <point x="918" y="106" type="curve" smooth="yes"/>
      <point x="903" y="125"/>
      <point x="895" y="160"/>
      <point x="895" y="254" type="curve" smooth="yes"/>
      <point x="895" y="1106" type="line" smooth="yes"/>
      <point x="895" y="1348"/>
      <point x="932" y="1425"/>
      <point x="1016" y="1425" type="curve" smooth="yes"/>
      <point x="1053" y="1425"/>
      <point x="1110" y="1407"/>
      <point x="1165" y="1315" type="curve"/>
      <point x="1204" y="1333"/>
    </contour>
    <contour>
      <point x="684" y="84"/>
      <point x="819" y="260" type="curve"/>
      <point x="813" y="270"/>
      <point x="799" y="289"/>
      <point x="782" y="297" type="curve"/>
      <point x="688" y="207"/>
      <point x="592" y="100"/>
      <point x="487" y="100" type="curve" smooth="yes"/>
      <point x="377" y="100"/>
      <point x="230" y="248"/>
      <point x="230" y="475" type="curve" smooth="yes"/>
      <point x="230" y="725"/>
      <point x="350" y="850"/>
      <point x="520" y="850" type="curve" smooth="yes"/>
      <point x="621" y="850"/>
      <point x="711" y="801"/>
      <point x="752" y="717" type="curve"/>
      <point x="795" y="743"/>
      <point x="811" y="760"/>
      <point x="811" y="840" type="curve"/>
      <point x="707" y="944"/>
      <point x="631" y="960"/>
      <point x="551" y="960" type="curve" smooth="yes"/>
      <point x="272" y="960"/>
      <point x="80" y="674"/>
      <point x="80" y="444" type="curve" smooth="yes"/>
      <point x="80" y="147"/>
      <point x="268" y="-30"/>
      <point x="416" y="-30" type="curve" smooth="yes"/>
      <point x="584" y="-30"/>
    </contour>
  </outline>
</glyph>
<glyph name="LtnSmDotlessJStrk" format="2">
  <advance width="595"/>
  <unicode hex="025F"/>
  <anchor x="189" y="-600" name="L"/>
  <anchor x="596" y="900" name="R"/>
  <anchor x="189" y="1050" name="U"/>
  <outline>
    <contour>
      <point x="400" y="95" type="line"/>
      <point x="400" y="100" type="line"/>
      <point x="400" y="960" type="line" smooth="yes"/>
      <point x="400" y="960"/>
      <point x="362" y="960"/>
      <point x="362" y="960" type="curve"/>
      <point x="273" y="921"/>
      <point x="201" y="897"/>
      <point x="109" y="880" type="curve"/>
      <point x="109" y="840" type="line"/>
      <point x="244" y="827"/>
      <point x="250" y="804"/>
      <point x="250" y="688" type="curve" smooth="yes"/>
      <point x="250" y="95" type="line"/>
      <point x="207" y="95"/>
      <point x="158" y="101"/>
      <point x="118" y="130" type="curve"/>
      <point x="94" y="118"/>
      <point x="45" y="66"/>
      <point x="20" y="29" type="curve"/>
      <point x="49" y="0" type="line"/>
      <point x="249" y="0" type="line"/>
      <point x="242" y="-287"/>
      <point x="162" y="-365"/>
      <point x="89" y="-365" type="curve" smooth="yes"/>
      <point x="39" y="-365"/>
      <point x="-6" y="-357"/>
      <point x="-49" y="-320" type="curve"/>
      <point x="-88" y="-338"/>
      <point x="-176" y="-408"/>
      <point x="-176" y="-431" type="curve" smooth="yes"/>
      <point x="-176" y="-453"/>
      <point x="-92" y="-500"/>
      <point x="-10" y="-500" type="curve" smooth="yes"/>
      <point x="41" y="-500"/>
      <point x="139" y="-457"/>
      <point x="210" y="-400" type="curve" smooth="yes"/>
      <point x="304" y="-324"/>
      <point x="380" y="-232"/>
      <point x="396" y="0" type="curve"/>
      <point x="477" y="0" type="line"/>
      <point x="555" y="67" type="line"/>
      <point x="534" y="95" type="line"/>
    </contour>
  </outline>
</glyph>
<glyph name="LtnSmTurnedH" format="2">
  <advance width="1085"/>
  <unicode hex="0265"/>
  <anchor x="446" y="-100" name="L"/>
  <anchor x="546" y="1050" name="U"/>
  <outline>
    <contour>
      <point x="1053" y="-420" type="curve"/>
      <point x="1053" y="-380" type="line"/>
      <point x="909" y="-363"/>
      <point x="913" y="-348"/>
      <point x="913" y="-233" type="curve" smooth="yes"/>
      <point x="913" y="921" type="line"/>
      <point x="883" y="960" type="line"/>
      <point x="809" y="935"/>
      <point x="719" y="906"/>
      <point x="623" y="894" type="curve"/>
      <point x="623" y="854" type="line"/>
      <point x="746" y="848"/>
      <point x="763" y="831"/>
      <point x="763" y="711" type="curve" smooth="yes"/>
      <point x="763" y="322" type="line"/>
      <point x="654" y="180"/>
      <point x="537" y="100"/>
      <point x="451" y="100" type="curve" smooth="yes"/>
      <point x="365" y="100"/>
      <point x="318" y="147"/>
      <point x="318" y="334" type="curve" smooth="yes"/>
      <point x="318" y="921" type="line"/>
      <point x="290" y="960" type="line"/>
      <point x="202" y="925"/>
      <point x="135" y="906"/>
      <point x="39" y="894" type="curve"/>
      <point x="39" y="854" type="line"/>
      <point x="162" y="842"/>
      <point x="168" y="838"/>
      <point x="168" y="711" type="curve" smooth="yes"/>
      <point x="168" y="279" type="line" smooth="yes"/>
      <point x="168" y="29"/>
      <point x="272" y="-30"/>
      <point x="396" y="-30" type="curve" smooth="yes"/>
      <point x="481" y="-30"/>
      <point x="616" y="32"/>
      <point x="763" y="216" type="curve"/>
      <point x="763" y="-466" type="line"/>
      <point x="763" y="-466"/>
      <point x="800" y="-500"/>
      <point x="800" y="-500" type="curve"/>
      <point x="872" y="-460"/>
      <point x="959" y="-436"/>
    </contour>
  </outline>
</glyph>
<glyph name="LtnSmTurnedM" format="2">
  <advance width="1620"/>
  <unicode hex="026F"/>
  <anchor x="822" y="-100" name="L"/>
  <anchor x="1620" y="900" name="R"/>
  <anchor x="822" y="1050" name="U"/>
  <outline>
    <contour>
      <point x="132" y="905"/>
      <point x="41" y="894" type="curve"/>
      <point x="41" y="854" type="line"/>
      <point x="148" y="844"/>
      <point x="170" y="841"/>
      <point x="170" y="736" type="curve" smooth="yes"/>
      <point x="170" y="219" type="line" smooth="yes"/>
      <point x="170" y="49"/>
      <point x="255" y="-30"/>
      <point x="382" y="-30" type="curve" smooth="yes"/>
      <point x="480" y="-30"/>
      <point x="613" y="60"/>
      <point x="735" y="221" type="curve"/>
      <point x="735" y="210" type="line" smooth="yes"/>
      <point x="735" y="102"/>
      <point x="795" y="-30"/>
      <point x="947" y="-30" type="curve" smooth="yes"/>
      <point x="1043" y="-30"/>
      <point x="1183" y="60"/>
      <point x="1300" y="223" type="curve"/>
      <point x="1300" y="45"/>
      <point x="1350" y="-30"/>
      <point x="1382" y="-30" type="curve" smooth="yes"/>
      <point x="1421" y="-30"/>
      <point x="1513" y="23"/>
      <point x="1604" y="82" type="curve"/>
      <point x="1592" y="126" type="line"/>
      <point x="1538" y="103"/>
      <point x="1494" y="93"/>
      <point x="1476" y="102" type="curve" smooth="yes"/>
      <point x="1458" y="111"/>
      <point x="1450" y="161"/>
      <point x="1450" y="219" type="curve" smooth="yes"/>
      <point x="1450" y="920" type="line" smooth="yes"/>
      <point x="1450" y="921"/>
      <point x="1420" y="960"/>
      <point x="1420" y="960" type="curve"/>
      <point x="1340" y="932"/>
      <point x="1250" y="906"/>
      <point x="1160" y="894" type="curve"/>
      <point x="1160" y="854" type="line"/>
      <point x="1259" y="847"/>
      <point x="1300" y="843"/>
      <point x="1300" y="736" type="curve" smooth="yes"/>
      <point x="1300" y="337" type="line"/>
      <point x="1173" y="164"/>
      <point x="1083" y="100"/>
      <point x="993" y="100" type="curve" smooth="yes"/>
      <point x="921" y="100"/>
      <point x="885" y="143"/>
      <point x="885" y="297" type="curve" smooth="yes"/>
      <point x="885" y="921" type="line" smooth="yes"/>
      <point x="885" y="921"/>
      <point x="857" y="960"/>
      <point x="857" y="960" type="curve"/>
      <point x="772" y="926"/>
      <point x="702" y="907"/>
      <point x="606" y="894" type="curve"/>
      <point x="606" y="854" type="line"/>
      <point x="722" y="844"/>
      <point x="735" y="834"/>
      <point x="735" y="736" type="curve" smooth="yes"/>
      <point x="735" y="337" type="line"/>
      <point x="613" y="164"/>
      <point x="516" y="100"/>
      <point x="428" y="100" type="curve" smooth="yes"/>
      <point x="358" y="100"/>
      <point x="320" y="143"/>
      <point x="320" y="297" type="curve" smooth="yes"/>
      <point x="320" y="921" type="line" smooth="yes"/>
      <point x="320" y="921"/>
      <point x="292" y="960"/>
      <point x="292" y="960" type="curve"/>
      <point x="214" y="928"/>
    </contour>
  </outline>
</glyph>
<glyph name="LtnSmTurnedMLngLeg" format="2">
  <advance width="1620"/>
  <unicode hex="0270"/>
  <anchor x="815" y="-100" name="L"/>
  <anchor x="815" y="1050" name="U"/>
  <outline>
    <contour>
      <point x="1590" y="-420" type="curve"/>
      <point x="1590" y="-380" type="line"/>
      <point x="1473" y="-365"/>
      <point x="1450" y="-359"/>
      <point x="1450" y="-271" type="curve" smooth="yes"/>
      <point x="1450" y="920" type="line" smooth="yes"/>
      <point x="1450" y="921"/>
      <point x="1420" y="960"/>
      <point x="1420" y="960" type="curve"/>
      <point x="1340" y="932"/>
      <point x="1250" y="906"/>
      <point x="1160" y="894" type="curve"/>
      <point x="1160" y="854" type="line"/>
      <point x="1259" y="847"/>
      <point x="1300" y="843"/>
      <point x="1300" y="736" type="curve" smooth="yes"/>
      <point x="1300" y="337" type="line"/>
      <point x="1173" y="164"/>
      <point x="1083" y="100"/>
      <point x="993" y="100" type="curve" smooth="yes"/>
      <point x="921" y="100"/>
      <point x="885" y="143"/>
      <point x="885" y="297" type="curve" smooth="yes"/>
      <point x="885" y="921" type="line"/>
      <point x="857" y="960" type="line"/>
      <point x="772" y="926"/>
      <point x="702" y="907"/>
      <point x="606" y="894" type="curve"/>
      <point x="606" y="854" type="line"/>
      <point x="722" y="844"/>
      <point x="735" y="834"/>
      <point x="735" y="736" type="curve" smooth="yes"/>
      <point x="735" y="337" type="line"/>
      <point x="613" y="164"/>
      <point x="516" y="100"/>
      <point x="428" y="100" type="curve" smooth="yes"/>
      <point x="358" y="100"/>
      <point x="320" y="143"/>
      <point x="320" y="297" type="curve" smooth="yes"/>
      <point x="320" y="921" type="line"/>
      <point x="292" y="960" type="line"/>
      <point x="214" y="928"/>
      <point x="132" y="905"/>
      <point x="41" y="894" type="curve"/>
      <point x="41" y="854" type="line"/>
      <point x="148" y="844"/>
      <point x="170" y="841"/>
      <point x="170" y="736" type="curve" smooth="yes"/>
      <point x="170" y="219" type="line" smooth="yes"/>
      <point x="170" y="49"/>
      <point x="255" y="-30"/>
      <point x="382" y="-30" type="curve" smooth="yes"/>
      <point x="480" y="-30"/>
      <point x="613" y="60"/>
      <point x="735" y="221" type="curve"/>
      <point x="735" y="210" type="line" smooth="yes"/>
      <point x="735" y="102"/>
      <point x="795" y="-30"/>
      <point x="947" y="-30" type="curve" smooth="yes"/>
      <point x="1043" y="-30"/>
      <point x="1183" y="60"/>
      <point x="1300" y="223" type="curve"/>
      <point x="1301" y="222"/>
      <point x="1300" y="-466"/>
      <point x="1300" y="-466" type="curve"/>
      <point x="1312" y="-477"/>
      <point x="1325" y="-489"/>
      <point x="1337" y="-500" type="curve"/>
      <point x="1418" y="-458"/>
      <point x="1503" y="-433"/>
    </contour>
  </outline>
</glyph>
<glyph name="LtnSmRFishhook" format="2">
  <advance width="746"/>
  <unicode hex="027E"/>
  <anchor x="312" y="-100" name="L"/>
  <anchor x="424" y="1050" name="U"/>
  <outline>
    <contour>
      <point x="730" y="908"/>
      <point x="705" y="923" type="curve"/>
      <point x="656" y="951"/>
      <point x="605" y="960"/>
      <point x="562" y="960" type="curve" smooth="yes"/>
      <point x="430" y="960"/>
      <point x="180" y="835"/>
      <point x="180" y="456" type="curve" smooth="yes"/>
      <point x="180" y="104" type="line" smooth="yes"/>
      <point x="180" y="82"/>
      <point x="128" y="63"/>
      <point x="40" y="43" type="curve"/>
      <point x="40" y="0" type="line"/>
      <point x="499" y="0" type="line"/>
      <point x="499" y="43" type="line"/>
      <point x="374" y="61"/>
      <point x="330" y="84"/>
      <point x="330" y="104" type="curve" smooth="yes"/>
      <point x="330" y="526" type="line" smooth="yes"/>
      <point x="330" y="802"/>
      <point x="430" y="820"/>
      <point x="498" y="820" type="curve" smooth="yes"/>
      <point x="556" y="820"/>
      <point x="606" y="771"/>
      <point x="619" y="676" type="curve"/>
      <point x="662" y="676" type="line"/>
      <point x="695" y="748"/>
    </contour>
  </outline>
</glyph>
<glyph name="LtnSmSHook" format="2">
  <advance width="791"/>
  <unicode hex="0282"/>
  <anchor x="397" y="-600" name="L"/>
  <anchor x="397" y="1050" name="U"/>
  <outline>
    <contour>
      <point x="700" y="0"/>
      <point x="700" y="283" type="curve"/>
      <point x="700" y="432"/>
      <point x="571" y="500"/>
      <point x="455" y="559" type="curve"/>
      <point x="344" y="618"/>
      <point x="234" y="664"/>
      <point x="234" y="750" type="curve" smooth="yes"/>
      <point x="234" y="805"/>
      <point x="287" y="870"/>
      <point x="375" y="870" type="curve" smooth="yes"/>
      <point x="440" y="870"/>
      <point x="512" y="836"/>
      <point x="575" y="741" type="curve"/>
      <point x="614" y="733" type="line"/>
      <point x="631" y="754"/>
      <point x="680" y="868"/>
      <point x="664" y="883" type="curve" smooth="yes"/>
      <point x="610" y="930"/>
      <point x="485" y="960"/>
      <point x="401" y="960" type="curve" smooth="yes"/>
      <point x="250" y="960"/>
      <point x="104" y="866"/>
      <point x="104" y="700" type="curve" smooth="yes"/>
      <point x="104" y="573"/>
      <point x="211" y="506"/>
      <point x="322" y="449" type="curve" smooth="yes"/>
      <point x="444" y="385"/>
      <point x="570" y="334"/>
      <point x="570" y="227" type="curve" smooth="yes"/>
      <point x="570" y="133"/>
      <point x="502" y="70"/>
      <point x="406" y="70" type="curve" smooth="yes"/>
      <point x="268" y="70"/>
      <point x="162" y="160"/>
      <point x="156" y="272" type="curve"/>
      <point x="113" y="283" type="line"/>
      <point x="94" y="223"/>
      <point x="88" y="51"/>
      <point x="106" y="43" type="curve"/>
      <point x="195" y="-6"/>
      <point x="293" y="-30"/>
      <point x="356" y="-30" type="curve" smooth="yes"/>
      <point x="434" y="-30"/>
    </contour>
    <contour>
      <point x="532" y="-336"/>
      <point x="524" y="-235" type="curve"/>
      <point x="505" y="-196" type="line"/>
      <point x="464" y="-190"/>
      <point x="330" y="-253"/>
      <point x="339" y="-264" type="curve" smooth="yes"/>
      <point x="379" y="-312"/>
      <point x="361" y="-405"/>
      <point x="283" y="-405" type="curve" smooth="yes"/>
      <point x="217" y="-405"/>
      <point x="186" y="-359"/>
      <point x="186" y="-196" type="curve" smooth="yes"/>
      <point x="186" y="80" type="line"/>
      <point x="150" y="92"/>
      <point x="127" y="100"/>
      <point x="96" y="114" type="curve"/>
      <point x="96" y="-247" type="line" smooth="yes"/>
      <point x="96" y="-422"/>
      <point x="167" y="-500"/>
      <point x="279" y="-500" type="curve" smooth="yes"/>
      <point x="434" y="-500"/>
    </contour>
  </outline>
</glyph>
<glyph name="LtnSmDotlessJStrkHook" format="2">
  <advance width="635"/>
  <unicode hex="0284"/>
  <anchor x="310" y="-600" name="L"/>
  <anchor x="310" y="1690" name="U"/>
  <outline>
    <contour>
      <point x="807" y="1401"/>
      <point x="807" y="1423" type="curve"/>
      <point x="807" y="1448"/>
      <point x="725" y="1550"/>
      <point x="609" y="1550" type="curve" smooth="yes"/>
      <point x="557" y="1550"/>
      <point x="476" y="1518"/>
      <point x="408" y="1458" type="curve"/>
      <point x="303" y="1368"/>
      <point x="260" y="1264"/>
      <point x="260" y="1051" type="curve" smooth="yes"/>
      <point x="260" y="744"/>
      <point x="260" y="853"/>
      <point x="260" y="95" type="curve" smooth="yes"/>
      <point x="260" y="-124"/>
      <point x="241" y="-365"/>
      <point x="99" y="-365" type="curve" smooth="yes"/>
      <point x="49" y="-365"/>
      <point x="4" y="-357"/>
      <point x="-39" y="-320" type="curve"/>
      <point x="-78" y="-338"/>
      <point x="-166" y="-408"/>
      <point x="-166" y="-431" type="curve" smooth="yes"/>
      <point x="-166" y="-453"/>
      <point x="-82" y="-500"/>
      <point x="0" y="-500" type="curve" smooth="yes"/>
      <point x="51" y="-500"/>
      <point x="149" y="-457"/>
      <point x="220" y="-400" type="curve" smooth="yes"/>
      <point x="314" y="-324"/>
      <point x="410" y="-233"/>
      <point x="410" y="95" type="curve" smooth="yes"/>
      <point x="410" y="1106" type="line" smooth="yes"/>
      <point x="410" y="1348"/>
      <point x="447" y="1427"/>
      <point x="531" y="1427" type="curve" smooth="yes"/>
      <point x="568" y="1427"/>
      <point x="625" y="1407"/>
      <point x="680" y="1315" type="curve"/>
      <point x="719" y="1333"/>
    </contour>
    <contour>
      <point x="608" y="595" type="line"/>
      <point x="630" y="660" type="line"/>
      <point x="608" y="685" type="line"/>
      <point x="62" y="685" type="line"/>
      <point x="52" y="664"/>
      <point x="46" y="638"/>
      <point x="40" y="617" type="curve"/>
      <point x="62" y="595" type="line"/>
    </contour>
  </outline>
</glyph>
<glyph name="LtnSmSquatRevEsh" format="2">
  <advance width="680"/>
  <unicode hex="0285"/>
  <anchor x="584" y="-600" name="L"/>
  <anchor x="392" y="1050" name="U"/>
  <outline>
    <contour>
      <point x="546" y="-343"/>
      <point x="546" y="-176" type="curve"/>
      <point x="543" y="102"/>
      <point x="601" y="354"/>
      <point x="601" y="670" type="curve" smooth="yes"/>
      <point x="601" y="904"/>
      <point x="494" y="960"/>
      <point x="378" y="960" type="curve" smooth="yes"/>
      <point x="285" y="960"/>
      <point x="149" y="904"/>
      <point x="65" y="803" type="curve"/>
      <point x="40" y="788"/>
      <point x="75" y="678"/>
      <point x="108" y="606" type="curve"/>
      <point x="151" y="606" type="line"/>
      <point x="164" y="701"/>
      <point x="206" y="840"/>
      <point x="306" y="840" type="curve" smooth="yes"/>
      <point x="375" y="840"/>
      <point x="440" y="795"/>
      <point x="439" y="621" type="curve" smooth="yes"/>
      <point x="438" y="354"/>
      <point x="382" y="64"/>
      <point x="382" y="-219" type="curve"/>
      <point x="382" y="-390"/>
      <point x="436" y="-500"/>
      <point x="598" y="-500" type="curve" smooth="yes"/>
      <point x="793" y="-500"/>
      <point x="961" y="-326"/>
      <point x="953" y="-225" type="curve"/>
      <point x="934" y="-186" type="line"/>
      <point x="893" y="-180"/>
      <point x="760" y="-242"/>
      <point x="768" y="-254" type="curve" smooth="yes"/>
      <point x="803" y="-311"/>
      <point x="750" y="-385"/>
      <point x="672" y="-385" type="curve" smooth="yes"/>
      <point x="598" y="-385"/>
    </contour>
  </outline>
</glyph>
<glyph name="LtnSmTRetrHook" format="2">
  <advance width="686"/>
  <unicode hex="0288"/>
  <anchor x="396" y="-600" name="L"/>
  <anchor x="500" y="900" name="R"/>
  <anchor x="374" y="1320" name="U"/>
  <outline>
    <contour>
      <point x="736" y="-336"/>
      <point x="728" y="-235" type="curve"/>
      <point x="709" y="-196" type="line"/>
      <point x="668" y="-190"/>
      <point x="535" y="-252"/>
      <point x="543" y="-264" type="curve" smooth="yes"/>
      <point x="578" y="-321"/>
      <point x="525" y="-405"/>
      <point x="447" y="-405" type="curve" smooth="yes"/>
      <point x="351" y="-405"/>
      <point x="320" y="-319"/>
      <point x="320" y="-166" type="curve" smooth="yes"/>
      <point x="320" y="835" type="line"/>
      <point x="372" y="835" type="line" smooth="yes"/>
      <point x="480" y="835"/>
      <point x="543" y="816"/>
      <point x="575" y="800" type="curve"/>
      <point x="602" y="812"/>
      <point x="651" y="864"/>
      <point x="676" y="901" type="curve"/>
      <point x="647" y="930" type="line"/>
      <point x="320" y="930" type="line"/>
      <point x="320" y="1255" type="line"/>
      <point x="289" y="1280" type="line"/>
      <point x="170" y="1176" type="line"/>
      <point x="170" y="930" type="line"/>
      <point x="98" y="930" type="line"/>
      <point x="20" y="863" type="line"/>
      <point x="41" y="835" type="line"/>
      <point x="170" y="835" type="line"/>
      <point x="170" y="-227" type="line" smooth="yes"/>
      <point x="170" y="-371"/>
      <point x="211" y="-500"/>
      <point x="373" y="-500" type="curve" smooth="yes"/>
      <point x="568" y="-500"/>
    </contour>
  </outline>
</glyph>
<glyph name="LtnSmTurnedY" format="2">
  <advance width="1010"/>
  <unicode hex="028E"/>
  <anchor x="555" y="-100" name="L"/>
  <anchor x="555" y="1620" name="U"/>
  <outline>
    <contour>
      <point x="100" y="62"/>
      <point x="20" y="43" type="curve"/>
      <point x="20" y="0" type="line"/>
      <point x="354" y="0" type="line"/>
      <point x="354" y="43" type="line" smooth="yes"/>
      <point x="255" y="58"/>
      <point x="225" y="70"/>
      <point x="239" y="111" type="curve"/>
      <point x="470" y="748" type="line"/>
      <point x="716" y="111" type="line"/>
      <point x="733" y="68"/>
      <point x="706" y="56"/>
      <point x="603" y="43" type="curve"/>
      <point x="603" y="0" type="line"/>
      <point x="989" y="0" type="line"/>
      <point x="989" y="43" type="line"/>
      <point x="923" y="58"/>
      <point x="890" y="74"/>
      <point x="878" y="111" type="curve"/>
      <point x="550" y="953" type="line"/>
      <point x="603" y="1089" type="line" smooth="yes"/>
      <point x="673" y="1261"/>
      <point x="758" y="1393"/>
      <point x="862" y="1393" type="curve" smooth="yes"/>
      <point x="902" y="1393"/>
      <point x="942" y="1380"/>
      <point x="973" y="1362" type="curve" smooth="yes"/>
      <point x="1016" y="1388"/>
      <point x="1090" y="1481"/>
      <point x="1090" y="1497" type="curve" smooth="yes"/>
      <point x="1090" y="1522"/>
      <point x="1018" y="1550"/>
      <point x="916" y="1550" type="curve" smooth="yes"/>
      <point x="748" y="1550"/>
      <point x="614" y="1421"/>
      <point x="512" y="1146" type="curve" smooth="yes"/>
      <point x="130" y="111" type="line"/>
      <point x="116" y="72"/>
    </contour>
  </outline>
</glyph>
<glyph name="LtnStretchedC" format="2">
  <advance width="885"/>
  <unicode hex="0297"/>
  <anchor x="512" y="-600" name="L"/>
  <anchor x="512" y="1050" name="U"/>
  <outline>
    <contour>
      <point x="696" y="-484"/>
      <point x="870" y="-280" type="curve"/>
      <point x="831" y="-239" type="line"/>
      <point x="683" y="-366"/>
      <point x="632" y="-368"/>
      <point x="557" y="-368" type="curve" smooth="yes"/>
      <point x="438" y="-368"/>
      <point x="312" y="-277"/>
      <point x="260" y="-66" type="curve" smooth="yes"/>
      <point x="241" y="11"/>
      <point x="230" y="131"/>
      <point x="230" y="235" type="curve" smooth="yes"/>
      <point x="230" y="349"/>
      <point x="241" y="479"/>
      <point x="260" y="563" type="curve" smooth="yes"/>
      <point x="303" y="749"/>
      <point x="401" y="850"/>
      <point x="500" y="850" type="curve" smooth="yes"/>
      <point x="637" y="850"/>
      <point x="709" y="774"/>
      <point x="731" y="727" type="curve"/>
      <point x="768" y="717" type="line"/>
      <point x="793" y="754"/>
      <point x="831" y="848"/>
      <point x="825" y="881" type="curve"/>
      <point x="780" y="928"/>
      <point x="678" y="960"/>
      <point x="590" y="960" type="curve" smooth="yes"/>
      <point x="386" y="960"/>
      <point x="203" y="821"/>
      <point x="132" y="600" type="curve" smooth="yes"/>
      <point x="99" y="497"/>
      <point x="80" y="345"/>
      <point x="80" y="204" type="curve" smooth="yes"/>
      <point x="80" y="86"/>
      <point x="93" y="-46"/>
      <point x="115" y="-134" type="curve" smooth="yes"/>
      <point x="179" y="-386"/>
      <point x="338" y="-500"/>
      <point x="485" y="-500" type="curve" smooth="yes"/>
      <point x="610" y="-500"/>
    </contour>
  </outline>
</glyph>
<glyph name="LtnSmClosedOpnE" format="2">
  <advance width="959"/>
  <unicode hex="029A"/>
  <anchor x="479" y="-100" name="L"/>
  <anchor x="479" y="1050" name="U"/>
  <outline>
    <contour>
      <point x="730" y="731"/>
      <point x="730" y="439" type="curve" smooth="yes"/>
      <point x="730" y="241"/>
      <point x="628" y="95"/>
      <point x="467" y="95" type="curve" smooth="yes"/>
      <point x="322" y="95"/>
      <point x="246" y="180"/>
      <point x="244" y="264" type="curve" smooth="yes"/>
      <point x="242" y="354"/>
      <point x="334" y="455"/>
      <point x="543" y="469" type="curve"/>
      <point x="532" y="522" type="line"/>
      <point x="289" y="539"/>
      <point x="253" y="625"/>
      <point x="253" y="707" type="curve" smooth="yes"/>
      <point x="253" y="786"/>
      <point x="316" y="855"/>
      <point x="440" y="855" type="curve" smooth="yes"/>
      <point x="584" y="855"/>
    </contour>
    <contour>
      <point x="726" y="960"/>
      <point x="495" y="960" type="curve" smooth="yes"/>
      <point x="417" y="960"/>
      <point x="327" y="936"/>
      <point x="263" y="895" type="curve"/>
      <point x="175" y="842"/>
      <point x="113" y="760"/>
      <point x="113" y="676" type="curve" smooth="yes"/>
      <point x="113" y="567"/>
      <point x="170" y="506"/>
      <point x="270" y="467" type="curve"/>
      <point x="178" y="426"/>
      <point x="80" y="338"/>
      <point x="80" y="221" type="curve" smooth="yes"/>
      <point x="80" y="78"/>
      <point x="203" y="-30"/>
      <point x="426" y="-30" type="curve" smooth="yes"/>
      <point x="636" y="-30"/>
      <point x="880" y="169"/>
      <point x="880" y="509" type="curve" smooth="yes"/>
      <point x="880" y="740"/>
    </contour>
  </outline>
</glyph>
<glyph name="LtnSmJCrossedTail" format="2">
  <advance width="530"/>
  <unicode hex="029D"/>
  <anchor x="99" y="-600" name="L"/>
  <anchor x="99" y="1050" name="U"/>
  <outline>
    <contour>
      <point x="385" y="1175"/>
      <point x="385" y="1250" type="curve"/>
      <point x="385" y="1312"/>
      <point x="357" y="1345"/>
      <point x="300" y="1345" type="curve" smooth="yes"/>
      <point x="236" y="1345"/>
      <point x="185" y="1285"/>
      <point x="185" y="1209" type="curve" smooth="yes"/>
      <point x="185" y="1148"/>
      <point x="210" y="1113"/>
      <point x="270" y="1113" type="curve" smooth="yes"/>
      <point x="335" y="1113"/>
    </contour>
    <contour>
      <point x="355" y="-198"/>
      <point x="355" y="99" type="curve"/>
      <point x="355" y="960" type="line"/>
      <point x="318" y="960" type="line"/>
      <point x="234" y="925"/>
      <point x="176" y="900"/>
      <point x="65" y="880" type="curve"/>
      <point x="65" y="840" type="line"/>
      <point x="204" y="825"/>
      <point x="205" y="807"/>
      <point x="205" y="670" type="curve" smooth="yes"/>
      <point x="205" y="43" type="line" smooth="yes"/>
      <point x="205" y="-280"/>
      <point x="139" y="-375"/>
      <point x="11" y="-375" type="curve" smooth="yes"/>
      <point x="-42" y="-375"/>
      <point x="-126" y="-344"/>
      <point x="-126" y="-280" type="curve" smooth="yes"/>
      <point x="-126" y="-227"/>
      <point x="-70" y="-187"/>
      <point x="13" y="-187" type="curve" smooth="yes"/>
      <point x="158" y="-187"/>
      <point x="251" y="-280"/>
      <point x="449" y="-510" type="curve"/>
      <point x="495" y="-464" type="line"/>
      <point x="336" y="-244"/>
      <point x="194" y="-102"/>
      <point x="18" y="-102" type="curve" smooth="yes"/>
      <point x="-175" y="-102"/>
      <point x="-256" y="-234"/>
      <point x="-256" y="-306" type="curve" smooth="yes"/>
      <point x="-256" y="-428"/>
      <point x="-137" y="-500"/>
      <point x="-36" y="-500" type="curve" smooth="yes"/>
      <point x="55" y="-500"/>
      <point x="129" y="-462"/>
      <point x="197" y="-390" type="curve" smooth="yes"/>
      <point x="273" y="-310"/>
    </contour>
  </outline>
</glyph>
<glyph name="LtnSmTurnedK" format="2">
  <advance width="1024"/>
  <unicode hex="029E"/>
  <anchor x="343" y="-100" name="L"/>
  <anchor x="521" y="1050" name="U"/>
  <outline>
    <contour>
      <point x="128" y="49"/>
      <point x="69" y="43" type="curve"/>
      <point x="69" y="0" type="line"/>
      <point x="448" y="0" type="line"/>
      <point x="448" y="43" type="line"/>
      <point x="378" y="43"/>
      <point x="317" y="53"/>
      <point x="405" y="131" type="curve" smooth="yes"/>
      <point x="718" y="404" type="line"/>
      <point x="641" y="434" type="line"/>
      <point x="229" y="105" type="line" smooth="yes"/>
      <point x="173" y="60"/>
    </contour>
    <contour>
      <point x="1003" y="930" type="line"/>
      <point x="603" y="930" type="line"/>
      <point x="603" y="887" type="line"/>
      <point x="702" y="856"/>
      <point x="713" y="846"/>
      <point x="713" y="826" type="curve" smooth="yes"/>
      <point x="713" y="-466" type="line"/>
      <point x="750" y="-500" type="line"/>
      <point x="817" y="-461"/>
      <point x="911" y="-439"/>
      <point x="1003" y="-420" type="curve"/>
      <point x="1003" y="-380" type="line"/>
      <point x="888" y="-367"/>
      <point x="863" y="-369"/>
      <point x="863" y="-246" type="curve" smooth="yes"/>
      <point x="863" y="826" type="line" smooth="yes"/>
      <point x="863" y="850"/>
      <point x="915" y="864"/>
      <point x="1003" y="887" type="curve"/>
    </contour>
    <contour>
      <point x="125" y="904"/>
      <point x="40" y="894" type="curve"/>
      <point x="40" y="854" type="line"/>
      <point x="118" y="860"/>
      <point x="157" y="847"/>
      <point x="194" y="804" type="curve" smooth="yes"/>
      <point x="612" y="328" type="line"/>
      <point x="716" y="404" type="line"/>
      <point x="399" y="791" type="line" smooth="yes"/>
      <point x="337" y="868"/>
      <point x="311" y="911"/>
      <point x="292" y="960" type="curve"/>
      <point x="209" y="926"/>
    </contour>
  </outline>
</glyph>
<glyph name="LtnSmCapL" format="2">
  <advance width="890"/>
  <unicode hex="029F"/>
  <anchor x="456" y="-100" name="L"/>
  <anchor x="456" y="1050" name="U"/>
  <outline>
    <contour>
      <point x="847" y="119"/>
      <point x="857" y="205" type="curve"/>
      <point x="816" y="218" type="line"/>
      <point x="763" y="102"/>
      <point x="728" y="90"/>
      <point x="613" y="90" type="curve" smooth="yes"/>
      <point x="519" y="90" type="line" smooth="yes"/>
      <point x="382" y="90"/>
      <point x="345" y="110"/>
      <point x="345" y="145" type="curve" smooth="yes"/>
      <point x="345" y="841" type="line" smooth="yes"/>
      <point x="345" y="855"/>
      <point x="400" y="873"/>
      <point x="484" y="887" type="curve"/>
      <point x="484" y="930" type="line"/>
      <point x="55" y="930" type="line"/>
      <point x="55" y="887" type="line"/>
      <point x="145" y="873"/>
      <point x="195" y="853"/>
      <point x="195" y="841" type="curve" smooth="yes"/>
      <point x="195" y="88" type="line" smooth="yes"/>
      <point x="195" y="75"/>
      <point x="139" y="56"/>
      <point x="55" y="43" type="curve"/>
      <point x="55" y="0" type="line"/>
      <point x="818" y="0" type="line"/>
      <point x="827" y="29"/>
    </contour>
  </outline>
</glyph>
<glyph name="LtnSmTsDigraph" format="2">
  <advance width="1301"/>
  <unicode hex="02A6"/>
  <anchor x="640" y="-100" name="L"/>
  <anchor x="644" y="1320" name="U"/>
  <outline>
    <contour>
      <point x="545" y="20"/>
      <point x="676" y="117" type="curve"/>
      <point x="647" y="168" type="line"/>
      <point x="543" y="115"/>
      <point x="475" y="100"/>
      <point x="428" y="100" type="curve" smooth="yes"/>
      <point x="348" y="100"/>
      <point x="320" y="147"/>
      <point x="320" y="307" type="curve" smooth="yes"/>
      <point x="320" y="835" type="line"/>
      <point x="434" y="835" type="line" smooth="yes"/>
      <point x="542" y="835"/>
      <point x="605" y="816"/>
      <point x="637" y="800" type="curve"/>
      <point x="664" y="812"/>
      <point x="713" y="864"/>
      <point x="738" y="901" type="curve"/>
      <point x="789" y="930" type="line"/>
      <point x="320" y="930" type="line"/>
      <point x="320" y="1255" type="line"/>
      <point x="289" y="1280" type="line"/>
      <point x="170" y="1176" type="line"/>
      <point x="170" y="930" type="line"/>
      <point x="98" y="930" type="line"/>
      <point x="20" y="863" type="line"/>
      <point x="41" y="835" type="line"/>
      <point x="170" y="835" type="line"/>
      <point x="170" y="221" type="line" smooth="yes"/>
      <point x="170" y="35"/>
      <point x="252" y="-30"/>
      <point x="344" y="-30" type="curve" smooth="yes"/>
      <point x="414" y="-30"/>
    </contour>
    <contour>
      <point x="1210" y="0"/>
      <point x="1210" y="283" type="curve"/>
      <point x="1210" y="432"/>
      <point x="1081" y="500"/>
      <point x="965" y="559" type="curve"/>
      <point x="854" y="618"/>
      <point x="744" y="664"/>
      <point x="744" y="750" type="curve" smooth="yes"/>
      <point x="744" y="805"/>
      <point x="797" y="870"/>
      <point x="885" y="870" type="curve" smooth="yes"/>
      <point x="950" y="870"/>
      <point x="1022" y="836"/>
      <point x="1085" y="741" type="curve"/>
      <point x="1124" y="733" type="line"/>
      <point x="1141" y="754"/>
      <point x="1190" y="868"/>
      <point x="1174" y="883" type="curve" smooth="yes"/>
      <point x="1120" y="930"/>
      <point x="995" y="960"/>
      <point x="911" y="960" type="curve" smooth="yes"/>
      <point x="760" y="960"/>
      <point x="614" y="866"/>
      <point x="614" y="700" type="curve" smooth="yes"/>
      <point x="614" y="573"/>
      <point x="721" y="506"/>
      <point x="832" y="449" type="curve" smooth="yes"/>
      <point x="954" y="385"/>
      <point x="1080" y="334"/>
      <point x="1080" y="227" type="curve" smooth="yes"/>
      <point x="1080" y="133"/>
      <point x="1012" y="70"/>
      <point x="916" y="70" type="curve" smooth="yes"/>
      <point x="778" y="70"/>
      <point x="672" y="160"/>
      <point x="666" y="272" type="curve"/>
      <point x="623" y="283" type="line"/>
      <point x="604" y="223"/>
      <point x="598" y="51"/>
      <point x="616" y="43" type="curve"/>
      <point x="705" y="-6"/>
      <point x="803" y="-30"/>
      <point x="866" y="-30" type="curve" smooth="yes"/>
      <point x="944" y="-30"/>
    </contour>
  </outline>
</glyph>
<glyph name="LtnSmTurnedHFishhook" format="2">
  <advance width="1331"/>
  <unicode hex="02AE"/>
  <anchor x="650" y="-100" name="L"/>
  <anchor x="700" y="1050" name="U"/>
  <outline>
    <contour>
      <point x="1141" y="-248" type="curve" smooth="yes"/>
      <point x="1141" y="921" type="line"/>
      <point x="1111" y="960" type="line"/>
      <point x="1040" y="935"/>
      <point x="939" y="905"/>
      <point x="851" y="894" type="curve"/>
      <point x="851" y="854" type="line"/>
      <point x="973" y="848"/>
      <point x="991" y="831"/>
      <point x="991" y="711" type="curve" smooth="yes"/>
      <point x="991" y="381" type="line"/>
      <point x="876" y="195"/>
      <point x="746" y="100"/>
      <point x="654" y="100" type="curve" smooth="yes"/>
      <point x="566" y="100"/>
      <point x="526" y="135"/>
      <point x="526" y="297" type="curve" smooth="yes"/>
      <point x="526" y="696" type="line" smooth="yes"/>
      <point x="526" y="915"/>
      <point x="391" y="960"/>
      <point x="315" y="960" type="curve" smooth="yes"/>
      <point x="202" y="960"/>
      <point x="93" y="893"/>
      <point x="16" y="795" type="curve" smooth="yes"/>
      <point x="15" y="794"/>
      <point x="13" y="782"/>
      <point x="13" y="778" type="curve" smooth="yes"/>
      <point x="13" y="750"/>
      <point x="35" y="666"/>
      <point x="65" y="606" type="curve"/>
      <point x="108" y="606" type="line"/>
      <point x="117" y="678"/>
      <point x="158" y="840"/>
      <point x="257" y="840" type="curve" smooth="yes"/>
      <point x="347" y="840"/>
      <point x="376" y="754"/>
      <point x="376" y="626" type="curve" smooth="yes"/>
      <point x="376" y="189" type="line" smooth="yes"/>
      <point x="376" y="39"/>
      <point x="482" y="-30"/>
      <point x="597" y="-30" type="curve" smooth="yes"/>
      <point x="701" y="-30"/>
      <point x="876" y="76"/>
      <point x="991" y="246" type="curve"/>
      <point x="991" y="-466" type="line"/>
      <point x="1028" y="-500" type="line"/>
      <point x="1104" y="-461"/>
      <point x="1168" y="-441"/>
      <point x="1281" y="-420" type="curve"/>
      <point x="1281" y="-380" type="line"/>
      <point x="1152" y="-365"/>
      <point x="1141" y="-359"/>
    </contour>
  </outline>
</glyph>
<glyph name="ModApos" format="2">
  <advance width="457"/>
  <unicode hex="02BC"/>
  <outline>
    <contour>
      <point x="365" y="1236"/>
      <point x="372" y="1328" type="curve"/>
      <point x="377" y="1396"/>
      <point x="356" y="1466"/>
      <point x="283" y="1497" type="curve"/>
      <point x="241" y="1502"/>
      <point x="101" y="1458"/>
      <point x="80" y="1432" type="curve"/>
      <point x="91" y="1390" type="line"/>
      <point x="196" y="1389"/>
      <point x="236" y="1328"/>
      <point x="231" y="1257" type="curve" smooth="yes"/>
      <point x="227" y="1196"/>
      <point x="198" y="1144"/>
      <point x="142" y="1093" type="curve"/>
      <point x="181" y="1060" type="line"/>
      <point x="310" y="1141"/>
    </contour>
  </outline>
</glyph>
<glyph name="ModRevGlottalStop" format="2">
  <advance width="623"/>
  <unicode hex="02C1"/>
  <anchor x="318" y="750" name="L"/>
  <anchor x="318" y="1620" name="U"/>
  <outline>
    <contour>
      <point x="349" y="797"/>
      <point x="374" y="810" type="curve"/>
      <point x="374" y="918" type="line" smooth="yes"/>
      <point x="374" y="1103"/>
      <point x="143" y="1190"/>
      <point x="143" y="1328" type="curve" smooth="yes"/>
      <point x="143" y="1426"/>
      <point x="210" y="1482"/>
      <point x="283" y="1482" type="curve" smooth="yes"/>
      <point x="388" y="1482"/>
      <point x="458" y="1422"/>
      <point x="461" y="1320" type="curve"/>
      <point x="507" y="1319"/>
      <point x="586" y="1345"/>
      <point x="591" y="1358" type="curve"/>
      <point x="578" y="1474"/>
      <point x="485" y="1550"/>
      <point x="321" y="1550" type="curve" smooth="yes"/>
      <point x="166" y="1550"/>
      <point x="18" y="1461"/>
      <point x="18" y="1313" type="curve" smooth="yes"/>
      <point x="18" y="1147"/>
      <point x="249" y="1063"/>
      <point x="249" y="898" type="curve" smooth="yes"/>
      <point x="249" y="801" type="line"/>
      <point x="272" y="779" type="line"/>
      <point x="298" y="785"/>
    </contour>
  </outline>
</glyph>
<glyph name="ModUpArrwhd" format="2">
  <advance width="640"/>
  <unicode hex="02C4"/>
  <outline>
    <contour>
      <point x="600" y="931" type="curve"/>
      <point x="352" y="1436" type="line"/>
      <point x="328" y="1425"/>
      <point x="288" y="1400"/>
      <point x="266" y="1380" type="curve"/>
      <point x="40" y="903" type="line"/>
      <point x="55" y="886" type="line"/>
      <point x="72" y="893"/>
      <point x="126" y="914"/>
      <point x="144" y="931" type="curve"/>
      <point x="304" y="1276" type="line"/>
      <point x="495" y="903" type="line"/>
      <point x="518" y="886" type="line"/>
      <point x="547" y="897"/>
      <point x="580" y="915"/>
    </contour>
  </outline>
</glyph>
<glyph name="ModTriangularColon" format="2">
  <advance width="532"/>
  <unicode hex="02D0"/>
  <anchor x="266" y="-100" name="L"/>
  <anchor x="266" y="1050" name="U"/>
  <outline>
    <contour>
      <point x="266" y="619" type="line"/>
      <point x="422" y="930" type="line"/>
      <point x="110" y="930" type="line"/>
    </contour>
    <contour>
      <point x="266" y="311" type="line"/>
      <point x="110" y="0" type="line"/>
      <point x="422" y="0" type="line"/>
    </contour>
  </outline>
</glyph>
<glyph name="Breve" format="2">
  <advance width="730"/>
  <unicode hex="02D8"/>
  <anchor x="365" y="1370" name="U"/>
  <outline>
    <contour>
      <point x="610" y="1145"/>
      <point x="690" y="1360" type="curve"/>
      <point x="674" y="1384"/>
      <point x="660" y="1395"/>
      <point x="637" y="1405" type="curve"/>
      <point x="573" y="1253"/>
      <point x="457" y="1202"/>
      <point x="363" y="1202" type="curve" smooth="yes"/>
      <point x="274" y="1202"/>
      <point x="159" y="1253"/>
      <point x="93" y="1405" type="curve"/>
      <point x="71" y="1395"/>
      <point x="56" y="1384"/>
      <point x="40" y="1360" type="curve"/>
      <point x="120" y="1145"/>
      <point x="236" y="1070"/>
      <point x="367" y="1070" type="curve" smooth="yes"/>
      <point x="487" y="1070"/>
    </contour>
  </outline>
</glyph>
<glyph name="ModRhoticHook" format="2">
  <advance width="268"/>
  <unicode hex="02DE"/>
  <anchor x="500" y="900" name="R"/>
  <anchor x="0" y="900" name="R_"/>
  <outline>
    <contour>
      <point x="170" y="938" type="curve"/>
      <point x="142" y="960" type="line"/>
      <point x="64" y="897"/>
      <point x="-75" y="824"/>
      <point x="-241" y="766" type="curve"/>
      <point x="-213" y="683" type="line"/>
      <point x="-137" y="727"/>
      <point x="-40" y="771"/>
      <point x="28" y="786" type="curve"/>
      <point x="18" y="763"/>
      <point x="11" y="736"/>
      <point x="11" y="706" type="curve" smooth="yes"/>
      <point x="11" y="618"/>
      <point x="56" y="586"/>
      <point x="90" y="586" type="curve" smooth="yes"/>
      <point x="142" y="586"/>
      <point x="192" y="612"/>
      <point x="288" y="685" type="curve"/>
      <point x="276" y="728" type="line"/>
      <point x="215" y="699"/>
      <point x="183" y="692"/>
      <point x="157" y="691" type="curve" smooth="yes"/>
      <point x="121" y="690"/>
      <point x="103" y="718"/>
      <point x="104" y="767" type="curve" smooth="yes"/>
      <point x="105" y="804"/>
      <point x="117" y="865"/>
    </contour>
  </outline>
</glyph>
<glyph name="ModYangDepartingToneMrk" format="2">
  <advance width="613"/>
  <unicode hex="02EB"/>
  <outline>
    <contour>
      <point x="526" y="449"/>
      <point x="533" y="475" type="curve"/>
      <point x="508" y="502" type="line"/>
      <point x="165" y="502" type="line"/>
      <point x="151" y="475"/>
      <point x="144" y="463"/>
      <point x="136" y="436" type="curve"/>
      <point x="159" y="412" type="line"/>
      <point x="506" y="412" type="line"/>
      <point x="518" y="434"/>
    </contour>
    <contour>
      <point x="163" y="185"/>
      <point x="190" y="201" type="curve"/>
      <point x="190" y="721" type="line"/>
      <point x="163" y="745" type="line"/>
      <point x="137" y="737"/>
      <point x="123" y="728"/>
      <point x="100" y="715" type="curve"/>
      <point x="100" y="192" type="line"/>
      <point x="125" y="170" type="line"/>
      <point x="151" y="178"/>
    </contour>
  </outline>
</glyph>
<glyph name="ModLowLftArrwhd" format="2">
  <advance width="518"/>
  <unicode hex="02F1"/>
  <outline>
    <contour>
      <point x="451" y="-224"/>
      <point x="453" y="-211" type="curve"/>
      <point x="442" y="-200" type="line"/>
      <point x="68" y="-340" type="line"/>
      <point x="63" y="-352"/>
      <point x="57" y="-372"/>
      <point x="55" y="-384" type="curve"/>
      <point x="66" y="-394" type="line"/>
      <point x="441" y="-255" type="line"/>
      <point x="444" y="-244"/>
    </contour>
    <contour>
      <point x="441" y="-508"/>
      <point x="453" y="-496" type="curve"/>
      <point x="446" y="-480" type="line"/>
      <point x="68" y="-340" type="line"/>
      <point x="63" y="-352"/>
      <point x="57" y="-372"/>
      <point x="55" y="-384" type="curve"/>
      <point x="66" y="-394" type="line"/>
      <point x="416" y="-525" type="line"/>
      <point x="435" y="-514"/>
    </contour>
  </outline>
</glyph>
<glyph name="ModLowRing" format="2">
  <advance width="372"/>
  <unicode hex="02F3"/>
  <outline>
    <contour>
      <point x="372" y="-401"/>
      <point x="372" y="-266" type="curve" smooth="yes"/>
      <point x="372" y="-182"/>
      <point x="303" y="-110"/>
      <point x="217" y="-110" type="curve" smooth="yes"/>
      <point x="114" y="-110"/>
      <point x="0" y="-209"/>
      <point x="0" y="-346" type="curve" smooth="yes"/>
      <point x="0" y="-430"/>
      <point x="65" y="-500"/>
      <point x="155" y="-500" type="curve" smooth="yes"/>
      <point x="256" y="-500"/>
    </contour>
    <contour>
      <point x="282" y="-243"/>
      <point x="282" y="-307" type="curve" smooth="yes"/>
      <point x="282" y="-383"/>
      <point x="229" y="-424"/>
      <point x="176" y="-424" type="curve" smooth="yes"/>
      <point x="123" y="-424"/>
      <point x="90" y="-366"/>
      <point x="90" y="-305" type="curve" smooth="yes"/>
      <point x="90" y="-233"/>
      <point x="141" y="-186"/>
      <point x="196" y="-186" type="curve" smooth="yes"/>
      <point x="249" y="-186"/>
    </contour>
  </outline>
</glyph>
<glyph name="ModMiddleDblAcuteAccent" format="2">
  <advance width="748"/>
  <unicode hex="02F6"/>
  <outline>
    <contour>
      <point x="408" y="498" type="curve"/>
      <point x="668" y="874" type="line"/>
      <point x="646" y="915" type="line"/>
      <point x="617" y="925"/>
      <point x="560" y="936"/>
      <point x="527" y="940" type="curve"/>
      <point x="351" y="525" type="line"/>
      <point x="375" y="509"/>
      <point x="383" y="503"/>
    </contour>
    <contour>
      <point x="117" y="498" type="curve"/>
      <point x="377" y="874" type="line"/>
      <point x="355" y="915" type="line"/>
      <point x="328" y="925"/>
      <point x="269" y="936"/>
      <point x="236" y="940" type="curve"/>
      <point x="60" y="525" type="line"/>
      <point x="86" y="509"/>
      <point x="95" y="503"/>
    </contour>
  </outline>
</glyph>
<glyph name="ModShelf" format="2">
  <advance width="1164"/>
  <unicode hex="02FD"/>
  <outline>
    <contour>
      <point x="1017" y="-55"/>
      <point x="995" y="-65" type="curve"/>
      <point x="995" y="-247" type="line"/>
      <point x="170" y="-247" type="line"/>
      <point x="170" y="-59" type="line"/>
      <point x="144" y="-34" type="line"/>
      <point x="117" y="-40"/>
      <point x="72" y="-55"/>
      <point x="50" y="-65" type="curve"/>
      <point x="50" y="-336" type="line"/>
      <point x="75" y="-358" type="line"/>
      <point x="1015" y="-358" type="line"/>
      <point x="1070" y="-348"/>
      <point x="1086" y="-339"/>
      <point x="1115" y="-326" type="curve"/>
      <point x="1115" y="-301"/>
      <point x="1114" y="-300"/>
      <point x="1115" y="-59" type="curve"/>
      <point x="1089" y="-34" type="line"/>
      <point x="1062" y="-40"/>
    </contour>
  </outline>
</glyph>
<glyph name="CombRingAbv" format="2">
  <unicode hex="030A"/>
  <anchor x="-515" y="1490" name="U"/>
  <anchor x="-515" y="1050" name="_U"/>
  <outline>
    <contour>
      <point x="-329" y="1149"/>
      <point x="-329" y="1284" type="curve"/>
      <point x="-329" y="1368"/>
      <point x="-398" y="1440"/>
      <point x="-484" y="1440" type="curve" smooth="yes"/>
      <point x="-587" y="1440"/>
      <point x="-701" y="1341"/>
      <point x="-701" y="1204" type="curve" smooth="yes"/>
      <point x="-701" y="1120"/>
      <point x="-636" y="1050"/>
      <point x="-546" y="1050" type="curve" smooth="yes"/>
      <point x="-445" y="1050"/>
    </contour>
    <contour>
      <point x="-419" y="1307"/>
      <point x="-419" y="1243" type="curve"/>
      <point x="-419" y="1167"/>
      <point x="-472" y="1126"/>
      <point x="-525" y="1126" type="curve" smooth="yes"/>
      <point x="-578" y="1126"/>
      <point x="-611" y="1184"/>
      <point x="-611" y="1245" type="curve" smooth="yes"/>
      <point x="-611" y="1317"/>
      <point x="-560" y="1364"/>
      <point x="-505" y="1364" type="curve" smooth="yes"/>
      <point x="-452" y="1364"/>
    </contour>
  </outline>
</glyph>
<glyph name="CombCaron" format="2">
  <unicode hex="030C"/>
  <anchor x="-514" y="1450" name="U"/>
  <anchor x="-514" y="1050" name="_U"/>
  <outline>
    <contour>
      <point x="-460" y="1071" type="line"/>
      <point x="-198" y="1428" type="line"/>
      <point x="-214" y="1455"/>
      <point x="-218" y="1463"/>
      <point x="-241" y="1475" type="curve"/>
      <point x="-511" y="1224" type="line"/>
      <point x="-786" y="1475" type="line"/>
      <point x="-808" y="1463"/>
      <point x="-812" y="1455"/>
      <point x="-831" y="1428" type="curve"/>
      <point x="-567" y="1071" type="line"/>
    </contour>
  </outline>
</glyph>
<glyph name="CombVertLineAbv" format="2">
  <unicode hex="030D"/>
  <anchor x="-495" y="1510" name="U"/>
  <anchor x="-495" y="1050" name="_U"/>
  <outline>
    <contour>
      <point x="-467" y="1078"/>
      <point x="-440" y="1091" type="curve"/>
      <point x="-440" y="1456" type="line"/>
      <point x="-467" y="1480" type="line"/>
      <point x="-493" y="1474"/>
      <point x="-527" y="1460"/>
      <point x="-550" y="1450" type="curve"/>
      <point x="-550" y="1082" type="line"/>
      <point x="-525" y="1060" type="line"/>
      <point x="-499" y="1066"/>
    </contour>
  </outline>
</glyph>
<glyph name="CombDblGrave" format="2">
  <unicode hex="030F"/>
  <anchor x="-540" y="1533" name="U"/>
  <anchor x="-540" y="1050" name="_U"/>
  <outline>
    <contour>
      <point x="-920" y="1423" type="line"/>
      <point x="-660" y="1047" type="line"/>
      <point x="-635" y="1052"/>
      <point x="-627" y="1058"/>
      <point x="-603" y="1074" type="curve"/>
      <point x="-779" y="1489" type="line"/>
      <point x="-812" y="1485"/>
      <point x="-869" y="1474"/>
      <point x="-898" y="1464" type="curve"/>
    </contour>
    <contour>
      <point x="-629" y="1423" type="line"/>
      <point x="-369" y="1047" type="line"/>
      <point x="-347" y="1052"/>
      <point x="-338" y="1058"/>
      <point x="-312" y="1074" type="curve"/>
      <point x="-488" y="1489" type="line"/>
      <point x="-521" y="1485"/>
      <point x="-580" y="1474"/>
      <point x="-607" y="1464" type="curve"/>
    </contour>
  </outline>
</glyph>
<glyph name="CombCandrabindu" format="2">
  <unicode hex="0310"/>
  <anchor x="-515" y="1690" name="U"/>
  <anchor x="-515" y="1050" name="_U"/>
  <outline>
    <contour>
      <point x="-270" y="1145"/>
      <point x="-190" y="1360" type="curve"/>
      <point x="-206" y="1384"/>
      <point x="-220" y="1395"/>
      <point x="-243" y="1405" type="curve"/>
      <point x="-307" y="1253"/>
      <point x="-423" y="1202"/>
      <point x="-517" y="1202" type="curve" smooth="yes"/>
      <point x="-606" y="1202"/>
      <point x="-721" y="1253"/>
      <point x="-787" y="1405" type="curve"/>
      <point x="-809" y="1395"/>
      <point x="-824" y="1384"/>
      <point x="-840" y="1360" type="curve"/>
      <point x="-760" y="1145"/>
      <point x="-644" y="1070"/>
      <point x="-513" y="1070" type="curve" smooth="yes"/>
      <point x="-393" y="1070"/>
    </contour>
    <contour>
      <point x="-428" y="1378"/>
      <point x="-428" y="1443" type="curve"/>
      <point x="-428" y="1497"/>
      <point x="-452" y="1526"/>
      <point x="-502" y="1526" type="curve" smooth="yes"/>
      <point x="-557" y="1526"/>
      <point x="-602" y="1474"/>
      <point x="-602" y="1408" type="curve" smooth="yes"/>
      <point x="-602" y="1354"/>
      <point x="-580" y="1324"/>
      <point x="-529" y="1324" type="curve" smooth="yes"/>
      <point x="-471" y="1324"/>
    </contour>
  </outline>
</glyph>
<glyph name="CombUpTackBlw" format="2">
  <unicode hex="031D"/>
  <anchor x="-515" y="-600" name="L"/>
  <anchor x="-515" y="-100" name="_L"/>
  <outline>
    <contour>
      <point x="-312" y="-443"/>
      <point x="-305" y="-417" type="curve"/>
      <point x="-330" y="-390" type="line"/>
      <point x="-696" y="-390" type="line"/>
      <point x="-710" y="-417"/>
      <point x="-717" y="-429"/>
      <point x="-725" y="-456" type="curve"/>
      <point x="-702" y="-480" type="line"/>
      <point x="-332" y="-480" type="line"/>
      <point x="-320" y="-458"/>
    </contour>
    <contour>
      <point x="-497" y="-445"/>
      <point x="-470" y="-429" type="curve"/>
      <point x="-470" y="-154" type="line"/>
      <point x="-497" y="-130" type="line"/>
      <point x="-523" y="-138"/>
      <point x="-537" y="-147"/>
      <point x="-560" y="-160" type="curve"/>
      <point x="-560" y="-438" type="line"/>
      <point x="-535" y="-460" type="line"/>
      <point x="-509" y="-452"/>
    </contour>
  </outline>
</glyph>
<glyph name="CombMinusSgnBlw" format="2">
  <unicode hex="0320"/>
  <anchor x="-515" y="-450" name="L"/>
  <anchor x="-515" y="-100" name="_L"/>
  <outline>
    <contour>
      <point x="-292" y="-308"/>
      <point x="-285" y="-282" type="curve"/>
      <point x="-310" y="-255" type="line"/>
      <point x="-716" y="-255" type="line"/>
      <point x="-730" y="-282"/>
      <point x="-737" y="-294"/>
      <point x="-745" y="-321" type="curve"/>
      <point x="-722" y="-345" type="line"/>
      <point x="-312" y="-345" type="line"/>
      <point x="-300" y="-323"/>
    </contour>
  </outline>
</glyph>
<glyph name="CombPalHook" format="2">
  <unicode hex="0321"/>
  <outline>
    <contour>
      <point x="-330" y="-194" type="curve"/>
      <point x="-372" y="-210"/>
      <point x="-444" y="-259"/>
      <point x="-467" y="-287" type="curve"/>
      <point x="-468" y="-294"/>
      <point x="-468" y="-300"/>
      <point x="-468" y="-307" type="curve" smooth="yes"/>
      <point x="-468" y="-411"/>
      <point x="-381" y="-500"/>
      <point x="-273" y="-500" type="curve" smooth="yes"/>
      <point x="-171" y="-500"/>
      <point x="-30" y="-452"/>
      <point x="-30" y="-167" type="curve" smooth="yes"/>
      <point x="-30" y="37" type="line"/>
      <point x="-60" y="26"/>
      <point x="-90" y="14"/>
      <point x="-120" y="3" type="curve"/>
      <point x="-120" y="-196" type="line" smooth="yes"/>
      <point x="-120" y="-359"/>
      <point x="-161" y="-405"/>
      <point x="-227" y="-405" type="curve" smooth="yes"/>
      <point x="-268" y="-405"/>
      <point x="-321" y="-366"/>
      <point x="-321" y="-292" type="curve" smooth="yes"/>
      <point x="-321" y="-271"/>
      <point x="-317" y="-247"/>
      <point x="-307" y="-221" type="curve"/>
      <point x="-314" y="-210"/>
      <point x="-325" y="-200"/>
    </contour>
  </outline>
</glyph>
<glyph name="CombDiaerBlw" format="2">
  <unicode hex="0324"/>
  <anchor x="-515" y="-600" name="L"/>
  <anchor x="-515" y="-100" name="_L"/>
  <outline>
    <contour>
      <point x="-615" y="-354"/>
      <point x="-615" y="-279" type="curve"/>
      <point x="-615" y="-217"/>
      <point x="-643" y="-184"/>
      <point x="-700" y="-184" type="curve" smooth="yes"/>
      <point x="-763" y="-184"/>
      <point x="-815" y="-244"/>
      <point x="-815" y="-320" type="curve" smooth="yes"/>
      <point x="-815" y="-381"/>
      <point x="-790" y="-416"/>
      <point x="-731" y="-416" type="curve" smooth="yes"/>
      <point x="-665" y="-416"/>
    </contour>
    <contour>
      <point x="-215" y="-354"/>
      <point x="-215" y="-279" type="curve"/>
      <point x="-215" y="-217"/>
      <point x="-243" y="-184"/>
      <point x="-300" y="-184" type="curve" smooth="yes"/>
      <point x="-363" y="-184"/>
      <point x="-415" y="-244"/>
      <point x="-415" y="-320" type="curve" smooth="yes"/>
      <point x="-415" y="-381"/>
      <point x="-390" y="-416"/>
      <point x="-331" y="-416" type="curve" smooth="yes"/>
      <point x="-265" y="-416"/>
    </contour>
  </outline>
</glyph>
<glyph name="CombRingBlw" format="2">
  <unicode hex="0325"/>
  <anchor x="-515" y="-650" name="L"/>
  <anchor x="-515" y="-100" name="_L"/>
  <outline>
    <contour>
      <point x="-329" y="-401"/>
      <point x="-329" y="-266" type="curve"/>
      <point x="-329" y="-182"/>
      <point x="-398" y="-110"/>
      <point x="-484" y="-110" type="curve" smooth="yes"/>
      <point x="-587" y="-110"/>
      <point x="-701" y="-209"/>
      <point x="-701" y="-346" type="curve" smooth="yes"/>
      <point x="-701" y="-430"/>
      <point x="-636" y="-500"/>
      <point x="-546" y="-500" type="curve" smooth="yes"/>
      <point x="-445" y="-500"/>
    </contour>
    <contour>
      <point x="-419" y="-243"/>
      <point x="-419" y="-307" type="curve"/>
      <point x="-419" y="-383"/>
      <point x="-472" y="-424"/>
      <point x="-525" y="-424" type="curve" smooth="yes"/>
      <point x="-578" y="-424"/>
      <point x="-611" y="-366"/>
      <point x="-611" y="-305" type="curve" smooth="yes"/>
      <point x="-611" y="-233"/>
      <point x="-560" y="-186"/>
      <point x="-505" y="-186" type="curve" smooth="yes"/>
      <point x="-452" y="-186"/>
    </contour>
  </outline>
</glyph>
<glyph name="CombOgonek" format="2">
  <unicode hex="0328"/>
  <anchor x="-514" y="-600" name="L"/>
  <anchor x="-464" y="0" name="_O"/>
  <outline>
    <contour>
      <point x="-382" y="-371"/>
      <point x="-325" y="-299" type="curve"/>
      <point x="-349" y="-262" type="line"/>
      <point x="-405" y="-313"/>
      <point x="-456" y="-336"/>
      <point x="-489" y="-336" type="curve" smooth="yes"/>
      <point x="-540" y="-336"/>
      <point x="-575" y="-313"/>
      <point x="-575" y="-264" type="curve" smooth="yes"/>
      <point x="-575" y="-201"/>
      <point x="-543" y="-94"/>
      <point x="-351" y="24" type="curve"/>
      <point x="-396" y="43" type="line"/>
      <point x="-596" y="-65"/>
      <point x="-704" y="-180"/>
      <point x="-704" y="-299" type="curve" smooth="yes"/>
      <point x="-704" y="-418"/>
      <point x="-626" y="-444"/>
      <point x="-548" y="-444" type="curve" smooth="yes"/>
      <point x="-482" y="-444"/>
    </contour>
  </outline>
</glyph>
<glyph name="CombTildeOverlay" format="2">
  <unicode hex="0334"/>
  <outline>
    <contour>
      <point x="-221" y="458"/>
      <point x="-174" y="566" type="curve"/>
      <point x="-228" y="589" type="line"/>
      <point x="-273" y="511"/>
      <point x="-322" y="466"/>
      <point x="-373" y="466" type="curve" smooth="yes"/>
      <point x="-437" y="466"/>
      <point x="-516" y="579"/>
      <point x="-617" y="579" type="curve" smooth="yes"/>
      <point x="-721" y="579"/>
      <point x="-809" y="462"/>
      <point x="-856" y="353" type="curve"/>
      <point x="-803" y="333" type="line"/>
      <point x="-754" y="407"/>
      <point x="-713" y="454"/>
      <point x="-660" y="454" type="curve" smooth="yes"/>
      <point x="-582" y="454"/>
      <point x="-506" y="341"/>
      <point x="-414" y="341" type="curve" smooth="yes"/>
      <point x="-310" y="341"/>
    </contour>
  </outline>
</glyph>
<glyph name="CombSqrBlw" format="2">
  <unicode hex="033B"/>
  <anchor x="-515" y="-600" name="L"/>
  <anchor x="-515" y="-100" name="_L"/>
  <outline>
    <contour>
      <point x="-765" y="-200" type="curve"/>
      <point x="-765" y="-456" type="line"/>
      <point x="-743" y="-480" type="line"/>
      <point x="-328" y="-480" type="line"/>
      <point x="-302" y="-466"/>
      <point x="-283" y="-448"/>
      <point x="-265" y="-430" type="curve"/>
      <point x="-265" y="-174" type="line"/>
      <point x="-287" y="-150" type="line"/>
      <point x="-702" y="-150" type="line"/>
      <point x="-728" y="-164"/>
      <point x="-747" y="-182"/>
    </contour>
    <contour>
      <point x="-685" y="-230" type="line"/>
      <point x="-345" y="-230" type="line"/>
      <point x="-345" y="-400" type="line"/>
      <point x="-685" y="-400" type="line"/>
    </contour>
  </outline>
</glyph>
<glyph name="CombGrDialTonos" format="2">
  <unicode hex="0344"/>
  <anchor x="-525" y="1050" name="_U"/>
  <outline>
    <contour>
      <point x="-146" y="1168"/>
      <point x="-156" y="1241" type="curve"/>
      <point x="-162" y="1289"/>
      <point x="-193" y="1313"/>
      <point x="-236" y="1313" type="curve" smooth="yes"/>
      <point x="-316" y="1313"/>
      <point x="-357" y="1227"/>
      <point x="-347" y="1153" type="curve"/>
      <point x="-338" y="1108"/>
      <point x="-310" y="1084"/>
      <point x="-267" y="1084" type="curve" smooth="yes"/>
      <point x="-185" y="1084"/>
    </contour>
    <contour>
      <point x="-571" y="1084" type="curve"/>
      <point x="-243" y="1506" type="line"/>
      <point x="-274" y="1541" type="line"/>
      <point x="-325" y="1529"/>
      <point x="-407" y="1508"/>
      <point x="-448" y="1492" type="curve"/>
      <point x="-626" y="1117" type="line"/>
      <point x="-602" y="1097"/>
      <point x="-593" y="1089"/>
    </contour>
    <contour>
      <point x="-674" y="1168"/>
      <point x="-684" y="1241" type="curve"/>
      <point x="-693" y="1289"/>
      <point x="-721" y="1313"/>
      <point x="-764" y="1313" type="curve" smooth="yes"/>
      <point x="-846" y="1313"/>
      <point x="-885" y="1227"/>
      <point x="-875" y="1153" type="curve" smooth="yes"/>
      <point x="-869" y="1108"/>
      <point x="-840" y="1084"/>
      <point x="-795" y="1084" type="curve" smooth="yes"/>
      <point x="-715" y="1084"/>
    </contour>
  </outline>
</glyph>
<glyph name="CombLftRtArrwBlw" format="2">
  <unicode hex="034D"/>
  <anchor x="-515" y="-600" name="L"/>
  <anchor x="-515" y="-100" name="_L"/>
  <outline>
    <contour>
      <point x="-282" y="-308"/>
      <point x="-275" y="-282" type="curve"/>
      <point x="-300" y="-255" type="line"/>
      <point x="-726" y="-255" type="line"/>
      <point x="-740" y="-282"/>
      <point x="-747" y="-294"/>
      <point x="-755" y="-321" type="curve"/>
      <point x="-732" y="-345" type="line"/>
      <point x="-302" y="-345" type="line"/>
      <point x="-290" y="-323"/>
    </contour>
    <contour>
      <point x="-408" y="-125" type="line"/>
      <point x="-301" y="-300" type="line"/>
      <point x="-408" y="-475" type="line"/>
      <point x="-352" y="-500" type="line"/>
      <point x="-199" y="-300" type="line"/>
      <point x="-352" y="-100" type="line"/>
    </contour>
    <contour>
      <point x="-622" y="-475" type="line"/>
      <point x="-729" y="-300" type="line"/>
      <point x="-622" y="-125" type="line"/>
      <point x="-678" y="-100" type="line"/>
      <point x="-831" y="-300" type="line"/>
      <point x="-678" y="-500" type="line"/>
    </contour>
  </outline>
</glyph>
<glyph name="CombUpArrwBlw" format="2">
  <unicode hex="034E"/>
  <anchor x="-517" y="-600" name="L"/>
  <anchor x="-517" y="-100" name="_L"/>
  <outline>
    <contour>
      <point x="-497" y="-485"/>
      <point x="-470" y="-469" type="curve"/>
      <point x="-470" y="-240" type="line"/>
      <point x="-324" y="-329" type="line"/>
      <point x="-298" y="-273" type="line"/>
      <point x="-515" y="-100" type="line"/>
      <point x="-736" y="-273" type="line"/>
      <point x="-710" y="-329" type="line"/>
      <point x="-560" y="-240" type="line"/>
      <point x="-560" y="-478" type="line"/>
      <point x="-535" y="-500" type="line"/>
      <point x="-509" y="-492"/>
    </contour>
  </outline>
</glyph>
<glyph name="CombXBlw" format="2">
  <unicode hex="0353"/>
  <anchor x="-515" y="-600" name="L"/>
  <anchor x="-515" y="-100" name="_L"/>
  <outline>
    <contour>
      <point x="-220" y="-481"/>
      <point x="-209" y="-459" type="curve"/>
      <point x="-451" y="-280" type="line"/>
      <point x="-558" y="-280" type="line"/>
      <point x="-802" y="-459" type="line"/>
      <point x="-789" y="-480"/>
      <point x="-775" y="-499"/>
      <point x="-757" y="-514" type="curve"/>
      <point x="-506" y="-386" type="line"/>
      <point x="-252" y="-514" type="line"/>
      <point x="-232" y="-498"/>
    </contour>
    <contour>
      <point x="-455" y="-363" type="line"/>
      <point x="-213" y="-186" type="line"/>
      <point x="-224" y="-163"/>
      <point x="-239" y="-142"/>
      <point x="-256" y="-129" type="curve"/>
      <point x="-506" y="-260" type="line"/>
      <point x="-761" y="-129" type="line"/>
      <point x="-777" y="-143"/>
      <point x="-795" y="-167"/>
      <point x="-806" y="-186" type="curve"/>
      <point x="-562" y="-363" type="line"/>
    </contour>
  </outline>
</glyph>
<glyph name="CombLftArrwhdBlw" format="2">
  <unicode hex="0354"/>
  <anchor x="-524" y="-600" name="L"/>
  <anchor x="-524" y="-100" name="_L"/>
  <outline>
    <contour>
      <point x="-228" y="-164"/>
      <point x="-223" y="-141" type="curve"/>
      <point x="-243" y="-121" type="line"/>
      <point x="-820" y="-337" type="line"/>
      <point x="-829" y="-359"/>
      <point x="-839" y="-395"/>
      <point x="-844" y="-417" type="curve"/>
      <point x="-824" y="-436" type="line"/>
      <point x="-246" y="-221" type="line"/>
      <point x="-240" y="-201"/>
    </contour>
    <contour>
      <point x="-246" y="-605"/>
      <point x="-223" y="-583" type="curve"/>
      <point x="-236" y="-554" type="line"/>
      <point x="-820" y="-337" type="line"/>
      <point x="-829" y="-359"/>
      <point x="-839" y="-395"/>
      <point x="-844" y="-417" type="curve"/>
      <point x="-824" y="-436" type="line"/>
      <point x="-290" y="-636" type="line"/>
      <point x="-257" y="-616"/>
    </contour>
  </outline>
</glyph>
<glyph name="CombRtArrwhdUpArrwhdBlw" format="2">
  <unicode hex="0356"/>
  <anchor x="-515" y="-600" name="L"/>
  <anchor x="-515" y="-100" name="_L"/>
  <outline>
    <contour>
      <point x="-391" y="-364"/>
      <point x="-386" y="-341" type="curve"/>
      <point x="-404" y="-321" type="line"/>
      <point x="-940" y="-121" type="line"/>
      <point x="-959" y="-137"/>
      <point x="-983" y="-154"/>
      <point x="-1007" y="-173" type="curve"/>
      <point x="-994" y="-205" type="line"/>
      <point x="-411" y="-421" type="line"/>
      <point x="-401" y="-400"/>
    </contour>
    <contour>
      <point x="-391" y="-364"/>
      <point x="-386" y="-341" type="curve"/>
      <point x="-404" y="-321" type="line"/>
      <point x="-983" y="-537" type="line"/>
      <point x="-991" y="-556"/>
      <point x="-1000" y="-595"/>
      <point x="-1007" y="-616" type="curve"/>
      <point x="-987" y="-636" type="line"/>
      <point x="-411" y="-421" type="line"/>
      <point x="-401" y="-400"/>
    </contour>
    <contour>
      <point x="44" y="-627" type="curve"/>
      <point x="-204" y="-122" type="line"/>
      <point x="-228" y="-133"/>
      <point x="-268" y="-158"/>
      <point x="-290" y="-178" type="curve"/>
      <point x="-516" y="-655" type="line"/>
      <point x="-501" y="-672" type="line"/>
      <point x="-484" y="-665"/>
      <point x="-430" y="-644"/>
      <point x="-412" y="-627" type="curve"/>
      <point x="-252" y="-282" type="line"/>
      <point x="-61" y="-655" type="line"/>
      <point x="-38" y="-672" type="line"/>
      <point x="-9" y="-661"/>
      <point x="24" y="-643"/>
    </contour>
  </outline>
</glyph>
<glyph name="CombDblBreveBlw" format="2">
  <unicode hex="035C"/>
  <anchor x="0" y="-860" name="L"/>
  <anchor x="0" y="1050" name="U"/>
  <outline>
    <contour>
      <point x="641" y="-780"/>
      <point x="818" y="-565" type="curve"/>
      <point x="791" y="-541"/>
      <point x="776" y="-530"/>
      <point x="737" y="-520" type="curve"/>
      <point x="587" y="-672"/>
      <point x="288" y="-726"/>
      <point x="-4" y="-723" type="curve" smooth="yes"/>
      <point x="-286" y="-720"/>
      <point x="-584" y="-672"/>
      <point x="-737" y="-520" type="curve"/>
      <point x="-775" y="-530"/>
      <point x="-791" y="-541"/>
      <point x="-818" y="-565" type="curve"/>
      <point x="-641" y="-780"/>
      <point x="-332" y="-865"/>
      <point x="3" y="-865" type="curve" smooth="yes"/>
      <point x="319" y="-865"/>
    </contour>
  </outline>
</glyph>
<glyph name="CombDblBreve" format="2">
  <unicode hex="035D"/>
  <anchor x="0" y="1930" name="U"/>
  <outline>
    <contour>
      <point x="641" y="1670"/>
      <point x="818" y="1885" type="curve"/>
      <point x="791" y="1909"/>
      <point x="776" y="1920"/>
      <point x="737" y="1930" type="curve"/>
      <point x="587" y="1778"/>
      <point x="288" y="1724"/>
      <point x="-4" y="1727" type="curve" smooth="yes"/>
      <point x="-286" y="1730"/>
      <point x="-584" y="1778"/>
      <point x="-737" y="1930" type="curve"/>
      <point x="-775" y="1920"/>
      <point x="-791" y="1909"/>
      <point x="-818" y="1885" type="curve"/>
      <point x="-641" y="1670"/>
      <point x="-332" y="1585"/>
      <point x="3" y="1585" type="curve" smooth="yes"/>
      <point x="319" y="1585"/>
    </contour>
  </outline>
</glyph>
<glyph name="CombDblMacronBlw" format="2">
  <unicode hex="035F"/>
  <anchor x="0" y="-800" name="L"/>
  <anchor x="0" y="1050" name="U"/>
  <outline>
    <contour>
      <point x="747" y="-613"/>
      <point x="753" y="-584" type="curve"/>
      <point x="731" y="-560" type="line"/>
      <point x="-712" y="-560" type="line"/>
      <point x="-725" y="-586"/>
      <point x="-747" y="-636"/>
      <point x="-753" y="-665" type="curve"/>
      <point x="-731" y="-690" type="line"/>
      <point x="714" y="-690" type="line"/>
      <point x="724" y="-665"/>
    </contour>
  </outline>
</glyph>
<glyph name="CombDblTilde" format="2">
  <unicode hex="0360"/>
  <anchor x="0" y="-490" name="L"/>
  <anchor x="0" y="1930" name="U"/>
  <outline>
    <contour>
      <point x="687" y="1674"/>
      <point x="770" y="1792" type="curve"/>
      <point x="705" y="1835" type="line"/>
      <point x="625" y="1737"/>
      <point x="499" y="1692"/>
      <point x="349" y="1692" type="curve" smooth="yes"/>
      <point x="206" y="1692"/>
      <point x="-60" y="1835"/>
      <point x="-268" y="1835" type="curve" smooth="yes"/>
      <point x="-502" y="1835"/>
      <point x="-687" y="1726"/>
      <point x="-770" y="1607" type="curve"/>
      <point x="-707" y="1567" type="line"/>
      <point x="-620" y="1661"/>
      <point x="-508" y="1710"/>
      <point x="-354" y="1710" type="curve" smooth="yes"/>
      <point x="-187" y="1710"/>
      <point x="74" y="1567"/>
      <point x="267" y="1567" type="curve" smooth="yes"/>
      <point x="500" y="1567"/>
    </contour>
  </outline>
</glyph>
<glyph name="CombDblInvBreve" format="2">
  <unicode hex="0361"/>
  <anchor x="0" y="-100" name="L"/>
  <anchor x="0" y="1930" name="U"/>
  <outline>
    <contour>
      <point x="-641" y="1827"/>
      <point x="-818" y="1612" type="curve"/>
      <point x="-791" y="1588"/>
      <point x="-776" y="1577"/>
      <point x="-737" y="1567" type="curve"/>
      <point x="-587" y="1719"/>
      <point x="-288" y="1773"/>
      <point x="4" y="1770" type="curve" smooth="yes"/>
      <point x="286" y="1767"/>
      <point x="584" y="1719"/>
      <point x="737" y="1567" type="curve"/>
      <point x="775" y="1577"/>
      <point x="791" y="1588"/>
      <point x="818" y="1612" type="curve"/>
      <point x="641" y="1827"/>
      <point x="332" y="1912"/>
      <point x="-3" y="1912" type="curve" smooth="yes"/>
      <point x="-319" y="1912"/>
    </contour>
  </outline>
</glyph>
<glyph name="CombDblRtArrwBlw" format="2">
  <unicode hex="0362"/>
  <anchor x="0" y="-800" name="L"/>
  <anchor x="0" y="1050" name="U"/>
  <outline>
    <contour>
      <point x="-727" y="-714"/>
      <point x="-735" y="-741" type="curve"/>
      <point x="-712" y="-765" type="line"/>
      <point x="703" y="-765" type="line"/>
      <point x="624" y="-895" type="line"/>
      <point x="680" y="-920" type="line"/>
      <point x="833" y="-720" type="line"/>
      <point x="680" y="-520" type="line"/>
      <point x="624" y="-545" type="line"/>
      <point x="703" y="-675" type="line"/>
      <point x="-706" y="-675" type="line"/>
      <point x="-720" y="-702"/>
    </contour>
  </outline>
</glyph>
<glyph name="CombLtnSmI" format="2">
  <unicode hex="0365"/>
  <anchor x="-495" y="1750" name="U"/>
  <anchor x="-495" y="1050" name="_U"/>
  <outline>
    <contour>
      <point x="-429" y="1585"/>
      <point x="-429" y="1620" type="curve" smooth="yes"/>
      <point x="-429" y="1651"/>
      <point x="-445" y="1676"/>
      <point x="-481" y="1676" type="curve" smooth="yes"/>
      <point x="-520" y="1676"/>
      <point x="-551" y="1642"/>
      <point x="-551" y="1603" type="curve" smooth="yes"/>
      <point x="-551" y="1573"/>
      <point x="-533" y="1552"/>
      <point x="-496" y="1552" type="curve" smooth="yes"/>
      <point x="-458" y="1552"/>
    </contour>
    <contour>
      <point x="-614" y="1069" type="line"/>
      <point x="-378" y="1069" type="line"/>
      <point x="-378" y="1101" type="line"/>
      <point x="-424" y="1106"/>
      <point x="-444" y="1118"/>
      <point x="-444" y="1123" type="curve" smooth="yes"/>
      <point x="-444" y="1500" type="line"/>
      <point x="-482" y="1500" type="line"/>
      <point x="-516" y="1485"/>
      <point x="-570" y="1470"/>
      <point x="-614" y="1462" type="curve"/>
      <point x="-614" y="1431" type="line"/>
      <point x="-548" y="1426"/>
      <point x="-548" y="1418"/>
      <point x="-548" y="1366" type="curve" smooth="yes"/>
      <point x="-548" y="1123" type="line" smooth="yes"/>
      <point x="-548" y="1118"/>
      <point x="-572" y="1107"/>
      <point x="-614" y="1101" type="curve"/>
    </contour>
  </outline>
</glyph>
<glyph name="CombLtnSmU" format="2">
  <unicode hex="0367"/>
  <anchor x="-495" y="1500" name="U"/>
  <anchor x="-495" y="1050" name="_U"/>
  <outline>
    <contour>
      <point x="-236" y="1114" type="curve"/>
      <point x="-244" y="1149" type="line"/>
      <point x="-269" y="1138"/>
      <point x="-291" y="1129"/>
      <point x="-301" y="1129" type="curve" smooth="yes"/>
      <point x="-308" y="1129"/>
      <point x="-309" y="1143"/>
      <point x="-309" y="1187" type="curve" smooth="yes"/>
      <point x="-309" y="1475" type="line"/>
      <point x="-333" y="1504" type="line"/>
      <point x="-376" y="1490"/>
      <point x="-425" y="1476"/>
      <point x="-477" y="1469" type="curve"/>
      <point x="-477" y="1437" type="line"/>
      <point x="-419" y="1435"/>
      <point x="-411" y="1428"/>
      <point x="-411" y="1384" type="curve" smooth="yes"/>
      <point x="-411" y="1192" type="line"/>
      <point x="-461" y="1144"/>
      <point x="-498" y="1126"/>
      <point x="-532" y="1126" type="curve" smooth="yes"/>
      <point x="-566" y="1126"/>
      <point x="-587" y="1148"/>
      <point x="-587" y="1222" type="curve" smooth="yes"/>
      <point x="-587" y="1475" type="line"/>
      <point x="-610" y="1504" type="line"/>
      <point x="-660" y="1486"/>
      <point x="-696" y="1476"/>
      <point x="-750" y="1469" type="curve"/>
      <point x="-750" y="1437" type="line"/>
      <point x="-692" y="1432"/>
      <point x="-689" y="1430"/>
      <point x="-689" y="1384" type="curve" smooth="yes"/>
      <point x="-689" y="1198" type="line" smooth="yes"/>
      <point x="-689" y="1083"/>
      <point x="-630" y="1056"/>
      <point x="-562" y="1056" type="curve" smooth="yes"/>
      <point x="-522" y="1056"/>
      <point x="-475" y="1066"/>
      <point x="-408" y="1120" type="curve"/>
      <point x="-400" y="1078"/>
      <point x="-381" y="1056"/>
      <point x="-355" y="1056" type="curve" smooth="yes"/>
      <point x="-333" y="1056"/>
      <point x="-288" y="1083"/>
    </contour>
  </outline>
</glyph>
<glyph name="CombLtnSmH" format="2">
  <unicode hex="036A"/>
  <anchor x="-495" y="1750" name="U"/>
  <anchor x="-495" y="1050" name="_U"/>
  <outline>
    <contour>
      <point x="-452" y="1069" type="line"/>
      <point x="-218" y="1069" type="line"/>
      <point x="-218" y="1101" type="line"/>
      <point x="-267" y="1107"/>
      <point x="-284" y="1117"/>
      <point x="-284" y="1123" type="curve" smooth="yes"/>
      <point x="-284" y="1397" type="line" smooth="yes"/>
      <point x="-284" y="1467"/>
      <point x="-340" y="1500"/>
      <point x="-403" y="1500" type="curve" smooth="yes"/>
      <point x="-449" y="1500"/>
      <point x="-517" y="1467"/>
      <point x="-571" y="1413" type="curve"/>
      <point x="-571" y="1732" type="line"/>
      <point x="-601" y="1757" type="line"/>
      <point x="-644" y="1738"/>
      <point x="-677" y="1728"/>
      <point x="-739" y="1717" type="curve"/>
      <point x="-739" y="1686" type="line"/>
      <point x="-679" y="1679"/>
      <point x="-673" y="1677"/>
      <point x="-673" y="1636" type="curve" smooth="yes"/>
      <point x="-673" y="1123" type="line" smooth="yes"/>
      <point x="-673" y="1117"/>
      <point x="-698" y="1107"/>
      <point x="-739" y="1101" type="curve"/>
      <point x="-739" y="1069" type="line"/>
      <point x="-505" y="1069" type="line"/>
      <point x="-505" y="1101" type="line"/>
      <point x="-545" y="1107"/>
      <point x="-571" y="1117"/>
      <point x="-571" y="1123" type="curve" smooth="yes"/>
      <point x="-571" y="1313" type="line"/>
      <point x="-520" y="1387"/>
      <point x="-466" y="1426"/>
      <point x="-429" y="1426" type="curve" smooth="yes"/>
      <point x="-400" y="1426"/>
      <point x="-386" y="1413"/>
      <point x="-386" y="1350" type="curve" smooth="yes"/>
      <point x="-386" y="1123" type="line" smooth="yes"/>
      <point x="-386" y="1117"/>
      <point x="-407" y="1107"/>
      <point x="-452" y="1101" type="curve"/>
    </contour>
  </outline>
</glyph>
<glyph name="CombLtnSmX" format="2">
  <unicode hex="036F"/>
  <anchor x="-495" y="1500" name="U"/>
  <anchor x="-495" y="1050" name="_U"/>
  <outline>
    <contour>
      <point x="-247" y="1455" type="curve"/>
      <point x="-247" y="1487" type="line"/>
      <point x="-453" y="1487" type="line"/>
      <point x="-453" y="1455" type="line"/>
      <point x="-419" y="1452"/>
      <point x="-399" y="1445"/>
      <point x="-413" y="1427" type="curve" smooth="yes"/>
      <point x="-505" y="1305" type="line"/>
      <point x="-471" y="1249" type="line"/>
      <point x="-341" y="1415" type="line" smooth="yes"/>
      <point x="-325" y="1436"/>
      <point x="-306" y="1450"/>
    </contour>
    <contour>
      <point x="-456" y="1069" type="line"/>
      <point x="-233" y="1069" type="line"/>
      <point x="-233" y="1101" type="line"/>
      <point x="-277" y="1108"/>
      <point x="-301" y="1127"/>
      <point x="-313" y="1143" type="curve" smooth="yes"/>
      <point x="-540" y="1428" type="line" smooth="yes"/>
      <point x="-553" y="1444"/>
      <point x="-534" y="1453"/>
      <point x="-499" y="1455" type="curve"/>
      <point x="-499" y="1487" type="line"/>
      <point x="-730" y="1487" type="line"/>
      <point x="-730" y="1455" type="line"/>
      <point x="-675" y="1451"/>
      <point x="-664" y="1435"/>
      <point x="-648" y="1415" type="curve" smooth="yes"/>
      <point x="-418" y="1128" type="line" smooth="yes"/>
      <point x="-404" y="1110"/>
      <point x="-429" y="1104"/>
      <point x="-456" y="1101" type="curve"/>
    </contour>
    <contour>
      <point x="-577" y="1128" type="curve" smooth="yes"/>
      <point x="-479" y="1257" type="line"/>
      <point x="-513" y="1313" type="line"/>
      <point x="-647" y="1143" type="line" smooth="yes"/>
      <point x="-661" y="1126"/>
      <point x="-680" y="1108"/>
      <point x="-736" y="1101" type="curve"/>
      <point x="-736" y="1069" type="line"/>
      <point x="-523" y="1069" type="line"/>
      <point x="-523" y="1101" type="line"/>
      <point x="-550" y="1104"/>
      <point x="-590" y="1111"/>
    </contour>
  </outline>
</glyph>
<glyph name="GrCapArchaicSampi" format="2">
  <advance width="1088"/>
  <unicode hex="0372"/>
  <anchor x="536" y="-100" name="L"/>
  <anchor x="536" y="1370" name="U"/>
  <outline>
    <contour>
      <point x="1031" y="1167"/>
      <point x="1033" y="1235" type="curve"/>
      <point x="1003" y="1260" type="line"/>
      <point x="537" y="1260" type="line"/>
      <point x="508" y="1170" type="line"/>
      <point x="865" y="1170" type="line" smooth="yes"/>
      <point x="922" y="1170"/>
      <point x="946" y="927"/>
      <point x="958" y="750" type="curve"/>
      <point x="1003" y="750" type="line"/>
      <point x="1027" y="868"/>
    </contour>
    <contour>
      <point x="212" y="1170" type="curve" smooth="yes"/>
      <point x="688" y="1170" type="line"/>
      <point x="660" y="1260" type="line"/>
      <point x="73" y="1260" type="line"/>
      <point x="59" y="1190"/>
      <point x="33" y="885"/>
      <point x="36" y="750" type="curve"/>
      <point x="84" y="750" type="line"/>
      <point x="111" y="984"/>
      <point x="171" y="1170"/>
    </contour>
    <contour>
      <point x="297" y="0" type="line"/>
      <point x="785" y="0" type="line"/>
      <point x="785" y="43" type="line"/>
      <point x="662" y="68"/>
      <point x="621" y="98"/>
      <point x="621" y="115" type="curve" smooth="yes"/>
      <point x="621" y="1177" type="line" smooth="yes"/>
      <point x="621" y="1195"/>
      <point x="674" y="1198"/>
      <point x="764" y="1217" type="curve"/>
      <point x="764" y="1260" type="line"/>
      <point x="316" y="1260" type="line"/>
      <point x="316" y="1217" type="line"/>
      <point x="412" y="1198"/>
      <point x="461" y="1193"/>
      <point x="461" y="1177" type="curve" smooth="yes"/>
      <point x="461" y="115" type="line" smooth="yes"/>
      <point x="461" y="96"/>
      <point x="420" y="68"/>
      <point x="297" y="43" type="curve"/>
    </contour>
  </outline>
</glyph>
<glyph name="GrYpo" format="2">
  <advance width="380"/>
  <unicode hex="037A"/>
  <outline>
    <contour>
      <point x="179" y="-480" type="curve" smooth="yes"/>
      <point x="203" y="-480"/>
      <point x="259" y="-465"/>
      <point x="337" y="-408" type="curve"/>
      <point x="330" y="-377" type="line"/>
      <point x="307" y="-384"/>
      <point x="295" y="-387"/>
      <point x="281" y="-386" type="curve" smooth="yes"/>
      <point x="264" y="-385"/>
      <point x="259" y="-363"/>
      <point x="260" y="-263" type="curve" smooth="yes"/>
      <point x="260" y="-139" type="line"/>
      <point x="239" y="-113" type="line"/>
      <point x="200" y="-134"/>
      <point x="146" y="-151"/>
      <point x="105" y="-162" type="curve"/>
      <point x="118" y="-193"/>
      <point x="120" y="-246"/>
      <point x="120" y="-356" type="curve" smooth="yes"/>
      <point x="120" y="-451"/>
      <point x="139" y="-480"/>
    </contour>
  </outline>
</glyph>
<glyph name="GrRevDottedLunateSigma" format="2">
  <advance width="925"/>
  <unicode hex="037D"/>
  <outline>
    <contour>
      <point x="285" y="-30"/>
      <point x="370" y="-30" type="curve" smooth="yes"/>
      <point x="623" y="-30"/>
      <point x="845" y="199"/>
      <point x="845" y="486" type="curve" smooth="yes"/>
      <point x="845" y="783"/>
      <point x="655" y="960"/>
      <point x="460" y="960" type="curve" smooth="yes"/>
      <point x="335" y="960"/>
      <point x="246" y="928"/>
      <point x="85" y="770" type="curve"/>
      <point x="124" y="729" type="line"/>
      <point x="259" y="818"/>
      <point x="313" y="828"/>
      <point x="388" y="828" type="curve" smooth="yes"/>
      <point x="548" y="828"/>
      <point x="695" y="682"/>
      <point x="695" y="455" type="curve" smooth="yes"/>
      <point x="695" y="205"/>
      <point x="575" y="80"/>
      <point x="435" y="80" type="curve" smooth="yes"/>
      <point x="319" y="80"/>
      <point x="252" y="190"/>
      <point x="216" y="190" type="curve" smooth="yes"/>
      <point x="182" y="190"/>
      <point x="94" y="79"/>
      <point x="54" y="27" type="curve"/>
      <point x="66" y="16"/>
      <point x="70" y="10"/>
      <point x="84" y="-3" type="curve"/>
      <point x="100" y="17"/>
      <point x="117" y="28"/>
      <point x="127" y="28" type="curve" smooth="yes"/>
      <point x="197" y="28"/>
    </contour>
    <contour>
      <point x="495" y="406"/>
      <point x="495" y="481" type="curve" smooth="yes"/>
      <point x="495" y="543"/>
      <point x="467" y="576"/>
      <point x="410" y="576" type="curve" smooth="yes"/>
      <point x="347" y="576"/>
      <point x="295" y="516"/>
      <point x="295" y="440" type="curve" smooth="yes"/>
      <point x="295" y="379"/>
      <point x="320" y="344"/>
      <point x="379" y="344" type="curve" smooth="yes"/>
      <point x="445" y="344"/>
    </contour>
  </outline>
</glyph>
<glyph name="GrCapDelta" format="2">
  <advance width="1174"/>
  <unicode hex="0394"/>
  <outline>
    <contour>
      <point x="1073" y="0" type="line"/>
      <point x="1094" y="51" type="line"/>
      <point x="1094" y="51"/>
      <point x="752" y="924"/>
      <point x="612" y="1317" type="curve"/>
      <point x="578" y="1298"/>
      <point x="526" y="1270"/>
      <point x="496" y="1237" type="curve"/>
      <point x="375" y="889"/>
      <point x="59" y="51"/>
      <point x="59" y="51" type="curve"/>
      <point x="74" y="0" type="line"/>
    </contour>
    <contour>
      <point x="881" y="166"/>
      <point x="881" y="166" type="curve"/>
      <point x="899" y="115"/>
      <point x="901" y="115"/>
      <point x="770" y="115" type="curve" smooth="yes"/>
      <point x="332" y="115" type="line" smooth="yes"/>
      <point x="205" y="115"/>
      <point x="205" y="115"/>
      <point x="223" y="166" type="curve"/>
      <point x="223" y="166"/>
      <point x="426" y="711"/>
      <point x="547" y="1049" type="curve"/>
      <point x="657" y="748"/>
    </contour>
  </outline>
</glyph>
<glyph name="GrCapTheta" format="2">
  <advance width="1266"/>
  <unicode hex="0398"/>
  <anchor x="616" y="-100" name="L"/>
  <anchor x="616" y="1370" name="U"/>
  <outline>
    <contour>
      <point x="1176" y="285"/>
      <point x="1176" y="647" type="curve" smooth="yes"/>
      <point x="1176" y="973"/>
      <point x="993" y="1290"/>
      <point x="653" y="1290" type="curve" smooth="yes"/>
      <point x="334" y="1290"/>
      <point x="70" y="975"/>
      <point x="70" y="612" type="curve" smooth="yes"/>
      <point x="70" y="276"/>
      <point x="266" y="-30"/>
      <point x="594" y="-30" type="curve" smooth="yes"/>
      <point x="905" y="-30"/>
    </contour>
    <contour>
      <point x="1021" y="905"/>
      <point x="1021" y="629" type="curve" smooth="yes"/>
      <point x="1021" y="276"/>
      <point x="856" y="90"/>
      <point x="625" y="90" type="curve" smooth="yes"/>
      <point x="410" y="90"/>
      <point x="225" y="342"/>
      <point x="225" y="641" type="curve" smooth="yes"/>
      <point x="225" y="967"/>
      <point x="373" y="1175"/>
      <point x="625" y="1175" type="curve" smooth="yes"/>
      <point x="862" y="1175"/>
    </contour>
    <contour>
      <point x="879" y="469" type="line"/>
      <point x="907" y="829" type="line"/>
      <point x="864" y="829" type="line"/>
      <point x="846" y="733"/>
      <point x="801" y="715"/>
      <point x="784" y="715" type="curve" smooth="yes"/>
      <point x="471" y="715" type="line" smooth="yes"/>
      <point x="453" y="715"/>
      <point x="430" y="739"/>
      <point x="412" y="829" type="curve"/>
      <point x="369" y="829" type="line"/>
      <point x="338" y="469" type="line"/>
      <point x="381" y="469" type="line"/>
      <point x="399" y="565"/>
      <point x="436" y="585"/>
      <point x="453" y="585" type="curve" smooth="yes"/>
      <point x="764" y="585" type="line" smooth="yes"/>
      <point x="782" y="585"/>
      <point x="817" y="559"/>
      <point x="836" y="469" type="curve"/>
    </contour>
  </outline>
</glyph>
<glyph name="GrCapIota" format="2">
  <advance width="650"/>
  <unicode hex="0399"/>
  <anchor x="20" y="1260" name="G"/>
  <anchor x="315" y="1370" name="U"/>
  <outline>
    <contour>
      <point x="90" y="0" type="line"/>
      <point x="540" y="0" type="line"/>
      <point x="540" y="43" type="line"/>
      <point x="444" y="61"/>
      <point x="395" y="88"/>
      <point x="395" y="104" type="curve" smooth="yes"/>
      <point x="395" y="1155" type="line" smooth="yes"/>
      <point x="395" y="1174"/>
      <point x="450" y="1198"/>
      <point x="540" y="1217" type="curve"/>
      <point x="540" y="1260" type="line"/>
      <point x="90" y="1260" type="line"/>
      <point x="90" y="1217" type="line"/>
      <point x="186" y="1198"/>
      <point x="235" y="1171"/>
      <point x="235" y="1155" type="curve" smooth="yes"/>
      <point x="235" y="104" type="line" smooth="yes"/>
      <point x="235" y="86"/>
      <point x="180" y="61"/>
      <point x="90" y="43" type="curve"/>
    </contour>
  </outline>
</glyph>
<glyph name="GrCapPi" format="2">
  <advance width="1290"/>
  <unicode hex="03A0"/>
  <outline>
    <contour>
      <point x="49" y="0" type="line"/>
      <point x="500" y="0" type="line"/>
      <point x="500" y="43" type="line"/>
      <point x="403" y="61"/>
      <point x="355" y="88"/>
      <point x="355" y="104" type="curve" smooth="yes"/>
      <point x="355" y="1107" type="line" smooth="yes"/>
      <point x="355" y="1138"/>
      <point x="419" y="1174"/>
      <point x="544" y="1176" type="curve"/>
      <point x="710" y="1176" type="line" smooth="yes"/>
      <point x="842" y="1176"/>
      <point x="915" y="1138"/>
      <point x="915" y="1107" type="curve" smooth="yes"/>
      <point x="915" y="104" type="line" smooth="yes"/>
      <point x="915" y="86"/>
      <point x="860" y="61"/>
      <point x="770" y="43" type="curve"/>
      <point x="770" y="0" type="line"/>
      <point x="1221" y="0" type="line"/>
      <point x="1221" y="43" type="line"/>
      <point x="1124" y="61"/>
      <point x="1075" y="88"/>
      <point x="1075" y="104" type="curve" smooth="yes"/>
      <point x="1075" y="1155" type="line" smooth="yes"/>
      <point x="1075" y="1174"/>
      <point x="1130" y="1198"/>
      <point x="1221" y="1217" type="curve"/>
      <point x="1221" y="1260" type="line"/>
      <point x="49" y="1260" type="line"/>
      <point x="49" y="1217" type="line"/>
      <point x="145" y="1198"/>
      <point x="195" y="1171"/>
      <point x="195" y="1155" type="curve" smooth="yes"/>
      <point x="195" y="104" type="line" smooth="yes"/>
      <point x="195" y="86"/>
      <point x="139" y="61"/>
      <point x="49" y="43" type="curve"/>
    </contour>
  </outline>
</glyph>
<glyph name="GrCapTau" format="2">
  <advance width="1128"/>
  <unicode hex="03A4"/>
  <outline>
    <contour>
      <point x="1081" y="1167"/>
      <point x="1083" y="1235" type="curve"/>
      <point x="1053" y="1260" type="line"/>
      <point x="547" y="1260" type="line"/>
      <point x="518" y="1169" type="line"/>
      <point x="915" y="1169" type="line" smooth="yes"/>
      <point x="975" y="1169"/>
      <point x="983" y="1112"/>
      <point x="1008" y="999" type="curve"/>
      <point x="1053" y="999" type="line"/>
      <point x="1069" y="1083"/>
    </contour>
    <contour>
      <point x="172" y="1169" type="curve" smooth="yes"/>
      <point x="698" y="1169" type="line"/>
      <point x="670" y="1260" type="line"/>
      <point x="43" y="1260" type="line"/>
      <point x="29" y="1190"/>
      <point x="16" y="1092"/>
      <point x="10" y="1014" type="curve"/>
      <point x="53" y="995" type="line"/>
      <point x="113" y="1151"/>
      <point x="131" y="1169"/>
    </contour>
    <contour>
      <point x="305" y="0" type="line"/>
      <point x="795" y="0" type="line"/>
      <point x="795" y="43" type="line"/>
      <point x="672" y="68"/>
      <point x="631" y="98"/>
      <point x="631" y="115" type="curve" smooth="yes"/>
      <point x="631" y="1176" type="line" smooth="yes"/>
      <point x="631" y="1194"/>
      <point x="684" y="1198"/>
      <point x="774" y="1217" type="curve"/>
      <point x="774" y="1260" type="line"/>
      <point x="326" y="1260" type="line"/>
      <point x="326" y="1217" type="line"/>
      <point x="422" y="1198"/>
      <point x="471" y="1192"/>
      <point x="471" y="1176" type="curve" smooth="yes"/>
      <point x="471" y="115" type="line" smooth="yes"/>
      <point x="471" y="96"/>
      <point x="428" y="68"/>
      <point x="305" y="43" type="curve"/>
    </contour>
  </outline>
</glyph>
<glyph name="GrCapPhi" format="2">
  <advance width="1341"/>
  <unicode hex="03A6"/>
  <outline>
    <contour>
      <point x="1235" y="349"/>
      <point x="1235" y="645" type="curve" smooth="yes"/>
      <point x="1235" y="960"/>
      <point x="964" y="1094"/>
      <point x="681" y="1094" type="curve" smooth="yes"/>
      <point x="321" y="1094"/>
      <point x="85" y="887"/>
      <point x="85" y="623" type="curve" smooth="yes"/>
      <point x="85" y="271"/>
      <point x="395" y="168"/>
      <point x="667" y="168" type="curve" smooth="yes"/>
      <point x="969" y="168"/>
    </contour>
    <contour>
      <point x="435" y="0" type="line"/>
      <point x="886" y="0" type="line"/>
      <point x="886" y="43" type="line"/>
      <point x="790" y="61"/>
      <point x="740" y="88"/>
      <point x="740" y="104" type="curve" smooth="yes"/>
      <point x="740" y="1155" type="line" smooth="yes"/>
      <point x="740" y="1174"/>
      <point x="796" y="1198"/>
      <point x="886" y="1217" type="curve"/>
      <point x="886" y="1260" type="line"/>
      <point x="435" y="1260" type="line"/>
      <point x="435" y="1217" type="line"/>
      <point x="531" y="1198"/>
      <point x="580" y="1171"/>
      <point x="580" y="1155" type="curve" smooth="yes"/>
      <point x="580" y="104" type="line" smooth="yes"/>
      <point x="580" y="86"/>
      <point x="525" y="61"/>
      <point x="435" y="43" type="curve"/>
    </contour>
    <contour>
      <point x="1075" y="878"/>
      <point x="1075" y="626" type="curve" smooth="yes"/>
      <point x="1075" y="426"/>
      <point x="960" y="256"/>
      <point x="689" y="256" type="curve" smooth="yes"/>
      <point x="484" y="256"/>
      <point x="245" y="360"/>
      <point x="245" y="641" type="curve" smooth="yes"/>
      <point x="245" y="816"/>
      <point x="352" y="1010"/>
      <point x="630" y="1010" type="curve" smooth="yes"/>
      <point x="867" y="1010"/>
    </contour>
  </outline>
</glyph>
<glyph name="GrSmBeta" format="2">
  <advance width="1020"/>
  <unicode hex="03B2"/>
  <anchor x="640" y="-100" name="L"/>
  <anchor x="480" y="1620" name="U"/>
  <outline>
    <contour>
      <point x="548" y="1550" type="curve" smooth="yes"/>
      <point x="187" y="1550"/>
      <point x="140" y="1102"/>
      <point x="140" y="747" type="curve" smooth="yes"/>
      <point x="140" y="-471" type="line"/>
      <point x="181" y="-500" type="line"/>
      <point x="214" y="-484"/>
      <point x="296" y="-453"/>
      <point x="335" y="-443" type="curve"/>
      <point x="306" y="-376"/>
      <point x="290" y="-307"/>
      <point x="290" y="9" type="curve" smooth="yes"/>
      <point x="290" y="67"/>
      <point x="290" y="137"/>
      <point x="290" y="219" type="curve" smooth="yes"/>
      <point x="290" y="383"/>
      <point x="290" y="596"/>
      <point x="290" y="864" type="curve" smooth="yes"/>
      <point x="290" y="1214"/>
      <point x="324" y="1435"/>
      <point x="484" y="1435" type="curve" smooth="yes"/>
      <point x="579" y="1435"/>
      <point x="675" y="1355"/>
      <point x="675" y="1156" type="curve" smooth="yes"/>
      <point x="675" y="1152" type="line" smooth="yes"/>
      <point x="675" y="998"/>
      <point x="555" y="911"/>
      <point x="387" y="875" type="curve"/>
      <point x="394" y="795" type="line"/>
      <point x="418" y="795" type="line" smooth="yes"/>
      <point x="675" y="795"/>
      <point x="790" y="639"/>
      <point x="790" y="421" type="curve" smooth="yes"/>
      <point x="790" y="276"/>
      <point x="703" y="105"/>
      <point x="557" y="105" type="curve" smooth="yes"/>
      <point x="435" y="105"/>
      <point x="296" y="247"/>
      <point x="249" y="365" type="curve"/>
      <point x="237" y="237" type="line"/>
      <point x="322" y="83"/>
      <point x="445" y="-30"/>
      <point x="576" y="-30" type="curve" smooth="yes"/>
      <point x="660" y="-30"/>
      <point x="940" y="86"/>
      <point x="940" y="470" type="curve" smooth="yes"/>
      <point x="940" y="715"/>
      <point x="794" y="849"/>
      <point x="598" y="881" type="curve"/>
      <point x="770" y="960"/>
      <point x="815" y="1108"/>
      <point x="815" y="1224" type="curve" smooth="yes"/>
      <point x="815" y="1413"/>
      <point x="691" y="1550"/>
    </contour>
  </outline>
</glyph>
<glyph name="GrSmKappa" format="2">
  <advance width="1046"/>
  <unicode hex="03BA"/>
  <outline>
    <contour>
      <point x="945" y="950"/>
      <point x="938" y="960" type="curve"/>
      <point x="833" y="960"/>
      <point x="742" y="928"/>
      <point x="340" y="416" type="curve"/>
      <point x="340" y="489"/>
      <point x="340" y="926"/>
      <point x="340" y="926" type="curve"/>
      <point x="340" y="926"/>
      <point x="312" y="960"/>
      <point x="312" y="960" type="curve"/>
      <point x="246" y="933"/>
      <point x="142" y="895"/>
      <point x="43" y="880" type="curve"/>
      <point x="43" y="840" type="line"/>
      <point x="190" y="826"/>
      <point x="190" y="819"/>
      <point x="190" y="673" type="curve" smooth="yes"/>
      <point x="190" y="557"/>
      <point x="190" y="385"/>
      <point x="190" y="252" type="curve" smooth="yes"/>
      <point x="190" y="145"/>
      <point x="186" y="43"/>
      <point x="177" y="0" type="curve"/>
      <point x="215" y="-31" type="line"/>
      <point x="254" y="-14"/>
      <point x="322" y="11"/>
      <point x="356" y="25" type="curve"/>
      <point x="348" y="78"/>
      <point x="340" y="214"/>
      <point x="340" y="291" type="curve"/>
      <point x="695" y="711"/>
      <point x="748" y="752"/>
      <point x="868" y="770" type="curve"/>
      <point x="898" y="802"/>
      <point x="931" y="865"/>
      <point x="958" y="931" type="curve"/>
      <point x="960" y="928"/>
    </contour>
    <contour>
      <point x="923" y="14"/>
      <point x="1031" y="82" type="curve"/>
      <point x="1028" y="95"/>
      <point x="1024" y="112"/>
      <point x="1021" y="127" type="curve"/>
      <point x="969" y="108"/>
      <point x="944" y="99"/>
      <point x="898" y="99" type="curve" smooth="yes"/>
      <point x="794" y="99"/>
      <point x="710" y="562"/>
      <point x="583" y="562" type="curve" smooth="yes"/>
      <point x="547" y="562"/>
      <point x="359" y="544"/>
      <point x="241" y="197" type="curve"/>
      <point x="258" y="173"/>
      <point x="279" y="175"/>
      <point x="279" y="175" type="curve"/>
      <point x="300" y="278"/>
      <point x="442" y="436"/>
      <point x="512" y="436" type="curve" smooth="yes"/>
      <point x="616" y="436"/>
      <point x="687" y="-31"/>
      <point x="796" y="-31" type="curve" smooth="yes"/>
      <point x="831" y="-31"/>
    </contour>
  </outline>
</glyph>
<glyph name="GrSmLamda" format="2">
  <advance width="1083"/>
  <unicode hex="03BB"/>
  <anchor x="556" y="-100" name="L"/>
  <anchor x="556" y="1690" name="U"/>
  <outline>
    <contour>
      <point x="993" y="16"/>
      <point x="1093" y="92" type="curve"/>
      <point x="1083" y="137" type="line"/>
      <point x="1017" y="107"/>
      <point x="1000" y="100"/>
      <point x="968" y="100" type="curve" smooth="yes"/>
      <point x="894" y="100"/>
      <point x="809" y="373"/>
      <point x="702" y="768" type="curve" smooth="yes"/>
      <point x="517" y="1453"/>
      <point x="474" y="1510"/>
      <point x="381" y="1510" type="curve" smooth="yes"/>
      <point x="326" y="1510"/>
      <point x="247" y="1466"/>
      <point x="113" y="1330" type="curve"/>
      <point x="137" y="1279" type="line"/>
      <point x="202" y="1330"/>
      <point x="247" y="1350"/>
      <point x="294" y="1350" type="curve" smooth="yes"/>
      <point x="366" y="1350"/>
      <point x="426" y="1285"/>
      <point x="572" y="743" type="curve" smooth="yes"/>
      <point x="746" y="95"/>
      <point x="781" y="-30"/>
      <point x="887" y="-30" type="curve" smooth="yes"/>
      <point x="932" y="-30"/>
    </contour>
    <contour>
      <point x="460" y="635"/>
      <point x="571" y="935" type="curve"/>
      <point x="566" y="955"/>
      <point x="538" y="1088"/>
      <point x="510" y="1113" type="curve"/>
      <point x="432" y="834"/>
      <point x="233" y="273"/>
      <point x="20" y="2" type="curve"/>
      <point x="50" y="-30" type="line"/>
      <point x="97" y="-16"/>
      <point x="197" y="12"/>
      <point x="249" y="26" type="curve"/>
      <point x="359" y="371"/>
    </contour>
  </outline>
</glyph>
